<?xml version="1.0" encoding="UTF-8" standalone="no"?>
<!-- Created with Inkscape (http://www.inkscape.org/) -->

<svg
   width="70mm"
   height="28.770531mm"
   viewBox="0 0 264.56694 108.73902"
   version="1.1"
   id="svg1"
   xml:space="preserve"
   xmlns:inkscape="http://www.inkscape.org/namespaces/inkscape"
   xmlns:sodipodi="http://sodipodi.sourceforge.net/DTD/sodipodi-0.dtd"
   xmlns="http://www.w3.org/2000/svg"
   xmlns:svg="http://www.w3.org/2000/svg"><sodipodi:namedview
     id="namedview1"
     pagecolor="#ffffff"
     bordercolor="#000000"
     borderopacity="0.25"
     inkscape:showpageshadow="2"
     inkscape:pageopacity="0.0"
     inkscape:pagecheckerboard="0"
     inkscape:deskcolor="#d1d1d1"
     inkscape:document-units="mm"><inkscape:page
       x="5.0432733e-22"
       y="0"
       width="264.56696"
       height="108.73902"
       id="page2"
       margin="0"
       bleed="0" /></sodipodi:namedview><defs
     id="defs1" /><g
     inkscape:label="Camada 1"
     inkscape:groupmode="layer"
     id="layer1"
     transform="translate(-45.523982,-879.03727)"><path
       style="fill:#ffffff;fill-opacity:0.94902;stroke-width:0.165433"
       d="m 46.342919,987.4453 c -0.6453,-0.39338 -0.92476,-1.03207 -0.7828,-1.7887 0.11288,-0.60172 9.83632,-26.63063 10.38156,-27.79054 1.09933,-2.33878 4.15592,-2.19303 5.26936,0.25127 0.18429,0.40446 2.56375,6.71987 5.28784,14.03428 3.50855,9.42086 4.95273,13.49559 4.95273,13.97331 0,0.85335 -0.51231,1.40423 -1.45382,1.56331 -0.83453,0.14098 -1.46224,-0.12873 -1.93527,-0.83151 -0.18759,-0.2786 -0.92642,-2.15836 -1.64184,-4.1772 l -1.30091,-3.67068 h -6.58492 c -3.92941,0 -6.62364,0.0627 -6.68095,0.15546 -0.0526,0.0855 -0.68054,1.7849 -1.39487,3.77644 -0.71432,1.99155 -1.38872,3.78905 -1.49865,3.99443 -0.21755,0.40641 -1.09715,0.84207 -1.69817,0.84109 -0.20768,-3.4e-4 -0.62134,-0.14928 -0.91929,-0.33096 z m 17.45571,-12.11738 c -0.0427,-0.11373 -1.13432,-3.18459 -2.42473,-6.82416 -1.29041,-3.63955 -2.46487,-6.9458 -2.61002,-7.34721 l -0.26392,-0.72982 -0.29509,0.81255 c -0.26721,0.73545 -1.19832,3.35334 -3.8488,10.82133 -0.50061,1.41032 -0.98875,2.76895 -1.08478,3.01917 l -0.17467,0.45495 h 5.39021 c 4.24376,0 5.37359,-0.044 5.3118,-0.20681 z m 12.33707,12.12631 c -0.28984,-0.17677 -0.60791,-0.47233 -0.70657,-0.65682 -0.12512,-0.23381 -0.16591,-3.59828 -0.13463,-11.10734 l 0.0449,-10.77192 0.4642,-0.39919 c 0.3489,-0.30007 0.65811,-0.3992 1.24534,-0.3992 1.40143,0 1.86878,0.59152 2.00484,2.53732 l 0.0907,1.29658 0.68447,-0.97258 c 0.7339,-1.04282 2.09716,-2.19625 3.08218,-2.60781 0.69311,-0.28961 2.13993,-0.33568 2.61167,-0.0831 0.40435,0.21636 0.81802,1.00876 0.81802,1.5667 0,1.07179 -0.70678,1.69026 -2.64689,2.31609 -2.11191,0.68124 -3.32839,1.65744 -4.07214,3.26774 l -0.47731,1.03356 -0.0831,7.03095 c -0.0918,7.79374 -0.0787,7.70521 -1.19361,8.09391 -0.72987,0.25442 -1.13268,0.22075 -1.73228,-0.14482 z m 19.00599,0.0739 c -1.93998,-0.35154 -3.50493,-1.19596 -4.98564,-2.69033 -1.43807,-1.45123 -2.25663,-2.91783 -2.84321,-5.09412 -0.50946,-1.88996 -0.50826,-5.70507 0,-7.60036 0.93943,-3.48658 2.84223,-5.90101 5.65612,-7.17692 1.54951,-0.70256 2.8036,-0.90143 5.06898,-0.80378 2.441151,0.10522 3.730681,0.51583 4.781111,1.52234 0.87741,0.84068 0.95419,1.44513 0.28459,2.24087 -0.40884,0.48592 -0.49918,0.51757 -1.28209,0.44895 -0.46321,-0.0407 -1.36335,-0.27621 -2.000241,-0.52358 -1.01478,-0.39411 -1.3428,-0.44297 -2.65137,-0.39488 -1.29543,0.0476 -1.64151,0.12791 -2.61263,0.60636 -2.44433,1.20429 -3.81568,4.04677 -3.8044,7.88562 0.0109,2.13808 0.30843,3.45867 1.16517,5.09298 1.18323,2.25683 2.9669,3.31484 5.5871,3.31399 1.28657,-5.1e-4 1.66491,-0.0715 2.783591,-0.52281 1.63657,-0.66031 2.44169,-0.6842 2.91189,-0.0864 1.14778,1.45916 -0.59632,3.16044 -3.885111,3.78968 -1.5061,0.28817 -2.55468,0.28626 -4.17626,-0.008 z m 18.917171,0.0649 c -3.75189,-0.54672 -6.75105,-3.16987 -7.94478,-6.94876 -2.30037,-7.28185 0.98777,-14.73379 7.18934,-16.29356 1.36324,-0.34289 4.32381,-0.24831 5.54521,0.17715 3.25729,1.13466 5.82159,4.26607 6.60307,8.06345 0.29422,1.4294 0.34278,3.20672 0.10489,3.83247 -0.31773,0.8357 -0.37778,0.8422 -8.61044,0.93072 l -7.69278,0.0827 0.0504,0.74445 c 0.1575,2.35281 1.68874,4.61732 3.76512,5.5679 2.52755,1.15713 5.47389,0.82468 8.25486,-0.93141 1.53902,-0.97178 2.037,-1.11052 2.71962,-0.75756 1.31402,0.67953 1.07691,2.24962 -0.51528,3.41055 -2.47635,1.80573 -6.08649,2.61474 -9.4687,2.12187 z m 7.84779,-13.58857 c 0,-0.87484 -0.47077,-2.60123 -0.9331,-3.45062 -0.56,-1.02894 -1.72669,-2.18581 -2.68569,-2.66311 -0.65647,-0.3267 -1.01622,-0.37949 -2.58245,-0.37908 -1.65146,0 -1.90598,0.0428 -2.75067,0.45728 -1.13773,0.55839 -2.34523,1.81465 -2.89189,3.00869 -0.44362,0.96882 -0.95943,3.15632 -0.8038,3.40822 0.058,0.0935 2.6121,0.15627 6.37339,0.15627 h 6.27671 z m 8.98798,13.53816 c -1.10555,-0.49742 -1.05459,0.30304 -1.00591,-15.80609 l 0.0438,-14.55758 0.45872,-0.45866 c 0.38915,-0.38913 0.59543,-0.45866 1.36106,-0.45866 0.76562,0 0.9719,0.0696 1.36105,0.45866 l 0.45873,0.45866 0.0438,14.53678 c 0.0273,9.11681 -0.0153,14.69438 -0.11669,14.95944 -0.32726,0.86084 -1.64457,1.29951 -2.60489,0.86745 z m 15.4161,0.11885 c -3.10111,-0.41129 -5.86677,-2.42978 -7.32222,-5.34394 -0.82349,-1.64899 -1.1514,-2.85518 -1.34434,-4.94593 -0.65154,-7.0608 3.05616,-12.58431 8.87841,-13.22636 5.31476,-0.58611 9.42015,2.34228 10.98093,7.83265 0.50695,1.78329 0.54808,5.6384 0.0809,7.52726 -0.38861,1.56922 -1.36872,3.64273 -2.23804,4.73444 -2.02627,2.54496 -5.55909,3.88292 -9.03513,3.42188 z m 4.00302,-3.86492 c 1.17927,-0.57344 2.09048,-1.52194 2.74366,-2.85589 1.84308,-3.76394 1.23584,-9.41611 -1.27728,-11.88889 -1.15401,-1.13555 -2.04094,-1.51304 -3.73231,-1.58865 -1.76728,-0.0789 -2.92107,0.31069 -4.12529,1.39337 -3.22111,2.89608 -3.36406,10.45497 -0.26055,13.77294 1.72388,1.84296 4.32382,2.29914 6.65177,1.16712 z m 12.63904,3.77108 c -0.21864,-0.11239 -0.55365,-0.41445 -0.7444,-0.67125 -0.34136,-0.4595 -0.34771,-0.61956 -0.39943,-10.09149 -0.0283,-5.29354 0,-10.10294 0.058,-10.68757 0.14842,-1.43178 0.67189,-1.99756 1.84789,-1.99756 1.45829,0 2.03482,0.80056 2.03482,2.82592 v 1.18221 l 0.68524,-1.02623 c 1.2286,-1.83983 2.99905,-2.97198 4.65751,-2.97827 0.79582,-0.003 1.0266,0.0642 1.35811,0.39571 0.52619,0.52626 0.66445,1.14177 0.43126,1.92021 -0.22728,0.75874 -0.80117,1.15575 -2.51081,1.73725 -2.23158,0.759 -3.28575,1.62635 -4.10835,3.38021 l -0.43029,0.91742 -0.0831,7.03096 c -0.0754,6.43948 -0.10838,7.06819 -0.38326,7.47353 -0.48607,0.71603 -1.62509,0.99401 -2.41325,0.58895 z m 13.13211,-0.0216 c -0.97649,-0.42543 -1.0886,-1.24037 -0.58296,-4.23578 0.17663,-1.04638 1.18376,-7.07646 2.23813,-13.40019 2.13052,-12.77745 2.11149,-12.7024 3.39906,-13.37062 0.59511,-0.30887 0.91251,-0.36761 1.62126,-0.30014 0.48476,0.0462 1.05678,0.19879 1.27116,0.33926 1.01883,0.66756 1.18049,1.10736 3.91016,10.63473 1.45469,5.07729 2.93256,10.34811 3.2842,11.71294 0.35163,1.36484 0.679,2.36985 0.72734,2.23337 0.0482,-0.13649 0.27628,-1.00429 0.50651,-1.92847 0.23024,-0.92416 0.83366,-3.12031 1.34073,-4.88029 0.50716,-1.76002 1.77669,-6.17785 2.82122,-9.8174 2.03,-7.07404 2.18378,-7.44094 3.38417,-8.07507 0.73785,-0.38974 2.0977,-0.2836 2.80328,0.2188 1.00581,0.71625 1.05142,0.91699 3.41054,15.02914 1.22653,7.33755 2.23846,13.68851 2.24875,14.11325 0.0317,1.32216 -0.7804,2.08989 -2.00474,1.89461 -0.68087,-0.10859 -1.27422,-0.63455 -1.49625,-1.32637 -0.0907,-0.28232 -0.27792,-1.25778 -0.41617,-2.16767 -0.13825,-0.90988 -0.364,-2.36158 -0.50182,-3.22597 -0.1377,-0.8644 -0.36202,-2.27886 -0.49852,-3.14325 -0.13639,-0.86441 -0.35492,-2.24163 -0.48563,-3.06053 -1.14822,-7.19728 -1.45513,-9.17288 -1.67037,-10.75324 -0.39135,-2.87315 -0.38698,-2.86911 -0.89644,-0.82717 -0.24971,1.00087 -0.87993,3.27146 -1.40044,5.04574 -1.01162,3.44849 -1.60223,5.47195 -2.82494,9.67792 -2.64961,9.11458 -2.54046,8.77536 -2.97413,9.24339 -0.79536,0.85813 -2.66131,0.71424 -3.15656,-0.24342 -0.21491,-0.41554 -1.14351,-3.3363 -1.44135,-4.53324 -0.0449,-0.18198 -0.87882,-3.04813 -1.85225,-6.36923 -2.38308,-8.13004 -3.46151,-11.91487 -3.81786,-13.39953 -0.16362,-0.68205 -0.32113,-1.16594 -0.34989,-1.07531 -0.0283,0.0906 -0.19983,1.16978 -0.3804,2.39813 -0.18047,1.22835 -0.44122,2.94059 -0.57947,3.80499 -0.38413,2.40066 -0.72648,4.55259 -1.00013,6.2865 -0.1365,0.8644 -0.35492,2.24165 -0.48551,3.06055 -0.37166,2.33171 -0.91952,5.80804 -1.18125,7.49486 -0.31818,2.05049 -0.5752,2.6307 -1.29981,2.93345 -0.70263,0.29357 -1.01687,0.29569 -1.66962,0.0112 z m 38.38473,0.002 c -1.02168,-0.44542 -0.99256,-0.0991 -0.99256,-11.80336 v -10.65901 l 0.54019,-0.48271 c 0.44615,-0.39859 0.68622,-0.48272 1.37759,-0.48272 0.7049,0 0.91381,0.0764 1.3209,0.48359 l 0.48356,0.48358 v 10.72914 c 0,11.77795 0.0515,11.17279 -0.99445,11.71361 -0.57979,0.2998 -1.07679,0.30493 -1.73523,0.0178 z m 10.58783,-0.005 c -1.02363,-0.45783 -0.9882,-0.1 -1.03917,-10.47694 l -0.0471,-9.47113 h -0.99564 c -1.15052,0 -1.82471,-0.28992 -2.10503,-0.90525 -0.38686,-0.84886 -0.10838,-1.77395 0.65351,-2.16768 0.25068,-0.12966 0.90016,-0.23575 1.4432,-0.23575 h 0.98744 l 0.0547,-2.9673 0.0547,-2.96731 0.46999,-0.49025 c 0.78455,-0.8183 2.23716,-0.7766 2.91386,0.0836 0.31205,0.39671 0.33841,0.65891 0.33841,3.36819 v 2.938 l 1.3208,0.06 c 1.1607,0.0528 1.37321,0.11235 1.75286,0.49198 0.7876,0.78768 0.51833,2.27209 -0.47513,2.61842 -0.27354,0.0953 -0.97005,0.17333 -1.54788,0.17333 h -1.05065 v 9.47567 c 0,10.39695 0.0449,9.92256 -0.99444,10.46013 -0.58297,0.30144 -1.08085,0.30496 -1.73524,0.0122 z m 12.19456,-0.007 c -1.03447,-0.46445 -1.0278,-0.39498 -1.0278,-10.6539 v -9.25156 l -1.25858,-0.0636 c -1.13236,-0.0572 -1.29827,-0.10973 -1.65429,-0.5236 -0.4246,-0.49363 -0.52718,-1.37592 -0.22542,-1.93969 0.27725,-0.51818 1.06082,-0.81801 2.13751,-0.81801 h 1.00078 l 4.3e-4,-2.77102 c 1.1e-4,-2.30672 0.0482,-2.86805 0.28941,-3.35005 0.58156,-1.16396 2.5095,-1.23386 3.19135,-0.11567 0.28677,0.47035 0.32277,0.845 0.32332,3.36548 l 6.5e-4,2.83622 1.33951,0.0608 c 1.22478,0.0557 1.37353,0.10031 1.73698,0.52305 0.27246,0.3167 0.39759,0.66475 0.39759,1.1055 0,0.44077 -0.12513,0.78882 -0.39759,1.1055 -0.36345,0.42264 -0.5122,0.46744 -1.73698,0.52306 l -1.33951,0.0608 v 9.31875 c 0,5.52188 -0.0645,9.48813 -0.15805,9.73446 -0.32726,0.86073 -1.64587,1.29037 -2.6192,0.85338 z m 16.07901,-0.004 c -3.72336,-0.81007 -6.36367,-3.58293 -7.44714,-7.82111 -0.32856,-1.28489 -0.413,-2.02982 -0.41726,-3.67904 -0.0109,-4.18517 1.19558,-7.38825 3.61561,-9.60009 3.62097,-3.30935 9.57349,-3.07194 12.20713,0.48689 0.27202,0.36753 0.54249,0.67 0.60113,0.67214 0.058,0.002 0.13387,-0.59885 0.16735,-1.33559 0.0558,-1.22476 0.10053,-1.37351 0.52301,-1.73705 0.56132,-0.48284 1.80832,-0.54898 2.40965,-0.12779 0.84492,0.5918 0.84656,0.61347 0.84656,11.56982 0,9.18724 -0.0273,10.25356 -0.27671,10.7789 -0.54579,1.15014 -2.19528,1.3541 -3.07333,0.38001 -0.41093,-0.45572 -0.455,-0.62473 -0.455,-1.74281 0,-0.68098 -0.0558,-1.23765 -0.12404,-1.23701 -0.0678,6.5e-4 -0.30481,0.26652 -0.52576,0.59089 -1.61929,2.3774 -4.844,3.49962 -8.0512,2.80184 z m 4.84596,-3.73464 c 1.66677,-0.81052 2.84704,-2.43929 3.46938,-4.7877 0.38522,-1.45358 0.38413,-4.80472 0,-6.26782 -0.57696,-2.18619 -1.9518,-4.05627 -3.5582,-4.83988 -1.15652,-0.5642 -3.25302,-0.62408 -4.56891,-0.13048 -1.93025,0.72403 -3.42059,2.76216 -3.99492,5.46354 -0.36171,1.701 -0.23341,4.77145 0.2649,6.33936 1.03819,3.26671 3.35693,5.03886 6.28917,4.80669 0.7244,-0.0575 1.40986,-0.24782 2.10054,-0.58371 z m 14.16408,3.74606 c -1.09584,-0.49295 -1.04476,0.26914 -1.04411,-15.59787 6.6e-4,-14.06003 0.0109,-14.37093 0.33098,-14.90141 0.18167,-0.29799 0.53495,-0.62072 0.7852,-0.71718 0.68654,-0.26471 1.68132,-0.0713 2.1758,0.42316 l 0.42974,0.42965 0.0438,14.53679 c 0.0273,9.11679 -0.0164,14.69437 -0.1167,14.95943 -0.32726,0.86085 -1.64457,1.2995 -2.60487,0.86743 z M 214.61052,961.7892 c -0.28645,-0.083 -0.75175,-0.41388 -1.03393,-0.7353 -0.43914,-0.50013 -0.51307,-0.71394 -0.51307,-1.48277 0,-0.7682 0.0744,-0.98279 0.51133,-1.48084 0.93909,-1.06953 2.51834,-1.0978 3.48556,-0.0624 1.10184,1.17955 0.66258,3.06789 -0.85488,3.67507 -0.74146,0.29665 -0.84865,0.30246 -1.59501,0.0861 z m 31.38166,-25.72255 c -0.31434,-0.13641 -0.81453,-0.43323 -1.11125,-0.65959 -1.67126,-1.27474 -8.38447,-9.93124 -14.16845,-18.26985 -0.40009,-0.57687 -3.70617,-5.57129 -4.19442,-6.33646 -0.2741,-0.42957 -0.49054,-0.60376 -0.68282,-0.54944 -0.15478,0.0438 -0.72812,0.16529 -1.27412,0.27007 -2.4652,0.47315 -6.50322,1.48368 -8.60257,2.15278 -3.61932,1.15355 -7.4411,2.48626 -8.76804,3.05745 -0.27289,0.11751 -1.20346,0.49368 -2.06785,0.83593 -0.86439,0.34224 -2.26482,0.94543 -3.11193,1.34043 -0.84711,0.39498 -1.57939,0.71814 -1.62728,0.71814 -0.0482,0 -1.54646,0.7164 -3.33015,1.59202 -4.85276,2.38209 -8.40285,4.37255 -13.9335,7.81214 -1.92916,1.19983 -4.82136,3.22463 -7.39288,5.17575 -1.29096,0.97951 -2.66602,1.94358 -3.05572,2.14237 -2.22512,1.13516 -5.21577,0.0867 -6.33292,-2.22022 -0.58876,-1.21565 -0.6778,-2.03531 -0.34542,-3.17886 0.23789,-0.81825 0.46748,-1.1487 1.54811,-2.22853 0.6978,-0.69731 1.61109,-1.52136 2.02934,-1.8312 0.41824,-0.30985 1.67465,-1.26138 2.79191,-2.11451 4.70224,-3.59055 11.93982,-8.10968 17.45767,-10.90057 0.273,-0.13807 0.60802,-0.30999 0.74452,-0.38205 1.15523,-0.61008 4.33508,-2.14221 5.54203,-2.67036 3.63092,-1.58885 5.01244,-2.18153 5.70752,-2.44852 9.54767,-3.66735 15.59305,-5.39356 24.56695,-7.0149 8.91329,-1.6104 20.49556,-1.64116 30.52263,-0.081 4.38431,0.68218 5.17858,0.8259 8.64402,1.56435 3.00847,0.64106 5.23272,1.20991 7.89951,2.02019 1.04628,0.31796 2.23748,0.67389 2.64687,0.79099 1.84876,0.52873 7.32768,2.5163 10.89212,3.95129 4.1266,1.66129 4.05507,1.5656 -0.966,-1.29181 -1.8653,-1.06146 -3.50308,-1.99674 -3.63957,-2.0784 -0.13651,-0.0815 -0.84372,-0.46095 -1.57162,-0.84294 -0.728,-0.38199 -1.4538,-0.80869 -1.61306,-0.9482 -0.15914,-0.13948 -0.28952,-0.19881 -0.28952,-0.13178 0,0.0671 -0.24192,-0.0265 -0.53757,-0.20799 -2.09836,-1.28727 -12.76364,-6.28317 -16.66754,-7.80756 -9.62338,-3.75769 -15.76708,-5.53595 -22.52996,-6.52115 -2.4874,-0.36236 -7.07996,-0.35047 -8.26317,0.0214 -3.17888,0.99907 -3.77509,3.31732 -1.86124,7.23661 0.39682,0.81246 0.70252,1.49608 0.67945,1.5192 -0.0229,0.023 -0.93419,0.16293 -2.02454,0.3107 -1.99926,0.271 -4.25141,0.68613 -6.16482,1.13632 -1.01555,0.23898 -1.0442,0.23638 -1.27335,-0.11426 -0.58503,-0.89513 -1.49001,-3.26269 -2.00265,-5.23905 -0.41147,-1.58623 -0.37778,-5.17388 0.0624,-6.63683 1.08172,-3.59673 3.33463,-5.88155 6.9836,-7.08256 6.25822,-2.05979 17.22513,-0.49836 29.85982,4.25136 1.09178,0.41046 2.24569,0.84143 2.56418,0.95766 4.08331,1.49062 14.64433,6.42762 19.35577,9.04837 0.40951,0.22775 1.45175,0.80461 2.31613,1.28193 0.8644,0.47731 1.98111,1.09444 2.48151,1.37144 5.84892,3.23735 15.79102,9.71858 20.84469,13.58856 5.29966,4.0583 6.64124,5.48657 7.19906,7.664 0.21951,0.85673 0.21842,1.06792 -0.0109,1.94819 -0.4154,1.60348 -1.48356,2.93141 -2.88814,3.59042 -0.89065,0.41789 -3.31746,0.49847 -4.38409,0.14561 -0.36389,-0.12041 -2.16781,-0.95565 -4.00849,-1.85606 -1.84078,-0.90043 -3.37804,-1.63715 -3.41632,-1.63715 -0.0383,0 -0.69881,-0.29342 -1.46781,-0.65205 -2.70769,-1.26267 -7.4396,-3.14343 -11.12487,-4.42184 -5.00982,-1.73778 -12.0668,-3.67336 -16.46071,-4.5148 -4.48123,-0.85814 -7.96448,-1.38827 -12.15946,-1.85062 -2.85107,-0.31425 -4.26277,-0.36639 -10.20731,-0.37696 -5.03037,-0.009 -6.95057,0.0398 -7.09068,0.17977 -0.14578,0.14579 0.1364,0.68377 1.17153,2.23336 1.953,2.92384 3.3963,5.00091 4.46469,6.42533 0.51187,0.68241 1.5004,2.02243 2.19679,2.97781 0.69639,0.95539 1.3253,1.81152 1.39759,1.9025 0.0722,0.0909 0.39551,0.50044 0.71827,0.90988 0.32266,0.40946 1.47546,1.84557 2.56178,3.19138 2.65639,3.29118 3.10363,4.03848 3.18533,5.32224 0.0994,1.55797 -0.57389,2.77309 -2.12865,3.8428 -1.274,0.87658 -3.08624,1.13767 -4.28554,0.61739 z"
       id="path5" /></g></svg>
