<?xml version="1.0" encoding="UTF-8" standalone="no"?>
<!-- Created with Inkscape (http://www.inkscape.org/) -->

<svg
   width="63.41716mm"
   height="31.983126mm"
   viewBox="0 0 239.68691 120.88111"
   version="1.1"
   id="svg1"
   xml:space="preserve"
   inkscape:export-filename="bitmap.svg"
   inkscape:export-xdpi="96"
   inkscape:export-ydpi="96"
   inkscape:version="1.4.3 (0d15f75, 2025-12-25)"
   sodipodi:docname="inomeado.svg"
   inkscape:export-batch-name="carmeuse"
   inkscape:export-batch-path="resultado"
   xmlns:inkscape="http://www.inkscape.org/namespaces/inkscape"
   xmlns:sodipodi="http://sodipodi.sourceforge.net/DTD/sodipodi-0.dtd"
   xmlns="http://www.w3.org/2000/svg"
   xmlns:svg="http://www.w3.org/2000/svg"><sodipodi:namedview
     id="namedview1"
     pagecolor="#ffffff"
     bordercolor="#000000"
     borderopacity="0.25"
     inkscape:showpageshadow="2"
     inkscape:pageopacity="0.0"
     inkscape:pagecheckerboard="0"
     inkscape:deskcolor="#d1d1d1"
     inkscape:document-units="mm"
     inkscape:zoom="0.48693448"
     inkscape:cx="413.81338"
     inkscape:cy="500.06728"
     inkscape:window-width="1920"
     inkscape:window-height="991"
     inkscape:window-x="-9"
     inkscape:window-y="-9"
     inkscape:window-maximized="1"
     inkscape:current-layer="layer1"
     showguides="false"><inkscape:page
       x="0"
       y="0"
       width="239.6869"
       height="120.88111"
       id="page1"
       margin="0"
       bleed="0" /></sodipodi:namedview><defs
     id="defs1" /><g
     inkscape:label="Camada 1"
     inkscape:groupmode="layer"
     id="layer1"
     transform="translate(-92.910145,-238.65428)"><path
       style="fill:#ffffff;fill-opacity:1;stroke-width:0.198837"
       d="m 92.998201,357.84525 v -1.69009 h 119.799459 119.7994 v 1.69009 1.69014 H 212.79766 92.998201 Z m 9.570239,-10.33497 c -3.611011,-0.8197 -6.913691,-3.40464 -8.4105,-6.58278 -1.085003,-2.30373 -1.233798,-3.64183 -1.247097,-11.21772 -0.01304,-7.58381 0.147595,-9.04244 1.261179,-11.43311 3.169584,-6.80454 13.251658,-9.03593 19.487558,-4.31306 2.2944,1.73766 4.12207,4.79266 4.69529,7.84834 l 0.13878,0.7397 h -2.71068 -2.71074 l -0.22593,-0.54678 c -1.22008,-2.95231 -2.10935,-4.08113 -3.91298,-4.96685 -1.00949,-0.49577 -1.33065,-0.5509 -3.20953,-0.5509 -1.83362,0 -2.22091,0.0628 -3.18137,0.51585 -0.60149,0.28372 -1.46829,0.89266 -1.92625,1.35313 -1.989552,2.00061 -2.319319,3.84001 -2.195663,12.24488 0.09883,6.71436 0.205538,7.48076 1.284648,9.22618 0.691975,1.11927 2.207815,2.29617 3.533195,2.74323 1.25466,0.42323 3.85624,0.41921 5.02281,-0.008 2.03243,-0.74376 3.81332,-2.66599 4.44172,-4.79422 l 0.26588,-0.90054 h 2.75611 2.75611 l -0.12919,0.64624 c -0.93412,4.67145 -3.89931,8.1623 -8.16172,9.60847 -1.97006,0.6684 -5.57679,0.85187 -7.62163,0.38765 z m 157.06906,0.0886 c -4.55849,-0.95269 -7.82451,-3.67626 -9.32022,-7.77209 l -0.53593,-1.4676 -0.0551,-13.27237 -0.0552,-13.27236 h 2.68283 2.68284 l 0.0566,12.87469 0.0566,12.87469 0.62073,1.3101 c 1.08099,2.28131 2.78975,3.55104 5.32374,3.9558 3.48328,0.55648 6.66434,-1.00025 8.03968,-3.93436 l 0.53093,-1.13267 0.0553,-12.97415 0.0552,-12.9741 h 2.7887 2.78871 l -0.0677,13.0735 c -0.0751,14.52296 -0.009,13.77664 -1.46442,16.55324 -0.93981,1.7931 -2.02779,2.99279 -3.77258,4.15972 -2.1878,1.46328 -4.14622,2.04484 -7.14369,2.1213 -1.31229,0.0334 -2.7825,-0.0219 -3.26711,-0.12334 z m 28.2212,-0.0661 c -2.95898,-0.57552 -5.49365,-1.75925 -7.29519,-3.40694 l -1.15541,-1.05668 0.69593,-0.73224 c 0.38276,-0.40278 1.20934,-1.17961 1.83685,-1.72634 l 1.14086,-0.99404 0.8475,0.72806 c 1.07911,0.92703 3.28813,1.98299 4.82421,2.30608 0.6562,0.13805 2.13256,0.25326 3.28082,0.25602 4.40709,0.0104 6.99709,-1.61416 7.45651,-4.67755 0.1876,-1.25096 -0.20147,-2.95732 -0.89146,-3.9098 -0.92745,-1.28032 -2.13746,-1.7303 -6.26678,-2.33059 -1.96848,-0.28622 -4.07121,-0.65771 -4.6727,-0.82559 -3.50274,-0.97768 -6.04924,-3.41591 -6.75274,-6.46575 -0.2856,-1.23828 -0.2457,-4.46633 0.0699,-5.65157 0.92953,-3.49096 3.73946,-6.11673 7.67706,-7.17405 1.80817,-0.48555 6.50902,-0.47412 8.4506,0.0203 1.90235,0.48467 4.37621,1.72472 5.57032,2.79231 l 0.99128,0.88619 -1.67856,1.67314 -1.67862,1.6732 -0.90627,-0.64441 c -2.05668,-1.46224 -4.05693,-2.07415 -6.80078,-2.08036 -2.26821,-0.005 -3.94844,0.57458 -5.15131,1.77745 -1.90689,1.90689 -2.1202,4.93488 -0.47585,6.75493 1.06503,1.17888 2.51094,1.70141 6.35189,2.29528 4.29088,0.6635 4.86582,0.80437 6.5616,1.60769 1.50745,0.71409 3.02428,2.06622 3.79814,3.38587 0.26207,0.44685 0.65552,1.51256 0.87435,2.36814 1.53947,6.01936 -1.61504,11.21177 -7.85386,12.92768 -1.58255,0.43522 -7.04955,0.57327 -8.84827,0.22337 z m -168.41512,0 c 0,-0.0396 2.71944,-7.48879 6.04319,-16.55319 3.32375,-9.06446 6.25411,-17.08725 6.5119,-17.82846 l 0.46876,-1.34765 2.26211,0.0552 2.26216,0.0552 6.52995,17.79591 c 3.59145,9.78777 6.53286,17.82073 6.53641,17.85098 0.005,0.0303 -1.30238,0.0303 -2.90209,0 l -2.90855,-0.055 -1.2254,-3.53935 -1.22541,-3.53941 h -7.05064 -7.05065 l -0.74507,2.14665 c -0.40977,1.1806 -0.97809,2.79527 -1.2629,3.58816 l -0.51783,1.44158 h -2.86297 c -1.57462,0 -2.86297,-0.0323 -2.86297,-0.0724 z m 20.40218,-13.10057 c -0.25185,-0.68353 -1.47162,-4.23008 -2.71064,-7.88125 -1.87659,-5.53 -2.28318,-6.55931 -2.43489,-6.16398 -0.40153,1.04615 -5.31482,15.07938 -5.31482,15.17998 0,0.0594 2.45664,0.10796 5.45913,0.10796 h 5.45912 z m 13.20128,-4.72241 v -17.89531 h 8.01116 c 8.79351,0 9.23212,0.0459 11.63948,1.21737 3.77311,1.83612 5.90833,6.20993 5.24692,10.74781 -0.48842,3.35113 -2.21017,5.72319 -5.22334,7.19611 l -1.71367,0.83769 4.04055,7.74674 c 2.22232,4.26069 4.04191,7.81611 4.04358,7.90091 0,0.0848 -1.40231,0.1295 -3.11994,0.0994 l -3.12301,-0.0548 -3.7524,-7.5061 -3.7524,-7.50611 h -3.36474 -3.36474 v 7.55581 7.55581 h -2.7837 -2.78375 z m 15.7434,-2.16943 c 1.39297,-0.43298 2.59714,-1.42468 3.22455,-2.65561 1.13914,-2.23489 0.63268,-5.30116 -1.12396,-6.8048 -1.44424,-1.23614 -2.08004,-1.35954 -7.45473,-1.44648 l -4.82181,-0.078 v 5.70519 5.70524 l 4.7224,-0.0991 c 2.68106,-0.0563 5.03846,-0.1974 5.45355,-0.32643 z m 15.27522,2.16943 v -17.89531 l 2.73399,0.008 2.73405,0.008 5.15429,11.03315 c 2.83487,6.06823 5.21317,10.96353 5.28515,10.87846 0.072,-0.0851 1.75184,-3.68898 3.7331,-8.0087 1.98126,-4.31973 4.2185,-9.1962 4.9717,-10.83664 l 1.36945,-2.98256 2.81775,-0.0551 2.81776,-0.0552 -0.0506,17.85108 -0.0506,17.85109 -2.73243,0.0553 -2.73243,0.0553 -0.0511,-11.85176 -0.0511,-11.8518 -4.0223,8.51569 -4.02224,8.51565 -2.05105,0.056 -2.05104,0.056 -4.16682,-8.6165 -4.16676,-8.61651 -0.0511,11.89102 -0.0511,11.89097 h -2.68273 -2.68278 z m 38.328,0 -0.0516,-17.89536 11.48287,5e-5 h 11.48287 v 2.38603 2.38602 h -8.74887 -8.74882 v 5.26919 5.26918 h 7.4564 7.4564 v 2.38608 2.38603 h -7.4564 -7.4564 v 5.36864 5.36859 h 8.74882 8.74887 v 2.48543 2.48549 h -11.43108 -11.43103 z m 87.33712,0 v -17.89531 h 11.43317 11.43311 v 2.38603 2.38602 h -8.74882 -8.74882 v 5.26919 5.26918 h 7.4564 7.45635 v 2.38608 2.38603 h -7.45635 -7.4564 v 5.36864 5.36859 h 8.74882 8.74882 v 2.48543 2.48549 H 321.16395 309.73078 Z M 92.998201,301.37553 v -1.69015 h 21.800939 21.80099 l 1.01559,0.8705 c 0.55862,0.47877 1.41826,1.23562 1.91039,1.68195 l 0.8948,0.81151 -23.71133,0.008 -23.711379,0.008 z m 81.341019,1.62062 c 0.0454,-0.0381 1.13095,-0.79879 2.41195,-1.69009 l 2.32902,-1.62068 h 76.75844 76.75843 v 1.69015 1.69009 h -79.17033 c -43.54368,0 -79.13309,-0.0313 -79.08751,-0.0695 z m -14.03459,-1.14514 c -1.74183,-0.25096 -4.49856,-1.0789 -6.18167,-1.85656 -1.63835,-0.75696 -4.34856,-2.48309 -5.52442,-3.5185 -0.63341,-0.55773 -0.72108,-0.71873 -0.494,-0.90716 0.21701,-0.18013 0.57291,-0.0412 1.6648,0.64999 3.62212,2.29294 8.3015,3.48559 12.03345,3.067 2.25069,-0.25247 5.07653,-1.23703 6.82352,-2.37752 4.24139,-2.76879 7.0882,-7.53459 7.0882,-11.86615 0,-3.5271 -1.50922,-7.55659 -4.14632,-11.07044 -1.64461,-2.19139 -5.93247,-6.48342 -9.67929,-9.68868 -3.45534,-2.95596 -4.94589,-4.46581 -6.34725,-6.42971 -3.1627,-4.43206 -3.55985,-9.93766 -1.00573,-13.94175 0.96948,-1.51986 3.0659,-3.36136 4.72334,-4.14903 1.87617,-0.89167 3.27838,-1.18274 5.2634,-1.09257 1.44512,0.0656 1.6916,0.13654 2.3757,0.68321 0.41978,0.33551 1.21199,1.26854 1.76044,2.07342 1.15552,1.69588 2.0342,2.21622 4.42112,2.61811 0.79284,0.13347 1.44157,0.29832 1.44157,0.36638 0,0.068 -2.31306,0.2166 -5.1402,0.33019 -4.77482,0.19182 -5.20681,0.23975 -6.07778,0.67476 -2.42509,1.21111 -4.27034,4.61361 -4.04237,7.45374 0.1986,2.47422 1.4821,4.13683 8.3573,10.8261 7.56645,7.36185 11.51735,12.71662 12.69012,17.19943 0.557,2.12896 0.6042,5.73215 0.10379,7.91582 -0.64598,2.8188 -1.98992,5.47233 -3.99768,7.89324 -2.19697,2.64904 -5.72193,4.57648 -9.41863,5.15007 -1.60831,0.24955 -4.94813,0.24789 -6.69141,-0.005 z m -14.3472,-1.06487 c -3.78813,-1.89511 -7.07313,-6.60849 -8.06274,-11.56856 -0.40461,-2.0281 -0.42255,-2.39119 -0.21143,-4.28046 0.39172,-3.5055 1.57978,-6.6053 3.52308,-9.19228 l 0.8816,-1.17372 -3.71662,-2.13105 c -2.04421,-1.1721 -3.74447,-2.10742 -3.77842,-2.07858 -0.10369,0.0883 1.11942,4.13709 1.95117,6.45891 0.76217,2.12782 0.77208,2.18811 0.34244,2.09084 -8.23016,-1.86386 -11.39405,-2.75871 -15.40488,-4.35722 -1.44903,-0.57755 -2.63459,-1.0171 -2.63459,-0.97679 0,0.0402 0.62324,1.1866 1.38494,2.54745 3.15603,5.63827 6.90853,10.87376 12.21772,17.04593 2.32104,2.69833 2.50175,2.96551 2.28594,3.38024 -0.12887,0.24762 -0.26233,0.48294 -0.29654,0.52284 -0.13649,0.15922 -3.82167,-3.41064 -6.18641,-5.99287 -4.41788,-4.82411 -7.92052,-9.38343 -12.10199,-15.753 -2.75016,-4.18929 -6.09003,-10.04124 -5.73079,-10.04124 0.048,0 2.07169,1.04208 4.49746,2.31578 5.13995,2.69879 8.92729,4.47248 12.67855,5.93763 2.5938,1.01309 5.37818,1.94867 5.47727,1.84045 0.0266,-0.0292 -0.52179,-1.2158 -1.21836,-2.63751 -1.99143,-4.06449 -5.05431,-11.49606 -5.05431,-12.26345 0,-0.10254 0.82768,0.54704 1.83925,1.44345 2.10528,1.86554 4.58383,3.8153 7.30729,5.74811 2.49795,1.77281 7.4755,4.97249 7.73532,4.97249 0.11318,0 0.8378,-0.40884 1.61025,-0.90852 1.85906,-1.20266 3.28635,-1.81912 5.54299,-2.39416 2.50723,-0.63894 5.99907,-0.66668 8.18055,-0.065 1.6854,0.46485 4.17422,1.72342 5.83693,2.95174 0.99347,0.7339 1.09862,0.87675 0.90789,1.23307 -0.19338,0.36142 -0.26035,0.37425 -0.64879,0.12412 -2.62812,-1.69223 -4.6907,-2.35677 -7.69073,-2.47802 -2.82078,-0.11396 -4.62425,0.2302 -6.85987,1.3091 -1.44799,0.69881 -3.52292,2.25434 -3.28082,2.45957 0.0547,0.0464 1.03895,0.62714 2.18721,1.29075 2.94679,1.70292 7.31789,3.8977 10.3962,5.22016 l 2.62766,1.12886 0.0617,0.73104 c 0.0339,0.4021 0.0313,0.73104 -0.006,0.73104 -0.0376,0 -1.31782,-0.48133 -2.84545,-1.06967 -3.76544,-1.45014 -7.32566,-3.02257 -11.11493,-4.90907 -1.74224,-0.86736 -3.19352,-1.57707 -3.22508,-1.57707 -0.0313,0 -0.52633,0.69343 -1.09955,1.54098 -1.17945,1.74397 -2.32021,4.25647 -2.86636,6.31309 -0.50918,1.91738 -0.5145,6.22328 -0.01,8.05294 0.85234,3.09146 2.75965,5.89654 5.3036,7.8003 0.76265,0.57072 1.38656,1.10707 1.38656,1.19192 0,0.32768 -0.79753,0.12647 -2.11869,-0.53452 z"
       id="path214" /></g></svg>
