<?xml version="1.0" encoding="UTF-8" standalone="no"?>
<!-- Created with Inkscape (http://www.inkscape.org/) -->

<svg
   width="75.315132mm"
   height="17.524773mm"
   viewBox="0 0 284.65563 66.235362"
   version="1.1"
   id="svg1"
   xml:space="preserve"
   inkscape:export-filename="bitmap.svg"
   inkscape:export-xdpi="96"
   inkscape:export-ydpi="96"
   inkscape:version="1.4.3 (0d15f75, 2025-12-25)"
   sodipodi:docname="inomeado.svg"
   inkscape:export-batch-name="inomeado"
   xmlns:inkscape="http://www.inkscape.org/namespaces/inkscape"
   xmlns:sodipodi="http://sodipodi.sourceforge.net/DTD/sodipodi-0.dtd"
   xmlns="http://www.w3.org/2000/svg"
   xmlns:svg="http://www.w3.org/2000/svg"><sodipodi:namedview
     id="namedview1"
     pagecolor="#ffffff"
     bordercolor="#000000"
     borderopacity="0.25"
     inkscape:showpageshadow="2"
     inkscape:pageopacity="0.0"
     inkscape:pagecheckerboard="0"
     inkscape:deskcolor="#d1d1d1"
     inkscape:document-units="mm"
     inkscape:zoom="0.48693448"
     inkscape:cx="413.81338"
     inkscape:cy="500.06728"
     inkscape:window-width="1920"
     inkscape:window-height="991"
     inkscape:window-x="-9"
     inkscape:window-y="-9"
     inkscape:window-maximized="1"
     inkscape:current-layer="layer1"
     showguides="false"><inkscape:page
       x="0"
       y="0"
       width="284.65564"
       height="66.235367"
       id="page1"
       margin="0"
       bleed="0" /></sodipodi:namedview><defs
     id="defs1" /><g
     inkscape:label="Camada 1"
     inkscape:groupmode="layer"
     id="layer1"
     transform="translate(-64.634183,-708.33893)"><path
       style="fill:#ffffff;fill-opacity:1;stroke-width:0.64796"
       d="m 67.006845,774.39163 c -0.82182,-0.20875 -1.64456,-0.85633 -2.02656,-1.59503 -0.30406,-0.58797 -0.35958,-2.82367 -0.34293,-13.79838 0.018,-11.76066 0.0551,-12.93444 0.36508,-11.50614 2.15508,9.93017 8.77522,18.681 17.60831,23.27524 2.81653,1.46498 5.95574,2.61105 8.71039,3.18009 1.07503,0.22197 2.00479,0.45385 2.06613,0.5153 0.15372,0.15372 -25.77051,0.0839 -26.38042,-0.0711 z m 36.425265,0.0831 c 0,-0.0544 0.76064,-0.23024 1.69034,-0.39017 2.53795,-0.43649 6.65868,-1.88934 9.29597,-3.27752 3.39238,-1.7857 6.0024,-3.76044 8.77566,-6.63979 2.77011,-2.87598 4.75895,-5.71962 6.39545,-9.14422 l 1.12783,-2.36029 0.007,9.60325 c 0.007,10.83183 -0.007,10.91952 -1.77231,11.81993 -0.91049,0.46453 -1.55606,0.48837 -13.23763,0.48837 -6.75421,0 -12.28043,-0.0446 -12.28043,-0.0996 z m 193.57254,-8.28914 c -5.39717,-1.08859 -9.74357,-4.27847 -12.06532,-8.85502 l -0.83113,-1.6383 -0.0679,4.93928 -0.0679,4.93918 -4.43965,-0.0683 -4.4396,-0.0684 -8.13858,-10.46692 -8.13853,-10.46697 -0.12525,10.46697 -0.12514,10.46692 -8.04251,0.066 c -6.24941,0.0512 -8.09602,-0.007 -8.28272,-0.25039 -0.13216,-0.17407 -2.02226,-5.44381 -4.20025,-11.71047 -2.178,-6.26672 -4.03609,-11.48017 -4.12912,-11.5855 -0.0931,-0.10532 -2.07767,5.13469 -4.41009,11.6444 l -4.24086,11.83594 -19.30964,0.0641 -19.30952,0.0642 -4.0774,-11.70857 c -2.24245,-6.43964 -4.15301,-11.79468 -4.24566,-11.8999 -0.0927,-0.10532 -1.95329,4.79667 -4.13488,10.89313 -2.18148,6.0965 -4.1124,11.45083 -4.29078,11.89843 l -0.32436,0.81386 h -4.88038 c -3.60276,0 -5.32695,0.10517 -6.58623,0.40166 -2.23036,0.52516 -6.79754,0.34722 -8.99704,-0.35049 -6.02417,-1.91089 -10.44868,-6.12149 -12.28985,-11.69556 -0.57736,-1.74776 -0.66429,-2.43469 -0.68181,-5.38399 -0.0169,-2.88256 0.0665,-3.65604 0.56652,-5.24998 1.8526,-5.90474 5.70155,-9.99782 11.33463,-12.05367 3.9964,-1.45851 8.01779,-1.50118 12.36839,-0.1314 l 1.75288,0.55194 0.0677,5.33903 0.0677,5.33914 -1.2692,-1.14117 c -1.8563,-1.66894 -3.57581,-2.27314 -6.50387,-2.28517 -2.05934,-0.009 -2.568,0.0789 -3.7863,0.65009 -2.88289,1.35176 -4.70278,3.83561 -5.25347,7.17045 -0.67648,4.09607 1.09371,7.9711 4.46104,9.76589 3.70754,1.9761 8.19318,1.39498 11.47517,-1.48665 l 0.8665,-0.7608 0.01,2.59271 c 0.009,2.29007 0.0479,2.51966 0.33721,1.96669 0.17995,-0.34434 2.67376,-6.73941 5.54184,-14.21114 l 5.21471,-13.58518 h 4.90744 4.90738 l 5.00362,13.29549 c 5.00787,13.30686 5.26778,13.96217 5.45083,13.74232 0.25872,-0.3107 11.69867,-19.2717 11.69867,-19.38971 0,-0.0746 -3.04254,-0.13559 -6.76124,-0.13559 h -6.76128 v -3.75625 -3.75626 h 14.28021 14.28022 l -0.36595,0.68868 c -0.20134,0.37874 -3.80491,6.37934 -8.00805,13.33467 l -7.64195,12.64611 6.93384,0.0666 c 3.81362,0.037 7.05048,0.0223 7.19299,-0.0332 0.14244,-0.0544 2.55716,-6.08529 5.36592,-13.40135 l 5.10687,-13.30202 h 4.91022 4.91026 l 5.37828,14.28321 5.37833,14.28321 0.0648,-14.28321 0.0648,-14.28321 h 4.46817 4.46817 l 8.23842,10.58009 8.23852,10.58019 0.0653,-10.58019 0.0653,-10.58009 h 4.37432 4.37423 l 0.0679,4.93352 0.0679,4.93351 0.83113,-1.63836 c 2.20009,-4.33677 6.11654,-7.39743 11.20344,-8.75551 1.53444,-0.40971 2.73254,-0.53224 5.24426,-0.53638 5.52786,-0.009 8.80658,1.22037 12.16237,4.56065 1.90883,1.90001 3.73454,4.64105 3.33081,5.00052 -0.26835,0.23896 -8.15872,3.55654 -8.23787,3.46368 -0.031,-0.037 -0.30079,-0.55036 -0.59891,-1.14144 -0.72885,-1.44518 -2.32012,-2.99225 -3.73933,-3.63536 -1.81776,-0.82383 -4.73723,-0.75906 -6.58356,0.14615 -5.06078,2.48118 -7.03405,10.16079 -4.09902,15.9528 1.28809,2.54188 3.06345,3.9981 5.69682,4.67279 4.2334,1.08456 8.25191,-1.06687 9.0697,-4.85557 l 0.17565,-0.81387 h -3.65093 -3.65092 v -3.50581 -3.50592 h 8.91957 8.91958 l -0.18066,2.44161 c -0.0993,1.3429 -0.1259,2.38522 -0.059,2.31641 0.0669,-0.0688 1.83948,-4.60457 3.93915,-10.0793 l 3.81754,-9.95412 h 4.9137 4.91375 l 6.34788,16.83924 c 3.49133,9.26146 6.40617,17.03638 6.47742,17.27736 0.12013,0.40655 -0.21484,0.43828 -4.6331,0.43828 h -4.76259 l -0.28109,-0.81392 c -3.90398,-11.30316 -7.89941,-22.64556 -8.03054,-22.79743 -0.0937,-0.10843 -2.08126,5.13148 -4.41673,11.64439 l -4.24641,11.84171 -4.68405,0.0682 c -3.1747,0.0457 -4.684,-0.0174 -4.684,-0.19726 0,-0.14599 0.39442,-1.28661 0.87642,-2.53479 0.4821,-1.24824 0.87652,-2.31125 0.87652,-2.36225 0,-0.0512 -0.73772,0.63413 -1.63928,1.52247 -2.00588,1.97648 -5.26827,3.67085 -8.17908,4.24794 -2.30803,0.45755 -6.21283,0.46093 -8.46213,0.007 z M 95.043145,757.19476 c -6.42097,-1.47043 -11.40707,-6.30482 -13.06823,-12.67055 -0.55901,-2.14206 -0.54655,-6.09433 0.0261,-8.26377 1.62464,-6.15584 6.51945,-10.99235 12.56658,-12.4169 1.92761,-0.45407 5.0838,-0.5766 6.986525,-0.27118 l 1.2521,0.20096 -7.698925,-7.71722 -7.69888,-7.71717 20.583345,0.0669 c 22.67065,0.0737 21.2282,-0.0321 22.24614,1.63699 0.47312,0.77587 0.48803,1.42106 0.48891,21.14667 0,11.19053 -0.0408,20.3464 -0.0912,20.3464 -0.0506,0 -3.48202,-3.38067 -7.62529,-7.51251 -4.14315,-4.13194 -7.57989,-7.51256 -7.63715,-7.51256 -0.0571,0 -0.0114,0.47895 0.10179,1.06432 0.59793,3.09076 -0.007,7.18907 -1.52481,10.32975 -2.07114,4.28566 -5.54489,7.29091 -10.27287,8.88708 -2.07653,0.70108 -6.442145,0.90477 -8.634015,0.40279 z m -30.4053,-34.29306 c -0.0185,-11.02795 0.0212,-12.30182 0.40024,-12.94379 0.86901,-1.47114 1.04935,-1.49553 11.53695,-1.56008 5.26827,-0.0321 9.57853,-0.0365 9.57842,-0.009 -5e-5,0.0278 -0.94755,0.49457 -2.1056,1.03726 -9.69507,4.54323 -16.7995,13.4916 -19.01788,23.95389 -0.34836,1.64298 -0.37297,0.9856 -0.39213,-10.47884 z m 110.526405,3.49068 c -0.90504,-0.39425 -2.05313,-1.6887 -2.27232,-2.56206 -0.23738,-0.94571 0.0622,-2.60001 0.60223,-3.3245 0.7682,-1.03062 1.91868,-1.57331 3.31258,-1.56253 0.68813,0.007 1.36352,0.0791 1.50091,0.164 0.13728,0.0849 0.24963,0.61051 0.24963,1.16801 0,0.87091 -0.0616,0.98691 -0.43818,0.82356 -0.24108,-0.10457 -0.79809,-0.24092 -1.23779,-0.30303 -1.50608,-0.21239 -2.62189,1.71429 -1.83942,3.17628 0.43453,0.81197 1.57189,1.10595 2.60648,0.6736 l 0.90891,-0.37977 v 0.99507 c 0,0.83776 -0.10152,1.03377 -0.6423,1.23936 -0.8683,0.33008 -1.8317,0.29231 -2.75073,-0.10799 z m 25.73377,0.17429 c -0.31484,-0.0602 -1.00803,-0.52407 -1.54043,-1.03051 -1.30425,-1.24078 -1.57227,-2.76232 -0.77609,-4.40693 0.71458,-1.47609 1.8785,-2.19862 3.52154,-2.18589 0.68584,0.007 1.35939,0.079 1.49672,0.16395 0.31712,0.19601 0.32986,2.12808 0.0142,2.12808 -0.1296,0 -0.30525,-0.11267 -0.39039,-0.25033 -0.17222,-0.27875 -1.36515,-0.33558 -1.99216,-0.0949 -0.47933,0.18393 -1.13807,1.37169 -1.13807,2.05198 0,0.68862 0.88485,1.71554 1.64184,1.90551 0.38304,0.0962 0.94799,0.0131 1.38127,-0.20303 l 0.73315,-0.36579 v 1.07847 c 0,0.90678 -0.0897,1.10257 -0.56348,1.22951 -0.6066,0.16259 -1.47288,0.15524 -2.388,-0.0201 z m 32.12503,-0.16171 c -2.167,-1.00319 -3.06763,-3.82321 -1.81466,-5.68245 1.63008,-2.41885 5.30044,-2.50083 7.04722,-0.15736 0.39518,0.53017 0.52707,1.07367 0.52707,2.17277 0,1.57439 -0.41086,2.38456 -1.6954,3.34365 -0.84054,0.6275 -3.03073,0.80184 -4.06423,0.32339 z m 3.1495,-2.14528 c 0.93394,-0.93401 0.97885,-2.04888 0.11735,-2.91044 -1.29918,-1.29918 -3.64249,-0.40073 -3.64249,1.39651 0,0.99709 1.18357,2.24593 2.12857,2.24593 0.40068,0 0.95528,-0.29078 1.39657,-0.732 z m -54.73641,1.29537 c 0.20379,-0.51645 0.85415,-2.17854 1.44533,-3.6936 l 1.07471,-2.75465 1.02991,-0.0757 1.02997,-0.0757 0.6896,1.8286 c 0.37928,1.00574 1.01118,2.64855 1.40418,3.65065 0.393,1.00215 0.71459,1.87546 0.71459,1.94072 0,0.0653 -0.45358,0.11872 -1.00792,0.11872 -0.84462,0 -1.0464,-0.10141 -1.24584,-0.62608 -0.21311,-0.56032 -0.37891,-0.62597 -1.58137,-0.62597 -1.18983,0 -1.37582,0.0715 -1.6285,0.62597 -0.23531,0.51645 -0.46125,0.62608 -1.29026,0.62608 h -1.00498 z m 4.24146,-2.3789 c -0.0965,-0.30994 -0.28621,-0.84522 -0.42158,-1.18951 l -0.24609,-0.62602 -0.32746,0.87647 c -0.49501,1.32477 -0.44738,1.50243 0.40258,1.50243 0.68165,0 0.74833,-0.0635 0.59255,-0.56337 z m 5.90137,-0.45337 v -3.77133 l 0.93906,0.0777 0.93912,0.0777 0.0376,2.87984 0.0376,2.87979 1.15168,0.0763 c 1.09066,0.0723 1.15162,0.1154 1.15162,0.81393 v 0.7375 h -2.12857 -2.12851 z m 15.02762,3.5836 c 0,-0.10331 0.61274,-1.76551 1.35846,-3.69371 l 1.35585,-3.50587 h 1.07264 1.07264 l 1.32352,3.50587 c 0.72797,1.9282 1.32433,3.5904 1.3252,3.69371 0,0.10331 -0.44694,0.18779 -0.99523,0.18779 -0.85453,0 -1.0193,-0.0894 -1.15402,-0.62608 -0.14495,-0.57747 -0.26944,-0.62597 -1.60531,-0.62597 -1.33593,0 -1.46047,0.0485 -1.60537,0.62597 -0.13472,0.53665 -0.29954,0.62608 -1.15407,0.62608 -0.54824,0 -0.99573,-0.0845 -0.99431,-0.18779 z m 4.48591,-2.87984 c -0.0103,-0.17212 -0.16645,-0.7074 -0.34651,-1.18945 l -0.32752,-0.87647 -0.24609,0.62602 c -0.6596,1.67826 -0.65236,1.75288 0.17103,1.75288 0.45772,0 0.76042,-0.12644 0.74909,-0.31298 z m 5.77868,-0.71432 v -3.78194 l 2.10849,0.0883 c 1.81841,0.0761 2.19742,0.17184 2.75453,0.69542 0.94108,0.8842 0.902,2.33356 -0.0877,3.25809 l -0.73385,0.68558 1.11313,1.41823 1.11314,1.41828 -1.19315,-0.007 c -1.1753,0 -1.20709,-0.0245 -2.12933,-1.43995 l -0.93624,-1.43652 v 1.43989 1.4399 h -1.0016 -1.00172 z m 3.02142,-0.48395 c 0.86509,-0.463 0.44831,-1.74412 -0.56734,-1.74412 -0.35898,0 -0.45081,0.20402 -0.45081,1.00166 0,1.03895 0.19644,1.18222 1.01815,0.74246 z m 5.9202,0.57246 0.0517,-3.69393 0.88725,-0.0777 0.88719,-0.0777 v 3.77133 3.77139 l -0.93912,2.2e-4 -0.93901,1.6e-4 z m -16.1487,-4.63294 c -0.18469,-0.22518 -0.0701,-0.53561 0.4084,-1.10606 0.6024,-0.71823 0.71083,-0.7596 1.14977,-0.43866 0.47095,0.34439 0.46436,0.37552 -0.23553,1.10606 -0.80407,0.83923 -0.95354,0.88882 -1.32264,0.43866 z"
       id="path30" /></g></svg>
