<?xml version="1.0" encoding="UTF-8" standalone="no"?>
<!-- Created with Inkscape (http://www.inkscape.org/) -->

<svg
   width="45.000004mm"
   height="30.888248mm"
   viewBox="0 0 170.07876 116.74299"
   version="1.1"
   id="svg1"
   xml:space="preserve"
   xmlns:inkscape="http://www.inkscape.org/namespaces/inkscape"
   xmlns:sodipodi="http://sodipodi.sourceforge.net/DTD/sodipodi-0.dtd"
   xmlns="http://www.w3.org/2000/svg"
   xmlns:svg="http://www.w3.org/2000/svg"><sodipodi:namedview
     id="namedview1"
     pagecolor="#ffffff"
     bordercolor="#000000"
     borderopacity="0.25"
     inkscape:showpageshadow="2"
     inkscape:pageopacity="0.0"
     inkscape:pagecheckerboard="0"
     inkscape:deskcolor="#d1d1d1"
     inkscape:document-units="mm"><inkscape:page
       x="0"
       y="0"
       width="170.07877"
       height="116.74299"
       id="page2"
       margin="0"
       bleed="0" /></sodipodi:namedview><defs
     id="defs1"><clipPath
       clipPathUnits="userSpaceOnUse"
       id="clipPath5"><rect
         style="fill:#ffffff;fill-opacity:1;stroke-width:0.960769"
         id="rect5"
         width="1986.3174"
         height="1335.3394"
         x="-890.22626"
         y="-2314.5884" /></clipPath></defs><g
     inkscape:label="Camada 1"
     inkscape:groupmode="layer"
     id="layer1"
     transform="translate(-488.10574,-886.70643)"><path
       style="fill:#ffffff;fill-opacity:0.94902"
       d="m -359.06491,-702.67963 c -23.3487,-4.65078 -42.6844,-20.81959 -51.3548,-42.94374 -3.4921,-8.91078 -5.2141,-18.78472 -5.2141,-29.89743 0,-33.6319 21.5086,-61.853 53.2565,-69.8774 14.3986,-3.6392 35.357,-2.318 47.7418,3.0098 l 4.7266,2.0334 v 10.4144 10.4144 l -4.5654,-2.7906 c -8.1709,-4.9945 -15.8987,-7.0015 -27.1521,-7.0517 -11.4002,-0.051 -18.1286,1.5218 -27.3922,6.4027 -11.8618,6.25 -22.1129,19.7821 -25.9648,34.2754 -1.83,6.8856 -1.8143,21.1454 0.031,28.39181 5.0005,19.63446 22.0318,36.44795 40.2868,39.77158 13.2893,2.41955 26.6608,0.74094 37.5086,-4.70869 l 7.2479,-3.64114 v 10.36339 10.36338 l -6.9682,2.47128 c -3.8325,1.3592 -9.5346,2.91687 -12.6713,3.46148 -7.6244,1.32382 -21.6525,1.10409 -29.5165,-0.46232 z m 577.62665,-43.92173 c -23.43911,-24.95584 -44.6545,-47.55454 -47.14531,-50.21934 l -4.52875,-4.8451 -0.0366,49.29303 -0.0366,49.29301 -9.37108,-0.27509 -9.37107,-0.27509 -0.24642,-71.91256 c -0.23817,-69.5035 -0.18688,-71.9022 1.53107,-71.6046 0.97763,0.1694 22.71407,22.987 48.30321,50.7058 l 46.52571,50.39781 0.24893,-49.67701 0.24893,-49.6769 h 9.60271 9.60271 v 72.0851 c 0,61.3951 -0.20101,72.0852 -1.3554,72.0852 -0.74548,0 -20.53286,-20.41842 -43.97196,-45.37426 z m 273.29174,43.8518 c -7.88321,-1.72597 -20.59674,-7.71732 -27.63122,-13.02144 -25.93297,-19.55391 -35.09937,-59.8333 -20.64077,-90.7004 9.34233,-19.9447 25.6446,-33.5525 46.62429,-38.9182 10.30795,-2.6363 28.06223,-2.6713 38.21255,-0.075 22.56314,5.7707 40.8095,22.1977 48.69017,43.8353 13.72009,37.67056 -2.03667,78.1422 -36.64908,94.13412 -4.02935,1.86167 -10.41034,4.03365 -14.17999,4.82662 -8.44392,1.77623 -26.13396,1.73476 -34.42595,-0.0807 z m 27.69771,-17.71568 c 9.62544,-1.48224 20.6291,-7.43153 28.14571,-15.21738 10.68111,-11.06371 15.48113,-23.2512 15.38817,-39.07138 -0.0698,-11.875 -3.05614,-21.6739 -9.60994,-31.5323 -21.56037,-32.4314 -72.78758,-29.7761 -90.85049,4.7091 -4.75636,9.0808 -6.50841,16.3015 -6.50841,26.8232 0,15.69729 4.76342,28.04182 15.01317,38.9071 12.43815,13.18509 28.84382,18.39651 48.42179,15.38166 z m -632.87268,17.37277 c -0.30736,-0.49733 -8.96378,-20.66185 -19.23649,-44.81005 -10.2727,-24.14818 -18.91323,-44.14138 -19.20113,-44.42928 -0.288,-0.288 -0.6882,-0.3433 -0.8894,-0.1231 -0.2012,0.2203 -4.4371,20.296 -9.413,44.61272 l -9.0472,44.21224 -8.5322,0.2801 c -4.6927,0.15406 -9.0355,0.087 -9.6507,-0.1491 -0.7786,-0.2988 2.6111,-17.61347 11.1566,-56.9871 6.7513,-31.10686 13.6977,-63.36996 15.4365,-71.69576 2.4133,-11.5564 3.5078,-15.1353 4.626,-15.1269 0.9505,0.01 2.8802,3.4656 5.4966,9.8516 4.78473,11.6782 36.89359,88.88435 39.26808,94.4206 1.46582,3.41765 1.74041,3.6311 2.47293,1.92227 0.97979,-2.28566 24.078998,-58.12897 35.533328,-85.90327 7.0408,-17.0724 9.51761,-21.6574 10.90166,-20.1807 0.28341,0.3024 6.31006,26.6789 29.46966,128.97839 1.53426,6.77706 2.78956,12.94034 2.78956,13.69619 0,1.09475 -1.84953,1.37425 -9.09374,1.37425 h -9.09374 l -0.91971,-3.60426 c -0.50584,-1.98234 -4.937,-22.31036 -9.84702,-45.17337 -4.91002,-22.863 -9.22456,-41.5691 -9.58786,-41.5691 -0.3633,0 -9.4616,20.5443 -20.21844,45.65392 -10.756838,25.10967 -20.076188,45.65395 -20.709658,45.65395 -0.63348,0 -1.40326,-0.40691 -1.71063,-0.90424 z m -143.72492,-71.14613 v -71.1588 h 9.6175 9.6176 l -0.2465,70.8837 -0.2465,70.88376 -9.3711,0.27509 -9.371,0.27509 z m 273.603258,70.44848 c -0.35241,-0.35242 -0.64075,-32.35824 -0.64075,-71.12408 v -70.4832 h 38.92599 38.926 v 9.1307 9.1308 h -29.31464 -29.31464 v 21.145 21.145 h 22.58669 22.58669 v 9.1308 9.1308 h -22.58669 -22.58669 v 22.58667 22.58668 h 29.31464 29.31464 v 9.13079 9.13079 h -38.28524 c -21.05688,0 -38.57358,-0.28834 -38.926,-0.64075 z m 330.664182,0.0335 c -0.37085,-0.37084 -0.67426,-28.28288 -0.67426,-62.02676 v -61.35252 h -17.78101 -17.78101 v -9.1308 -9.1307 h 44.69281 44.69281 v 9.1307 9.1308 h -17.29338 -17.29338 l -0.24735,61.753 -0.24735,61.75296 -8.69681,0.27379 c -4.78324,0.15059 -9.00023,-0.0296 -9.37107,-0.40047 z M -724.63891,-985.758 c -48.0785,-4.8677 -88.857,-27.2033 -118.146,-64.7122 -12.8958,-16.5148 -21.94,-35.0316 -28.8691,-59.1053 -6.5788,-22.8565 -8.1448,-58.6099 -3.5421,-80.8697 6.4126,-31.0124 20.7763,-59.709 42.1644,-84.2382 15.7739,-18.0904 43.1384,-35.6694 69.3607,-44.5573 29.8913,-10.1315 65.6805,-11.8127 103.6096,-4.8672 17.3331,3.1741 41.1653,13.0199 56.9492,23.5277 10.0252,6.6741 26.9793,21.1213 26.9514,22.9665 -0.024,1.6165 -13.6178,17.8051 -39.5002,47.0411 -2.6909,3.0396 -5.2453,5.5266 -5.6763,5.5266 -0.4311,0 -3.0897,-1.971 -5.9082,-4.3799 -6.387,-5.4589 -19.4715,-14.408 -27.7111,-18.9529 -6.5572,-3.6168 -22.4127,-9.206 -32.198,-11.3499 -9.5777,-2.0984 -29.2439,-1.6096 -39.3422,0.9778 -31.4286,8.0528 -55.2152,28.4687 -66.7939,57.3288 -6.9171,17.2407 -7.278,19.4294 -7.278,44.1361 0,21.4429 0.081,22.3801 2.708,31.2369 3.2895,11.0913 10.4226,26.1854 16.3088,34.51 14.2353,20.1327 36.8396,34.3481 59.6256,37.4973 10.9401,1.512 30.9952,1.2979 39.2742,-0.4193 15.8549,-3.2884 36.0211,-13.3902 50.7628,-25.4283 3.9646,-3.2376 8.6445,-7.021 10.3995,-8.4075 l 3.1911,-2.5211 22.9999,22.985 c 12.6499,12.6417 22.9999,23.2823 22.9999,23.6457 0,0.3635 -5.2154,5.4143 -11.5898,11.2241 -30.157,27.4861 -57.161,40.7098 -93.5706,45.8211 -13.3494,1.874 -35.8274,2.5334 -47.1796,1.3841 z m 236.1964,-170.8071 0.2429,-171.803 36.2829,-0.2519 36.2829,-0.2518 v 172.0548 172.0549 h -36.5258 -36.5258 z m 156.8715,170.6016 c -0.2512,-0.6608 -0.3458,-77.9722 -0.2101,-171.803 l 0.2467,-170.6016 67.2795,-0.2807 c 69.6613,-0.2906 85.2797,0.2561 101.6939,3.5602 17.2826,3.4788 27.92592,7.4852 41.91207,15.7768 25.592618,15.1723 42.825788,39.9489 48.591058,69.8607 2.45555,12.74 3.00283,36.9862 1.08231,47.9498 -4.12741,23.5621 -16.07575,46.0781 -32.127858,60.5434 -15.97509,14.3958 -30.17689,22.033 -52.80028,28.3938 -17.834,5.0143 -24.0047,5.5906 -64.8599,6.0577 l -38.2051,0.4367 v 55.6538 55.6538 h -36.0727 c -27.9739,0 -36.1754,-0.2698 -36.5296,-1.2014 z m 138.6595,-175.7206 c 23.9317,-2.6685 40.108,-13.9408 46.27453,-32.246 2.58392,-7.6702 3.56835,-21.3225 2.13219,-29.5695 -2.48925,-14.2943 -11.57732,-26.0899 -25.11962,-32.6032 -12.2457,-5.8897 -16.8722,-6.4275 -55.2868,-6.4275 h -34.0575 v 50.2994 c 0,27.6647 0.2883,50.5878 0.6408,50.9402 1.0518,1.0518 55.3862,0.725 65.4164,-0.3934 z m 204.666448,176.285 c -0.35449,-0.3545 -0.64452,-77.5594 -0.64452,-171.5665 v -170.922 h 36.5199 36.51989 l 0.24355,138.1633 0.24354,138.1633 82.429992,0.2456 82.43,0.2457 -0.2529,32.9135 -0.25289,32.9135 -118.29602,0.2441 c -65.062812,0.1342 -118.586052,-0.046 -118.940542,-0.4005 z m 303.074352,-0.147 c 0,-0.4437 1.77775,-4.8821 3.95055,-9.863 2.1728,-4.981 8.22412,-19.1138 13.44737,-31.4063 5.22325,-12.2925 13.77074,-32.4043 18.99442,-44.6928 17.60831,-41.423 39.60559,-93.2761 52.69836,-124.2232 7.15663,-16.916 18.4178,-43.5154 25.02483,-59.1098 6.60702,-15.5945 16.12718,-38.085 21.1559,-49.9791 5.02872,-11.8941 9.57365,-22.1662 10.09985,-22.827 0.73188,-0.919 8.68354,-1.2014 33.8358,-1.2014 h 32.87908 l 1.12094,2.1626 c 0.61651,1.1894 4.95652,11.2453 9.64446,22.3464 4.68794,11.1011 14.04441,33.1592 20.79216,49.0179 6.74775,15.8587 14.74471,34.8892 17.77102,42.29 3.02631,7.4007 11.46218,27.08 18.74637,43.7316 7.28418,16.6517 16.80751,38.926 21.16295,49.4985 4.35543,10.5725 9.09097,21.8178 10.52341,24.9895 1.43244,3.1718 7.36482,17.2284 13.18307,31.237 5.81825,14.0085 15.56353,37.0763 21.65618,51.2618 6.80724,15.8492 10.73392,26.1353 10.18615,26.6831 -0.5257,0.5257 -16.02172,0.788 -37.772,0.6395 l -36.88059,-0.2519 -13.53303,-33.6397 c -7.44317,-18.5019 -14.98117,-37.208 -16.75111,-41.5692 l -3.21807,-7.9293 H 493.1579 422.76843 l -1.52126,3.6042 c -1.34101,3.1772 -23.5522,56.6286 -30.45353,73.2866 l -2.58826,6.2474 -36.68804,0.2517 c -20.17843,0.1385 -36.68805,-0.1113 -36.68805,-0.5551 z m 221.06121,-149.5008 c 0,-0.7198 -1.25893,-4.0853 -2.79762,-7.4788 -1.53869,-3.3935 -6.75456,-15.888 -11.59082,-27.7656 -4.83625,-11.8775 -13.15399,-32.3002 -18.48387,-45.3837 -5.32987,-13.0834 -9.98514,-23.7881 -10.34504,-23.7881 -0.3599,0 -1.97783,3.352 -3.5954,7.4488 -1.61757,4.0969 -6.17365,15.234 -10.12463,24.7493 -11.84115,28.5173 -29.56483,72.2161 -29.56483,72.8937 0,0.3482 19.46299,0.6332 43.2511,0.6332 35.85209,0 43.25111,-0.2239 43.25111,-1.3088 z m 214.33325,-21.7585 v -172.0433 h 32.97548 c 24.91111,0 33.3554,0.2938 34.52896,1.2014 1.42966,1.1057 15.96583,20.1579 76.08108,99.7179 20.80249,27.5311 64.79821,85.3491 73.86752,97.0747 l 4.08874,5.2862 0.48057,-101.3998 0.48056,-101.3998 35.80234,-0.252 35.8023,-0.252 v 172.055 172.055 h -30.3102 c -30.19662,0 -30.31759,-0.01 -32.31915,-2.1626 -1.10499,-1.1894 -28.66212,-39.1427 -61.23805,-84.3406 -72.7334,-100.915 -72.09633,-100.0299 -85.66021,-119.005 -6.07918,-8.5044 -11.37744,-15.4829 -11.77391,-15.5078 -0.39647,-0.025 -0.72085,49.6935 -0.72085,110.4854 v 110.5306 h -36.04259 -36.04259 z m -1528.85996,-472.5043 c -0.9161,-2.3872 0.4368,-110.2553 1.5055,-120.0358 0.5198,-4.7577 1.4379,-14.0566 2.0401,-20.6645 5.2264,-57.3427 21.6707,-119.6533 45.9111,-173.9655 21.8077,-48.8617 35.4136,-72.1114 67.5637,-115.4528 23.0305,-31.0471 25.4039,-33.9681 42.7018,-52.5535 32.6796,-35.1122 80.0147,-74.0164 119.3201,-98.0679 59.5416,-36.4343 120.5513,-61.2144 185.8405,-75.4819 25.5769,-5.5893 37.3131,-7.4714 67.76,-10.8662 19.6191,-2.1875 92.1392,-2.5091 110.53063,-0.4901 54.775928,6.0133 88.653928,13.1633 137.7086581,29.0638 61.3005899,19.8698 130.5420519,58.1653 184.2718019,101.9156 12.60689,10.2653 67.60426,65.1684 79.34042,79.2043 16.14001,19.3028 31.84462,41.0161 48.85175,67.5427 21.45349,33.4618 44.83531,83.4645 58.52858,125.165 3.21133,9.7796 6.10719,19.0126 6.43526,20.5179 0.52564,2.4117 0.90543,2.6606 3.19778,2.0953 3.87525,-0.9556 42.69302,-17.3799 52.09978,-22.0441 37.76183,-18.7236 79.86698,-50.4985 109.83034,-82.8842 13.33601,-14.4141 17.13335,-19.3333 37.05584,-48.0032 14.87428,-21.4052 18.83157,-27.9016 27.04563,-44.3984 10.84163,-21.7739 13.3982,-27.8741 20.83266,-49.7084 16.21392,-47.619 21.42721,-85.1282 21.47379,-154.5026 l 0.0173,-25.7104 h 147.15648 147.15649 l -0.4803,57.9084 c -0.50807,61.2578 -1.42574,76.9285 -6.44735,110.0999 -7.86351,51.9442 -21.67244,99.9403 -42.79213,148.7339 -11.57472,26.7415 -35.53052,69.989 -52.14812,94.1433 -36.87464,53.5987 -70.5901,89.737 -125.16557,134.1603 -28.45657,23.1631 -76.46416,52.6092 -114.44216,70.1948 -87.10066,40.3316 -177.31105,58.4256 -272.89552,54.736 -14.53718,-0.5611 -28.81005,-1.2572 -31.71748,-1.5468 -37.67545,-3.7527 -75.70732,-10.9026 -105.24436,-19.7857 -58.89132,-17.7113 -96.425072,-33.7246 -141.286942,-60.2784 -31.69662,-18.7613 -70.04176,-47.1046 -91.19333,-67.4069 -18.071,-17.3453 -64.839808,-66.2451 -70.804638,-74.0307 -41.10389,-53.6509 -69.73549,-104.3916 -90.57129,-160.5096 -6.3881,-17.2053 -12.4651,-35.5108 -13.6404,-41.0886 -0.362,-1.718 -1.0798,-3.1237 -1.595,-3.1237 -1.0341,0 -25.8469,9.8905 -34.9531,13.9324 -20.4951,9.0972 -43.8668,22.2432 -65.1071,36.6212 -16.4084,11.1072 -23.9161,17.0664 -39.1483,31.0736 -27.3133,25.1169 -47.915,49.3857 -67.5138,79.5313 -7.0664,10.8692 -31.8936,59.5903 -36.234,71.1061 -12.8761,34.1626 -21.8924,72.4998 -24.151,102.6912 -0.5537,7.4007 -1.4843,16.9899 -2.0681,21.3091 -0.6823,5.048 -0.8832,18.2662 -0.5626,37.0038 0.2743,16.0327 0.2896,30.5561 0.034,32.2741 l -0.4649,3.1237 h -146.4942 c -133.7941,0 -146.5458,-0.1342 -147.0883,-1.5478 z m 1045.83707,-223.5982 c -2.74429,-8.9605 -23.06567,-42.8207 -36.82414,-61.3578 -10.03686,-13.5229 -48.38618,-55.5366 -60.19835,-65.9505 -7.05272,-6.2179 -25.3798,-20.168 -38.44542,-29.2636 -18.51926,-12.8923 -51.568242,-30.1098 -75.929722,-39.5571 -44.59071,-17.2921 -80.09739,-24.8236 -130.80961,-27.7468 -19.30716,-1.1128 -25.374938,-0.7121 -25.374938,1.6759 0,2.179 8.097368,17.8257 16.133008,31.1742 16.01741,26.6074 30.23551,45.0166 53.93597,69.835 21.8326101,22.8624 29.93616008,30.331 46.08114,42.4704 34.60355,26.0183 73.40049,46.7029 112.600172,60.033 34.4901,11.7285 58.02549,16.3521 95.633,18.7874 15.33011,0.9927 31.47029,1.8629 35.86707,1.9337 7.8701,0.1268 7.98386,0.095 7.33182,-2.0338 z"
       id="path3"
       clip-path="url(#clipPath5)"
       transform="matrix(0.08848284,0,0,0.08848284,565.77911,1090.0961)"
       inkscape:export-filename="ciplan.svg"
       inkscape:export-xdpi="96"
       inkscape:export-ydpi="96" /></g></svg>
