<?xml version="1.0" encoding="UTF-8" standalone="no"?>
<!-- Created with Inkscape (http://www.inkscape.org/) -->

<svg
   width="69.996208mm"
   height="27.275885mm"
   viewBox="0 0 264.55261 103.08996"
   version="1.1"
   id="svg1"
   xml:space="preserve"
   inkscape:export-filename="bitmap.svg"
   inkscape:export-xdpi="96"
   inkscape:export-ydpi="96"
   inkscape:version="1.4.3 (0d15f75, 2025-12-25)"
   sodipodi:docname="inomeado.svg"
   inkscape:export-batch-name="inomeado"
   xmlns:inkscape="http://www.inkscape.org/namespaces/inkscape"
   xmlns:sodipodi="http://sodipodi.sourceforge.net/DTD/sodipodi-0.dtd"
   xmlns="http://www.w3.org/2000/svg"
   xmlns:svg="http://www.w3.org/2000/svg"><sodipodi:namedview
     id="namedview1"
     pagecolor="#ffffff"
     bordercolor="#000000"
     borderopacity="0.25"
     inkscape:showpageshadow="2"
     inkscape:pageopacity="0.0"
     inkscape:pagecheckerboard="0"
     inkscape:deskcolor="#d1d1d1"
     inkscape:document-units="mm"
     inkscape:zoom="0.48693448"
     inkscape:cx="413.81338"
     inkscape:cy="500.06728"
     inkscape:window-width="1920"
     inkscape:window-height="991"
     inkscape:window-x="-9"
     inkscape:window-y="-9"
     inkscape:window-maximized="1"
     inkscape:current-layer="layer1"
     showguides="false"><inkscape:page
       x="0"
       y="0"
       width="264.55258"
       height="103.08996"
       id="page1"
       margin="0"
       bleed="0" /></sodipodi:namedview><defs
     id="defs1" /><g
     inkscape:label="Camada 1"
     inkscape:groupmode="layer"
     id="layer1"
     transform="translate(-75.526658,-555.74627)"><g
       id="g26"
       transform="matrix(0.65641641,0,0,0.65641641,-167.96757,1025.4431)"
       style="fill:#ffffff;fill-opacity:1"><path
         style="fill:#ffffff;fill-opacity:1"
         d="m 563.86784,-561.47014 c -4.8671,-4.8671 -3.57262,-14.03869 2.38459,-16.8951 4.38049,-2.10039 11.69233,1.18424 11.69233,5.25244 0,1.27353 -3.82916,0.45332 -4.36162,-0.93426 -0.33443,-0.8715 -1.83101,-1.5 -3.57181,-1.5 -3.53199,0 -5.06657,2.24474 -5.06657,7.41121 0,4.46723 3.61524,7.40026 6.93295,5.62468 1.13688,-0.60844 2.06705,-1.54042 2.06705,-2.07107 0,-0.53065 0.9,-0.96482 2,-0.96482 2.8067,0 2.48837,2.47069 -0.63486,4.92742 -3.78005,2.97339 -7.92637,2.6652 -11.44206,-0.8505 z m 165.59774,0.53481 c -5.35415,-5.35415 -3.64754,-15.42471 2.98489,-17.61361 7.25203,-2.39339 13.45485,3.61155 12.15622,11.7684 -1.20286,7.55523 -10.02522,10.9611 -15.14111,5.84521 z m 9.47918,-2.61173 c 2.17366,-2.17366 2.63161,-6.95132 0.96482,-10.06574 -1.46332,-2.73423 -6.40986,-2.56465 -8.40811,0.28825 -3.06652,4.37807 -0.58907,11.77749 3.94329,11.77749 0.825,0 2.4,-0.9 3.5,-2 z m 21.22251,3.4433 c -2.4683,-1.72886 -2.98448,-4.4433 -0.84495,-4.4433 0.75765,0 1.93775,0.675 2.62244,1.5 1.60908,1.93882 5.40176,1.92576 7.02006,-0.0242 1.61433,-1.94515 0.88489,-2.63253 -4.74975,-4.47584 -5.28219,-1.72801 -6.83098,-3.62997 -5.91801,-7.26752 1.29149,-5.14573 10.96347,-5.74802 13.5869,-0.84609 1.45581,2.7202 1.35065,3.11361 -0.83221,3.11361 -1.04115,0 -2.15203,-0.675 -2.46861,-1.5 -0.76533,-1.9944 -6.24428,-1.96939 -7.01229,0.032 -0.56641,1.47606 2.71701,3.46799 5.71651,3.46799 2.68149,0 5.6574,3.15612 5.6574,6 0,3.48947 -3.13817,6 -7.5,6 -1.68024,0 -4.05511,-0.70051 -5.27749,-1.5567 z m -169.22251,-8.9433 c 0,-8.83333 0.14035,-9.5 2,-9.5 1.85965,0 2,0.66667 2,9.5 0,8.83334 -0.14035,9.5 -2,9.5 -1.85965,0 -2,-0.66666 -2,-9.5 z m 18,0 v -9.5 h 2.98095 c 2.43316,0 3.09626,0.50535 3.60845,2.75 0.34512,1.5125 1.18373,5 1.86357,7.75 l 1.23608,5 1.75586,-7.75 c 1.69494,-7.48112 1.85645,-7.75 4.65547,-7.75 h 2.89962 v 9.5 c 0,8.96291 -0.11789,9.5 -2.08532,9.5 -1.93434,0 -2.06105,-0.47078 -1.75,-6.5021 0.18443,-3.57615 0.0488,-6.50115 -0.30145,-6.5 -0.35022,10e-4 -1.18867,2.9271 -1.86323,6.5021 -1.07299,5.68664 -1.50508,6.5 -3.45307,6.5 -1.96774,0 -2.39057,-0.84292 -3.63677,-7.25 l -1.41016,-7.25 -0.29381,7.25 c -0.26054,6.42908 -0.51531,7.25 -2.25,7.25 -1.80431,0 -1.95619,-0.73758 -1.95619,-9.5 z m 33,0 v -9.5 h 7 c 5.55556,0 7,0.30953 7,1.5 0,1.13334 -1.22222,1.5 -5,1.5 -4.66666,0 -5,0.16667 -5,2.5 0,2.33334 0.33334,2.5 5,2.5 3.77778,0 5,0.36667 5,1.5 0,1.13334 -1.22222,1.5 -5,1.5 -4.66666,0 -5,0.16667 -5,2.5 0,2.36364 0.3,2.5 5.5,2.5 4.22223,0 5.5,0.34849 5.5,1.5 0,1.2 -1.5,1.5 -7.5,1.5 h -7.5 z m 28,0 c 0,-9.20897 0.0695,-9.5 2.26918,-9.5 1.73917,0 3.03626,1.39533 5.55339,5.97398 1.80631,3.28569 3.71018,6.23725 4.23082,6.55902 0.55873,0.34531 0.94661,-2.10256 0.94661,-5.97398 0,-5.16357 0.31913,-6.55902 1.5,-6.55902 1.22884,0 1.5,1.72995 1.5,9.56955 0,9.24594 -0.0733,9.55875 -2.16618,9.25 -1.48491,-0.21905 -3.29329,-2.3638 -5.75,-6.81955 l -3.58382,-6.5 -0.29569,6.75 c -0.25976,5.92986 -0.53314,6.75 -2.25,6.75 -1.80193,0 -1.95431,-0.7407 -1.95431,-9.5 z m 35,1.5 v -8 h -3 c -2,0 -3,-0.5 -3,-1.5 0,-1.2 1.5,-1.5 7.5,-1.5 5.84556,0 7.5,0.31624 7.5,1.43358 0,0.82053 -1.176,1.56889 -2.75,1.75 -2.70693,0.31147 -2.75457,0.43778 -3.04206,8.06642 -0.22571,5.98929 -0.62329,7.75 -1.75,7.75 -1.15575,0 -1.45794,-1.65814 -1.45794,-8 z M 422.00631,-598.8118 c -3.01202,-1.52581 -23.13214,-34.37355 -22.79587,-37.21612 0.19256,-1.62782 1.48192,-2.19611 7.23432,-3.18855 3.85,-0.66423 8.65492,-1.23534 10.6776,-1.26914 3.46793,-0.0579 3.89002,0.29487 7.40362,6.18855 2.04932,3.4375 4.8048,7.7125 6.1233,9.5 l 2.39727,3.25 h 20.39821 20.39822 l 2.39727,-3.25 c 1.3185,-1.7875 4.07398,-6.0625 6.12329,-9.5 3.5136,-5.89368 3.9357,-6.24649 7.40363,-6.18855 2.02267,0.0338 6.82759,0.60491 10.67759,1.26914 5.74775,0.99163 7.04318,1.56204 7.24136,3.18855 0.35356,2.90168 -19.67268,35.65794 -22.74136,37.19729 -3.53153,1.77154 -59.4455,1.78827 -62.93845,0.0188 z m 138.93845,-2.23526 c 0,-1.3239 12.44445,-1.5 106,-1.5 93.55556,0 106,0.1761 106,1.5 0,1.3239 -12.44444,1.5 -106,1.5 -93.55555,0 -106,-0.1761 -106,-1.5 z m 27,-19.8905 c -11.24764,-2.50082 -19.29299,-8.74132 -23.88018,-18.52302 -2.35069,-5.0126 -2.61982,-6.76782 -2.61982,-17.08648 0,-10.34939 0.26494,-12.06509 2.64796,-17.14796 3.3721,-7.19249 9.51159,-13.33198 16.70408,-16.70408 5.05426,-2.36961 6.80427,-2.64485 16.64796,-2.6184 9.1006,0.0245 11.80633,0.40089 15.66967,2.18003 8.83662,4.06943 15.51036,11.8058 17.28775,20.04041 l 0.70149,3.25 -9.32945,-0.0227 -9.32946,-0.0227 -1.55261,-3.22729 c -2.29546,-4.7714 -9.07222,-8.01628 -15.30847,-7.33009 -10.04838,1.10566 -16.10919,9.43795 -16.07891,22.10498 0.0308,12.90577 6.58056,20.49782 17.68358,20.49782 7.68253,0 11.23242,-2.08238 14.06398,-8.25 l 2.18073,-4.75 h 8.75585 c 4.81572,0 8.75585,0.36833 8.75585,0.8185 0,0.45017 -0.72209,3.25004 -1.60464,6.22192 -3.37163,11.35352 -10.87946,18.14062 -22.84128,20.64858 -7.34482,1.53994 -11.34766,1.52279 -18.55408,-0.0795 z m 71.73447,0.30245 c -9.06364,-2.13537 -16.54597,-8.29194 -19.19194,-15.7914 -2.84555,-8.06517 -2.7927,-8.12055 7.75068,-8.12055 h 9.2932 l 0.9568,3.16858 c 1.40511,4.65326 5.40341,7.13602 12.19336,7.57151 6.47991,0.41561 12.51077,-1.91826 13.09905,-5.06918 1.07723,-5.7698 -2.21377,-8.19294 -15.85898,-11.67687 -9.5341,-2.43427 -18.57297,-6.26619 -21.69138,-9.19578 -1.22921,-1.15478 -2.97518,-4.03792 -3.87993,-6.40698 -3.43338,-8.99019 0.80832,-18.46939 10.67178,-23.84892 4.61529,-2.51717 6.77892,-3.018 14.52841,-3.36296 10.73756,-0.47797 17.90697,1.23603 24.18112,5.781 4.66462,3.37903 8.21336,9.42791 8.21336,13.99976 v 3.03984 h -9 c -7.52845,0 -9,-0.25783 -9,-1.57692 0,-0.86731 -1.31538,-2.89231 -2.92307,-4.5 -2.56505,-2.56504 -3.64016,-2.92308 -8.7775,-2.92308 -6.73554,0 -10.29943,1.89766 -10.29943,5.48413 0,3.68269 4.22311,6.17471 14.38833,8.49043 10.40518,2.37039 19.99583,6.54892 23.31395,10.15761 6.7061,7.29337 6.96873,19.39052 0.56742,26.1358 -7.38398,7.78075 -25.21869,11.78132 -38.53523,8.64398 z m 50.26553,-36.44816 v -35.53621 l 9.74434,0.28621 9.74433,0.28621 13.00567,22.5 13.00566,22.5 0.26888,-22.78866 0.26887,-22.78865 8.73113,0.28865 8.73112,0.28866 0.2628,35.25 0.26279,35.25 -10.26279,-0.0192 -10.2628,-0.0192 -11.70515,-20.23077 c -6.43784,-11.12692 -12.38603,-21.13076 -13.2182,-22.23076 -1.36559,-1.80509 -1.51614,0.16834 -1.54484,20.25 l -0.0318,22.25 h -8.5 -8.5 z m -336.07692,9.61313 c -2.64224,-2.64224 -2.92308,-3.55931 -2.92308,-9.54545 0,-5.69783 0.34268,-6.96505 2.45455,-9.07692 l 2.45454,-2.45455 h 29.96367 c 16.48002,0 30.69212,0.27953 31.58244,0.62118 2.67108,1.02499 4.5448,5.93362 4.5448,11.90609 0,4.88552 -0.38499,6.01157 -2.92307,8.54965 l -2.92308,2.92308 h -29.65385 -29.65384 z m 96.09663,1.63863 c -3.7735,-1.90929 -5.15176,-5.43482 -4.73677,-12.1164 0.30692,-4.94146 0.81054,-6.2828 3.09755,-8.25 l 2.73104,-2.34915 h 29.98969 29.98969 l 2.45455,2.45455 c 2.09973,2.09973 2.45454,3.38888 2.45454,8.91821 0,12.81868 0.52351,12.63111 -35.20034,12.6125 -20.68982,-0.0108 -28.96661,-0.3522 -30.77995,-1.26971 z m -61.75266,-28.25419 c -7.91211,-1.44641 -9.26705,-1.99405 -9.26705,-3.74553 0,-2.09193 19.98632,-34.59283 22.24608,-36.17563 1.86382,-1.30548 6.86278,-1.5402 32.80212,-1.5402 30.44869,0 30.61376,0.0114 32.69995,2.25 3.27796,3.5175 21.25185,33.79374 21.25185,35.79782 0,1.91128 -0.85365,2.19052 -12,3.92539 -9.93868,1.54689 -9.38547,1.838 -14.93452,-7.8588 -2.79666,-4.88707 -5.70053,-9.39656 -6.45304,-10.02109 -0.94701,-0.78596 -7.63951,-1.05205 -21.74032,-0.86441 l -20.37212,0.27109 -5.83481,9.75 c -6.58165,10.99796 -5.58595,10.55357 -18.39814,8.21136 z m 152.73295,-39.96136 c 0,-1.33758 12.07538,-1.48016 106.25,-1.25454 70.20639,0.16819 106.16522,0.59378 106.00007,1.25454 -0.16416,0.6568 -36.62932,1.08736 -106.25,1.25455 -93.95179,0.22561 -106.00007,0.083 -106.00007,-1.25455 z"
         id="path26" /></g></g></svg>
