<?xml version="1.0" encoding="UTF-8" standalone="no"?>
<!-- Created with Inkscape (http://www.inkscape.org/) -->

<svg
   width="74.272453mm"
   height="35.70911mm"
   viewBox="0 0 280.71479 134.96357"
   version="1.1"
   id="svg1"
   xml:space="preserve"
   inkscape:export-filename="bitmap.svg"
   inkscape:export-xdpi="96"
   inkscape:export-ydpi="96"
   inkscape:version="1.4.3 (0d15f75, 2025-12-25)"
   sodipodi:docname="inomeado.svg"
   inkscape:export-batch-name="inomeado"
   xmlns:inkscape="http://www.inkscape.org/namespaces/inkscape"
   xmlns:sodipodi="http://sodipodi.sourceforge.net/DTD/sodipodi-0.dtd"
   xmlns="http://www.w3.org/2000/svg"
   xmlns:svg="http://www.w3.org/2000/svg"><sodipodi:namedview
     id="namedview1"
     pagecolor="#ffffff"
     bordercolor="#000000"
     borderopacity="0.25"
     inkscape:showpageshadow="2"
     inkscape:pageopacity="0.0"
     inkscape:pagecheckerboard="0"
     inkscape:deskcolor="#d1d1d1"
     inkscape:document-units="mm"
     inkscape:zoom="0.48693448"
     inkscape:cx="413.81338"
     inkscape:cy="500.06728"
     inkscape:window-width="1920"
     inkscape:window-height="991"
     inkscape:window-x="-9"
     inkscape:window-y="-9"
     inkscape:window-maximized="1"
     inkscape:current-layer="layer1"
     showguides="false"><inkscape:page
       x="0"
       y="0"
       width="280.71478"
       height="134.96358"
       id="page1"
       margin="0"
       bleed="0" /></sodipodi:namedview><defs
     id="defs1"><inkscape:path-effect
       effect="powerclip"
       message=""
       id="path-effect41"
       is_visible="true"
       lpeversion="1"
       inverse="true"
       flatten="false"
       hide_clip="false" /><clipPath
       clipPathUnits="userSpaceOnUse"
       id="clipPath41"><path
         style="display:none;fill:#df2221"
         d="m 116.27446,-634.72364 c -1.0435,-1.04349 -0.9328,-5.99959 0.23,-10.2987 0.5379,-1.98881 1.4708,-6.20802 2.073,-9.37602 1.5966,-8.39931 4.2122,-10.96279 14.4388,-14.15129 39.8414,-12.42189 89.7811,-18.56459 151.0603,-18.58077 38.6973,-0.0102 46.4557,0.55589 123.4499,9.00779 86.198,9.46224 97.1909,10.35051 128.5,10.38326 51.9215,0.0543 84.9146,-6.83499 108.7482,-22.70776 8.2938,-5.52347 23.4808,-20.14866 36.2389,-34.8982 3.6665,-4.23884 7.6101,-8.0065 8.7634,-8.3726 2.2734,-0.7215 4.4025,1.3521 5.3783,5.23803 0.8082,3.21849 -8.3895,41.13517 -11.1279,45.87403 -4.4044,7.62172 -29.6804,25.49186 -44.7771,31.65736 -8.3352,3.4041 -23.472,7.18431 -35.7238,8.92155 -10.7043,1.51779 -48.6601,1.49323 -64.5,-0.0417 -40.6614,-3.94029 -62.2981,-6.76345 -119.5,-15.59243 -44.9266,-6.9343 -46.4514,-7.14743 -64.5,-9.0157 -55.4488,-5.73966 -118.4224,-2.78596 -161.3376,7.56735 -15.3412,3.70108 -40.6888,12.13187 -57.1624,19.01267 -12.2842,5.13091 -18.7727,6.85242 -20.252,5.37318 z m 32.252,-51.78624 c -5.7166,-1.89758 -10.0167,-4.56478 -15.2929,-9.48545 -10.4032,-9.70222 -13.2409,-17.72119 -12.4183,-35.0928 0.8256,-17.4353 4.3096,-27.8649 16.2182,-48.5502 13.0886,-22.7349 28.8769,-40.6761 49.2782,-55.9979 19.2387,-14.4488 36.156,-23.1033 53.8024,-27.5241 7.1239,-1.7847 10.8654,-2.1134 20.7994,-1.8271 10.8742,0.3134 12.701,0.6378 17.8627,3.1725 11.9706,5.8782 21.535,17.8146 21.9083,27.3418 0.1345,3.4331 -0.3427,4.6095 -2.7476,6.773 -5.3104,4.7773 -15.1406,11.5618 -16.7522,11.5618 -2.2458,0 -3.6573,-3.1532 -3.6638,-8.1843 -0.017,-12.9741 -6.2223,-20.5798 -18.0547,-22.1286 -9.7781,-1.2798 -29.7354,3.9386 -41.6422,10.8885 -11.3322,6.6145 -31.06,24.48 -40.7038,36.8613 -7.7984,10.012 -10.6823,14.5823 -16.2095,25.6882 -10.9013,21.9041 -11,39.1314 -0.2942,51.32463 4.4111,5.02391 8.3194,6.55024 16.7725,6.55024 9.2592,0 18.1885,-2.89233 27.2608,-8.83014 14.7609,-9.66103 24.1035,-20.25363 34.8089,-39.46613 8.796,-15.7857 9.2027,-14.7037 -5.5259,-14.7037 -11.1761,0 -12.6097,-0.2034 -14.4575,-2.0512 -1.423,-1.423 -1.8474,-2.7246 -1.386,-4.25 1.0698,-3.5362 4.3352,-8.4351 7.27,-10.9066 l 2.7219,-2.2922 26.4356,0.5 26.4357,0.5 1.4782,2.636 c 1.4179,2.5285 1.2366,3.0383 -4.4458,12.5 -3.2582,5.4252 -7.226,12.339 -8.8174,15.364 -1.5914,3.025 -3.4438,6.175 -4.1164,7 -1.1033,1.3531 -7.7171,13.2892 -18.0081,32.49997 -11.1079,20.73548 -16.9583,30.66605 -18.5767,31.53221 -0.9946,0.53228 -6.3379,0.96779 -11.8741,0.96779 -8.7324,0 -10.3307,-0.26492 -12.0657,-2 -1.1,-1.1 -2,-2.41957 -2,-2.93237 0,-0.51281 -2.2437,0.57748 -4.9859,2.42286 -12.5968,8.47704 -38.1164,13.75546 -49.0141,10.13799 z m 306.3117,-12.57392 c -8.182,-3.71468 -13.2568,-15.02887 -11.8283,-26.37103 2.7041,-21.4701 21.4626,-49.6058 44.5834,-66.8699 23.3661,-17.4473 40.5593,-20.4219 52.6986,-9.1173 l 4.6735,4.3522 15.5305,-0.2743 15.5306,-0.2742 8.7072,-14.9621 c 5.7465,-9.8746 9.4746,-15.246 10.9638,-15.7969 2.3023,-0.8517 16.7562,-0.8343 20.0386,0.024 4.001,1.0463 3.2088,4.7351 -3.6136,16.8269 -3.6278,6.4299 -6.596,12.0246 -6.596,12.4327 0,1.2475 4.15,1.9473 11.6333,1.9617 6.4558,0.012 7.1869,0.2181 7.6965,2.1668 0.6793,2.5978 -1.1416,6.2219 -5.3241,10.5968 l -3.1071,3.25 h -10.7019 -10.702 l -15.4974,27.5934 c -8.5235,15.1764 -15.6428,28.22643 -15.8207,29.00005 -0.5377,2.33926 3.9119,1.62513 9.3234,-1.49633 2.75,-1.58626 9.725,-7.11282 15.5,-12.28132 8.5383,-7.6416 11.9825,-11.6314 18.4356,-21.3565 17.8892,-26.9598 44.472,-46.9206 64.2372,-48.2353 8.8209,-0.5867 14.3215,1.6906 20.192,8.3598 l 3.8873,4.4162 h 8.0169 c 6.388,0 8.1403,0.3214 8.624,1.5818 1.2108,3.1552 0.5475,5.7055 -2.4771,9.5243 -2.8393,3.5849 -3.4766,3.8939 -8.0313,3.8939 -3.1208,0 -5.0654,0.4615 -5.2671,1.25 -0.1759,0.6875 -1.0267,4.2013 -1.8908,7.8084 -5.8776,24.535 -30.8625,54.26455 -56.2267,66.9043 -13.0132,6.48482 -25.0043,8.52478 -32.2685,5.48958 -7.1444,-2.9851 -10.9784,-8.37706 -13.2603,-18.64865 l -1.2655,-5.69639 -4.1029,3.33254 c -6.4408,5.23154 -21.4653,14.61406 -28.6028,17.86201 -4.0333,1.83533 -8.8651,3.14973 -12.7322,3.4635 -6.2208,0.50476 -6.2397,0.49814 -10.3597,-3.62185 l -4.1275,-4.12754 0.3708,-7.34372 c 0.4329,-8.57189 0.5427,-8.80583 19.3958,-41.30538 6.9767,-12.0267 13.0716,-22.8793 13.5441,-24.1168 0.8535,-2.2353 0.7973,-2.25 -8.597,-2.25 h -9.4562 l -0.5583,2.75 c -3.6668,18.0614 -11.4193,32.6787 -25.9798,48.98463 -14.1154,15.80744 -29.0371,25.91317 -44.6513,30.24008 -9.078,2.51564 -15.1202,2.53914 -20.537,0.0799 z m 33.1594,-26.50327 c 12.8552,-6.70056 23.9342,-17.34696 29.4196,-28.27076 2.5836,-5.1452 5.1093,-14.5327 5.1093,-18.9906 v -3.2899 l -6.25,-0.012 c -4.8394,-0.01 -7.2495,-0.5834 -10.6784,-2.5434 l -4.4284,-2.5313 -5.1032,3.5147 c -8.9515,6.1651 -20.7467,19.5043 -25.4513,28.7828 -3.4925,6.8878 -4.2316,9.333 -4.2316,13.9996 0,9.20457 2.8428,12.78961 10.1416,12.78961 3.5902,0 6.5806,-0.89893 11.4724,-3.44871 z m 147.4347,1.40586 c 2.4233,-1.09941 7.4916,-4.28643 11.2629,-7.08232 14.9258,-11.0649 24.0081,-25.2442 24.6789,-38.5288 l 0.3686,-7.3001 -8.034,0.6195 c -7.0292,0.5421 -8.4766,0.3584 -11.5725,-1.4682 l -3.5385,-2.0877 -5.7856,4.2711 c -7.1941,5.311 -16.7522,15.6677 -21.0187,22.775 -4.4729,7.4511 -6.9308,17.6852 -5.4413,22.6566 1.7979,6.00113 4.4704,8.19142 9.9633,8.16581 2.5911,-0.0121 6.6937,-0.92148 9.1169,-2.02089 z m -364.4058,25.04644 c -5.4786,-1.726 -10.2848,-6.64486 -12.0908,-12.37422 -1.5273,-4.84521 -1.5379,-5.91959 -0.1271,-12.83806 6.1952,-30.37888 38.3754,-69.22018 66.1622,-79.85718 14.0647,-5.3841 20.8165,-4.8204 29.087,2.4286 5.0309,4.4094 5.0316,4.4096 7.3608,2.5235 1.9325,-1.5648 4.0187,-1.8862 12.2434,-1.8862 9.757,0 9.9296,0.041 10.9027,2.6005 0.8294,2.1816 0.4015,3.672 -2.6559,9.25 -6.9511,12.6822 -33.3823,64.33868 -33.3823,65.24178 0,3.96997 14.1813,-7.98168 32.3627,-27.27458 9.077,-9.6318 11.3866,-12.818 16.5911,-22.8871 3.3254,-6.4336 6.0462,-12.6733 6.0462,-13.8661 0,-1.5038 -0.9071,-2.4848 -2.9592,-3.2001 -4.2773,-1.4911 -4.9579,-4.6789 -1.6132,-7.5558 2.5418,-2.1864 3.4666,-2.3086 17.4731,-2.3086 13.4362,0 14.9521,0.1799 16.5693,1.9668 0.979,1.0818 1.78,3.0509 1.78,4.3759 0,2.1431 0.2344,2.2846 2.125,1.2818 1.1687,-0.6199 4.2651,-2.6125 6.8808,-4.4279 2.6158,-1.8154 8.1748,-4.9244 12.3536,-6.9089 10.0338,-4.765 17.0951,-5.0725 23.2315,-1.0117 2.2875,1.5138 4.1591,3.2584 4.1591,3.8768 0,1.373 -9.6685,13.3944 -16.5076,20.5249 -4.7555,4.9582 -5.1833,5.1792 -8.5,4.3896 -1.9208,-0.4573 -4.6174,-1.2804 -5.9924,-1.8292 -5.0703,-2.0235 -15.5772,1.3024 -23.7347,7.5131 -3.0734,2.34 -13.2653,15.1836 -13.2653,16.7167 0,0.3978 -0.9429,2.0475 -2.0953,3.6659 -1.1524,1.6184 -7.4264,13.3879 -13.9422,26.15438 -6.6799,13.08805 -12.8019,23.84837 -14.0366,24.67134 -3.4249,2.28284 -20.2109,2.73898 -23.4198,0.63641 -3.1017,-2.03228 -3.1119,-3.0007 -0.1026,-9.72512 1.322,-2.95396 2.7283,-6.46533 3.1253,-7.80304 0.7675,-2.58697 -0.6179,-1.71148 -16.6604,10.52806 -7.7691,5.92743 -11.1334,7.40414 -16.8684,7.40414 -8.4135,0 -12.5476,-3.00046 -14.4483,-10.48619 l -1.1108,-4.37458 -7.4704,4.52785 c -14.6393,8.87283 -18.6891,10.51574 -26.9043,10.91444 -4.1614,0.20197 -8.9162,-0.0581 -10.5662,-0.57793 z m 33.24,-23.83679 c 21.8146,-13.99837 42.0808,-53.77907 32.0311,-62.87397 -2.8767,-2.6034 -9.4137,-2.3014 -15.3094,0.7072 -13.6734,6.9776 -33.7666,34.5131 -35.9863,49.3154 -0.8113,5.4096 -0.093,9.13946 2.6172,13.59649 1.9329,3.17834 2.2489,3.30972 6.8886,2.86391 3.1476,-0.30245 6.5897,-1.57542 9.7588,-3.60903 z m 381.4901,-102.12547 c -13.5165,-3.2941 -19.6998,-19.8352 -11.6659,-31.2075 5.7868,-8.1915 15.5346,-10.7664 24.7634,-6.5414 8.0768,3.6977 11.1765,8.7346 11.1599,18.1345 -0.011,6.0545 -0.4092,7.66 -2.7676,11.1488 -4.5856,6.7837 -13.6841,10.368 -21.4898,8.4656 z m 12.458,-4.6976 c 4.4578,-2.1154 8.4286,-8.1068 8.9972,-13.5754 0.5655,-5.4392 -2.8063,-12.3358 -7.5832,-15.5103 -4.5003,-2.9906 -13.1784,-3.1186 -17.8613,-0.2634 -10.9774,6.693 -10.4156,23.7273 0.9677,29.3376 4.261,2.1001 11.0676,2.1051 15.4796,0.011 z m -16.0006,-3.9896 c -0.3782,-0.3781 -0.6875,-5.3375 -0.6875,-11.0208 v -10.3333 h 6.5 c 5.1666,0 6.9102,0.4102 8.5,2 2.6651,2.6651 2.522,5.1609 -0.4564,7.9589 l -2.4563,2.3076 2.9616,4.3045 c 3.5136,5.1069 2.065,7.5889 -1.6571,2.8392 -7.1395,-9.1105 -9.1342,-9.6803 -9.587,-2.7384 -0.2857,4.3792 -1.5386,6.2611 -3.1173,4.6823 z m 11.8125,-15.3541 c 0,-2.2263 -0.4654,-2.5337 -4.25,-2.8075 -4.1563,-0.3007 -4.25,-0.2388 -4.25,2.8075 0,3.0462 0.094,3.1082 4.25,2.8075 3.7846,-0.2739 4.25,-0.5813 4.25,-2.8075 z"
         id="path41" /><path
         id="lpe_path-effect41"
         style="fill:#df2221"
         class="powerclip"
         d="M 40.876338,-908.52103 H 787.17153 v 364 H 40.876338 Z m 75.398122,273.79739 v 5e-5 c 1.4793,1.47924 7.9678,-0.24227 20.252,-5.37318 16.4736,-6.8808 41.8212,-15.31159 57.1624,-19.01267 42.9152,-10.35331 105.8888,-13.30701 161.3376,-7.56735 18.0486,1.86827 19.5734,2.0814 64.5,9.0157 57.2019,8.82898 78.8386,11.65214 119.5,15.59243 15.8399,1.53493 53.7957,1.55949 64.5,0.0417 12.2518,-1.73724 27.3886,-5.51745 35.7238,-8.92155 15.0967,-6.1655 40.3727,-24.03564 44.7771,-31.65736 2.7384,-4.73886 11.9361,-42.65554 11.1279,-45.87403 -0.9758,-3.88593 -3.1049,-5.95953 -5.3783,-5.23803 -1.1533,0.3661 -5.0969,4.13376 -8.7634,8.3726 -12.7581,14.74954 -27.9451,29.37473 -36.2389,34.8982 -23.8336,15.87277 -56.8267,22.76206 -108.7482,22.70776 -31.3091,-0.0327 -42.302,-0.92102 -128.5,-10.38326 -76.9942,-8.4519 -84.7526,-9.01799 -123.4499,-9.00779 -61.2792,0.0162 -111.2189,6.15888 -151.0603,18.58077 -10.2266,3.1885 -12.8422,5.75198 -14.4388,14.15129 -0.6022,3.168 -1.5351,7.38721 -2.073,9.37602 -1.1628,4.29911 -1.2735,9.25521 -0.23,10.2987 z m 32.252,-51.78624 c 10.8977,3.61747 36.4173,-1.66095 49.0141,-10.13799 2.7422,-1.84538 4.9859,-2.93567 4.9859,-2.42286 0,0.5128 0.9,1.83237 2,2.93237 1.735,1.73508 3.3333,2 12.0657,2 5.5362,0 10.8795,-0.43551 11.8741,-0.96779 1.6184,-0.86616 7.4688,-10.79673 18.5767,-31.53221 10.291,-19.21077 16.9048,-31.14687 18.0081,-32.49997 0.6726,-0.825 2.525,-3.975 4.1164,-7 1.5914,-3.025 5.5592,-9.9388 8.8174,-15.364 5.6824,-9.4617 5.8637,-9.9715 4.4458,-12.5 l -1.4782,-2.636 -26.4357,-0.5 -26.4356,-0.5 -2.7219,2.2922 c -2.9348,2.4715 -6.2002,7.3704 -7.27,10.9066 -0.4614,1.5254 -0.037,2.827 1.386,4.25 1.8478,1.8478 3.2814,2.0512 14.4575,2.0512 14.7286,0 14.3219,-1.082 5.5259,14.7037 -10.7054,19.2125 -20.048,29.8051 -34.8089,39.46613 -9.0723,5.93781 -18.0016,8.83014 -27.2608,8.83014 -8.4531,0 -12.3614,-1.52633 -16.7725,-6.55024 -10.7058,-12.19323 -10.6071,-29.42053 0.2942,-51.32463 5.5272,-11.1059 8.4111,-15.6762 16.2095,-25.6882 9.6438,-12.3813 29.3716,-30.2468 40.7038,-36.8613 11.9068,-6.9499 31.8641,-12.1683 41.6422,-10.8885 11.8324,1.5488 18.0377,9.1545 18.0547,22.1286 0.006,5.0311 1.418,8.1843 3.6638,8.1843 1.6116,0 11.4418,-6.7845 16.7522,-11.5618 2.4049,-2.1635 2.8821,-3.3399 2.7476,-6.773 -0.3733,-9.5272 -9.9377,-21.4636 -21.9083,-27.3418 -5.1617,-2.5347 -6.9885,-2.8591 -17.8627,-3.1725 -9.934,-0.2863 -13.6755,0.0424 -20.7994,1.8271 -17.6464,4.4208 -34.5637,13.0753 -53.8024,27.5241 -20.4013,15.3218 -36.1896,33.263 -49.2782,55.9979 -11.9086,20.6853 -15.3926,31.1149 -16.2182,48.5502 -0.8226,17.37161 2.0151,25.39058 12.4183,35.0928 5.2762,4.92067 9.5763,7.58787 15.2929,9.48545 z m 306.3117,-12.57392 v -2e-5 c 5.4168,2.45924 11.459,2.43574 20.537,-0.0799 15.6142,-4.32691 30.5359,-14.43264 44.6513,-30.24008 14.5605,-16.30593 22.313,-30.92323 25.9798,-48.98463 l 0.5583,-2.75 h 9.4562 c 9.3943,0 9.4505,0.0147 8.597,2.25 -0.4725,1.2375 -6.5674,12.0901 -13.5441,24.1168 -18.8531,32.49955 -18.9629,32.73349 -19.3958,41.30538 l -0.3708,7.34372 4.1275,4.12754 c 4.12,4.11999 4.1389,4.12661 10.3597,3.62185 3.8671,-0.31377 8.6989,-1.62817 12.7322,-3.4635 7.1375,-3.24795 22.162,-12.63047 28.6028,-17.86201 l 4.1029,-3.33254 1.2655,5.69639 c 2.2819,10.27159 6.1159,15.66355 13.2603,18.64865 7.2642,3.0352 19.2553,0.99524 32.2685,-5.48958 25.3642,-12.63975 50.3491,-42.3693 56.2267,-66.9043 0.8641,-3.6071 1.7149,-7.1209 1.8908,-7.8084 0.2017,-0.7885 2.1463,-1.25 5.2671,-1.25 4.5547,0 5.192,-0.309 8.0313,-3.8939 3.0246,-3.8188 3.6879,-6.3691 2.4771,-9.5243 -0.4837,-1.2604 -2.236,-1.5818 -8.624,-1.5818 h -8.0169 l -3.8873,-4.4162 c -5.8705,-6.6692 -11.3711,-8.9465 -20.192,-8.3598 -19.7652,1.3147 -46.348,21.2755 -64.2372,48.2353 -6.4531,9.7251 -9.8973,13.7149 -18.4356,21.3565 -5.775,5.1685 -12.75,10.69506 -15.5,12.28132 -5.4115,3.12146 -9.8611,3.83559 -9.3234,1.49633 0.1779,-0.77362 7.2972,-13.82365 15.8207,-29.00005 l 15.4974,-27.5934 h 10.702 10.7019 l 3.1071,-3.25 c 4.1825,-4.3749 6.0034,-7.999 5.3241,-10.5968 -0.5096,-1.9487 -1.2407,-2.1548 -7.6965,-2.1668 -7.4833,-0.0144 -11.6333,-0.7142 -11.6333,-1.9617 0,-0.4081 2.9682,-6.0028 6.596,-12.4327 6.8224,-12.0918 7.6146,-15.7806 3.6136,-16.8269 -3.2824,-0.8583 -17.7363,-0.8757 -20.0386,-0.024 -1.4892,0.5509 -5.2173,5.9223 -10.9638,15.7969 l -8.7072,14.9621 -15.5306,0.2742 -15.5305,0.2743 -4.6735,-4.3522 c -12.1393,-11.3046 -29.3325,-8.33 -52.6986,9.1173 -23.1208,17.2641 -41.8793,45.3998 -44.5834,66.8699 -1.4285,11.34216 3.6463,22.65635 11.8283,26.37103 z m 33.1594,-26.50327 c 12.8552,-6.70056 23.9342,-17.34696 29.4196,-28.27076 2.5836,-5.1452 5.1093,-14.5327 5.1093,-18.9906 v -3.2899 l -6.25,-0.012 c -4.8394,-0.01 -7.2495,-0.5834 -10.6784,-2.5434 l -4.4284,-2.5313 -5.1032,3.5147 c -8.9515,6.1651 -20.7467,19.5043 -25.4513,28.7828 -3.4925,6.8878 -4.2316,9.333 -4.2316,13.9996 0,9.20457 2.8428,12.78961 10.1416,12.78961 3.5902,0 6.5806,-0.89893 11.4724,-3.44871 z m 147.4347,1.40586 c 2.4233,-1.09941 7.4916,-4.28643 11.2629,-7.08232 14.9258,-11.0649 24.0081,-25.2442 24.6789,-38.5288 l 0.3686,-7.3001 -8.034,0.6195 c -7.0292,0.5421 -8.4766,0.3584 -11.5725,-1.4682 l -3.5385,-2.0877 -5.7856,4.2711 c -7.1941,5.311 -16.7522,15.6677 -21.0187,22.775 -4.4729,7.4511 -6.9308,17.6852 -5.4413,22.6566 1.7979,6.00113 4.4704,8.19142 9.9633,8.16581 2.5911,-0.0121 6.6937,-0.92148 9.1169,-2.02089 z m -364.4058,25.04644 c 1.65,0.51983 6.4048,0.7799 10.5662,0.57793 8.2152,-0.3987 12.265,-2.04161 26.9043,-10.91444 l 7.4704,-4.52785 1.1108,4.37458 c 1.9007,7.48573 6.0348,10.48619 14.4483,10.48619 5.735,0 9.0993,-1.47671 16.8684,-7.40414 16.0425,-12.23954 17.4279,-13.11503 16.6604,-10.52806 -0.397,1.33771 -1.8033,4.84908 -3.1253,7.80304 -3.0093,6.72442 -2.9991,7.69284 0.1026,9.72512 3.2089,2.10257 19.9949,1.64643 23.4198,-0.63641 1.2347,-0.82297 7.3567,-11.58329 14.0366,-24.67134 6.5158,-12.76648 12.7898,-24.53598 13.9422,-26.15438 1.1524,-1.6184 2.0953,-3.2681 2.0953,-3.6659 0,-1.5331 10.1919,-14.3767 13.2653,-16.7167 8.1575,-6.2107 18.6644,-9.5366 23.7347,-7.5131 1.375,0.5488 4.0716,1.3719 5.9924,1.8292 3.3167,0.7896 3.7445,0.5686 8.5,-4.3896 6.8391,-7.1305 16.5076,-19.1519 16.5076,-20.5249 0,-0.6184 -1.8716,-2.363 -4.1591,-3.8768 -6.1364,-4.0608 -13.1977,-3.7533 -23.2315,1.0117 -4.1788,1.9845 -9.7378,5.0935 -12.3536,6.9089 -2.6157,1.8154 -5.7121,3.808 -6.8808,4.4279 -1.8906,1.0028 -2.125,0.8613 -2.125,-1.2818 0,-1.325 -0.801,-3.2941 -1.78,-4.3759 -1.6172,-1.7869 -3.1331,-1.9668 -16.5693,-1.9668 -14.0065,0 -14.9313,0.1222 -17.4731,2.3086 -3.3447,2.8769 -2.6641,6.0647 1.6132,7.5558 2.0521,0.7153 2.9592,1.6963 2.9592,3.2001 0,1.1928 -2.7208,7.4325 -6.0462,13.8661 -5.2045,10.0691 -7.5141,13.2553 -16.5911,22.8871 -18.1814,19.2929 -32.3627,31.24455 -32.3627,27.27458 0,-0.9031 26.4312,-52.55958 33.3823,-65.24178 3.0574,-5.578 3.4853,-7.0684 2.6559,-9.25 -0.9731,-2.5595 -1.1457,-2.6005 -10.9027,-2.6005 -8.2247,0 -10.3109,0.3214 -12.2434,1.8862 -2.3292,1.8861 -2.3299,1.8859 -7.3608,-2.5235 -8.2705,-7.249 -15.0223,-7.8127 -29.087,-2.4286 -27.7868,10.637 -59.967,49.4783 -66.1622,79.85718 -1.4108,6.91847 -1.4002,7.99285 0.1271,12.83806 1.806,5.72936 6.6122,10.64822 12.0908,12.37422 z m 33.24,-23.83679 c 21.8146,-13.99837 42.0808,-53.77907 32.0311,-62.87397 -2.8767,-2.6034 -9.4137,-2.3014 -15.3094,0.7072 -13.6734,6.9776 -33.7666,34.5131 -35.9863,49.3154 -0.8113,5.4096 -0.093,9.13946 2.6172,13.59649 1.9329,3.17834 2.2489,3.30972 6.8886,2.86391 3.1476,-0.30245 6.5897,-1.57542 9.7588,-3.60903 z m 381.4901,-102.12547 c 7.8057,1.9024 16.9042,-1.6819 21.4898,-8.4656 2.3584,-3.4888 2.7566,-5.0943 2.7676,-11.1488 0.0166,-9.3999 -3.0831,-14.4368 -11.1599,-18.1345 -9.2288,-4.225 -18.9766,-1.6501 -24.7634,6.5414 -8.0339,11.3723 -1.8506,27.9134 11.6659,31.2075 z m 12.458,-4.6976 c 4.4578,-2.1154 8.4286,-8.1068 8.9972,-13.5754 0.5655,-5.4392 -2.8063,-12.3358 -7.5832,-15.5103 -4.5003,-2.9906 -13.1784,-3.1186 -17.8613,-0.2634 -10.9774,6.693 -10.4156,23.7273 0.9677,29.3376 4.261,2.1001 11.0676,2.1051 15.4796,0.011 z m -16.0006,-3.9896 c 1.5787,1.5788 2.8316,-0.3031 3.1173,-4.6823 0.4528,-6.9419 2.4475,-6.3721 9.587,2.7384 3.7221,4.7497 5.1707,2.2677 1.6571,-2.8392 l -2.9616,-4.3045 2.4563,-2.3076 c 2.9784,-2.798 3.1215,-5.2938 0.4564,-7.9589 -1.5898,-1.5898 -3.3334,-2 -8.5,-2 h -6.5 v 10.3333 c 0,5.6833 0.3093,10.6427 0.6875,11.0208 z m 11.8125,-15.3541 c 0,-2.2263 -0.4654,-2.5337 -4.25,-2.8075 -4.1563,-0.3007 -4.25,-0.2388 -4.25,2.8075 0,3.0462 0.094,3.1082 4.25,2.8075 3.7846,-0.2739 4.25,-0.5813 4.25,-2.8075 z" /></clipPath></defs><g
     inkscape:label="Camada 1"
     inkscape:groupmode="layer"
     id="layer1"
     transform="translate(-443.1756,-292.78155)"><g
       id="g39"
       transform="matrix(0.38125304,0,0,0.38125304,527.55495,1337.0532)"
       style="fill:#ffffff;fill-opacity:1"><path
         style="fill:#ffffff;fill-opacity:1;stroke:none"
         d="m 45.876338,-903.52103 v 354 c 23.5049,-6.36237 46.352,-14.78519 70.000002,-20.75113 53.6916,-13.54532 110.5261,-21.90164 166,-19.02829 67.3528,3.48864 133.4951,18.55642 200,28.66183 34.7398,5.27872 71.785,10.81217 107,8.7103 50.1003,-2.99033 100.3737,-4.82141 147,-25.92948 10.4127,-4.71389 20.5,-10.09793 29.996,-16.47778 4.743,-3.18655 10.0602,-6.65881 13.1675,-11.58548 4.4827,-7.10754 2.8365,-17.58145 2.8365,-25.59997 v -57 -215 z"
         id="path38"
         clip-path="url(#clipPath41)"
         inkscape:path-effect="#path-effect41"
         inkscape:original-d="m 45.876338,-903.52103 v 354 c 23.5049,-6.36237 46.352,-14.78519 70.000002,-20.75113 53.6916,-13.54532 110.5261,-21.90164 166,-19.02829 67.3528,3.48864 133.4951,18.55642 200,28.66183 34.7398,5.27872 71.785,10.81217 107,8.7103 50.1003,-2.99033 100.3737,-4.82141 147,-25.92948 10.4127,-4.71389 20.5,-10.09793 29.996,-16.47778 4.743,-3.18655 10.0602,-6.65881 13.1675,-11.58548 4.4827,-7.10754 2.8365,-17.58145 2.8365,-25.59997 v -57 -215 z"
         transform="translate(-267.19745,-1835.5303)" /></g></g></svg>
