<?xml version="1.0" encoding="UTF-8" standalone="no"?>
<!-- Created with Inkscape (http://www.inkscape.org/) -->

<svg
   width="73.381882mm"
   height="27.934299mm"
   viewBox="0 0 277.34885 105.57846"
   version="1.1"
   id="svg1"
   xml:space="preserve"
   inkscape:export-filename="bitmap.svg"
   inkscape:export-xdpi="96"
   inkscape:export-ydpi="96"
   inkscape:version="1.4.3 (0d15f75, 2025-12-25)"
   sodipodi:docname="inomeado.svg"
   inkscape:export-batch-name="inomeado"
   xmlns:inkscape="http://www.inkscape.org/namespaces/inkscape"
   xmlns:sodipodi="http://sodipodi.sourceforge.net/DTD/sodipodi-0.dtd"
   xmlns="http://www.w3.org/2000/svg"
   xmlns:svg="http://www.w3.org/2000/svg"><sodipodi:namedview
     id="namedview1"
     pagecolor="#ffffff"
     bordercolor="#000000"
     borderopacity="0.25"
     inkscape:showpageshadow="2"
     inkscape:pageopacity="0.0"
     inkscape:pagecheckerboard="0"
     inkscape:deskcolor="#d1d1d1"
     inkscape:document-units="mm"
     inkscape:zoom="0.48693448"
     inkscape:cx="413.81338"
     inkscape:cy="500.06728"
     inkscape:window-width="1920"
     inkscape:window-height="991"
     inkscape:window-x="-9"
     inkscape:window-y="-9"
     inkscape:window-maximized="1"
     inkscape:current-layer="layer1"
     showguides="false"><inkscape:page
       x="0"
       y="0"
       width="277.34885"
       height="105.57846"
       id="page1"
       margin="0"
       bleed="0" /></sodipodi:namedview><defs
     id="defs1" /><g
     inkscape:label="Camada 1"
     inkscape:groupmode="layer"
     id="layer1"
     transform="translate(-57.63126,-824.04928)"><g
       id="g1"
       transform="matrix(0.21921692,0,0,0.21921692,365.78295,1283.9253)"
       style="fill:#ffffff;fill-opacity:1"><path
         style="fill:#ffffff;fill-opacity:1"
         d="m -1186.2514,-1616.6516 c 1.2439,-0.2392 3.0439,-0.2301 4,0.02 0.9561,0.2503 -0.062,0.446 -2.2617,0.4349 -2.2,-0.011 -2.9822,-0.2159 -1.7383,-0.4551 z m -19.0117,-0.955 c 0.6875,-0.2774 1.8125,-0.2774 2.5,0 0.6875,0.2774 0.125,0.5044 -1.25,0.5044 -1.375,0 -1.9375,-0.227 -1.25,-0.5044 z m 39,0 c 0.6875,-0.2774 1.8125,-0.2774 2.5,0 0.6875,0.2774 0.125,0.5044 -1.25,0.5044 -1.375,0 -1.9375,-0.227 -1.25,-0.5044 z m 10.0625,-1.0208 c 0.7219,-0.2889 1.5844,-0.2534 1.9167,0.079 0.3323,0.3323 -0.2583,0.5686 -1.3125,0.5252 -1.1649,-0.048 -1.4019,-0.2849 -0.6042,-0.6041 z m -169.94,-49.0669 c -1.2439,-1.5861 -1.2085,-1.6215 0.3775,-0.3776 0.9625,0.7549 1.75,1.5424 1.75,1.75 0,0.823 -0.8211,0.2933 -2.1275,-1.3724 z m 281.1275,1.3724 c 0,-0.2076 0.7875,-0.9951 1.75,-1.75 1.5861,-1.2439 1.6215,-1.2085 0.3776,0.3776 -1.3064,1.6657 -2.1276,2.1954 -2.1276,1.3724 z m -289.5629,-8.8724 -2.9371,-3.25 3.25,2.9371 c 3.0295,2.7377 3.7097,3.5629 2.9371,3.5629 -0.1721,0 -1.6346,-1.4625 -3.25,-3.25 z m 298.5629,0.75 c 1.2918,-1.375 2.5737,-2.5 2.8487,-2.5 0.275,0 -0.5569,1.125 -1.8487,2.5 -1.2917,1.375 -2.5736,2.5 -2.8486,2.5 -0.275,0 0.5569,-1.125 1.8486,-2.5 z m -159.25,-11.2058 c 1.2375,-0.2383 3.2625,-0.2383 4.5,0 1.2375,0.2384 0.225,0.4334 -2.25,0.4334 -2.475,0 -3.4875,-0.195 -2.25,-0.4334 z m 14,0 c 1.2375,-0.2383 3.2625,-0.2383 4.5,0 1.2375,0.2384 0.225,0.4334 -2.25,0.4334 -2.475,0 -3.4875,-0.195 -2.25,-0.4334 z m 156.25,0.3929 c 0,-0.1721 1.4625,-1.6346 3.25,-3.25 l 3.25,-2.9371 -2.9371,3.25 c -2.7377,3.0294 -3.5629,3.7096 -3.5629,2.9371 z m -323.0756,-3.4371 -2.4244,-2.75 2.75,2.4243 c 2.5703,2.2659 3.2086,3.0757 2.4244,3.0757 -0.1792,0 -1.4167,-1.2375 -2.75,-2.75 z m 141.8881,2.0669 c 0.7219,-0.2889 1.5844,-0.2534 1.9167,0.079 0.3323,0.3323 -0.2583,0.5686 -1.3125,0.5252 -1.1649,-0.048 -1.4019,-0.2849 -0.6042,-0.6041 z m 39,0 c 0.7219,-0.2889 1.5844,-0.2534 1.9167,0.079 0.3323,0.3323 -0.2583,0.5686 -1.3125,0.5252 -1.1649,-0.048 -1.4019,-0.2849 -0.6042,-0.6041 z m 151.1875,-8.6945 c 0,-0.2076 0.7875,-0.9951 1.75,-1.75 1.5861,-1.2439 1.6215,-1.2085 0.3776,0.3776 -1.3064,1.6657 -2.1276,2.1954 -2.1276,1.3724 z m -270.1275,-27.3724 c -1.2439,-1.5861 -1.2085,-1.6215 0.3775,-0.3776 0.9625,0.7549 1.75,1.5424 1.75,1.75 0,0.823 -0.8211,0.2933 -2.1275,-1.3724 z m 198.1275,1.3724 c 0,-0.2076 0.7875,-0.9951 1.75,-1.75 1.5861,-1.2439 1.6215,-1.2085 0.3776,0.3776 -1.3064,1.6657 -2.1276,2.1954 -2.1276,1.3724 z m -158.1767,-9.3721 c 19.4279,-0.1518 50.9279,-0.1518 70,2e-4 19.0722,0.1519 3.1767,0.2762 -35.3233,0.2761 -38.5,-10e-5 -54.1045,-0.1245 -34.6767,-0.2763 z m -54.9508,-7.0003 c -1.2439,-1.5861 -1.2085,-1.6215 0.3775,-0.3776 0.9625,0.7549 1.75,1.5424 1.75,1.75 0,0.823 -0.8211,0.2933 -2.1275,-1.3724 z m 228.1275,1.3724 c 0,-0.2076 0.7875,-0.9951 1.75,-1.75 1.5861,-1.2439 1.6215,-1.2085 0.3776,0.3776 -1.3064,1.6657 -2.1276,2.1954 -2.1276,1.3724 z m -330.921,-72.2058 c 0.048,-1.1649 0.2849,-1.4019 0.6042,-0.6041 0.2888,0.7218 0.2533,1.5843 -0.079,1.9166 -0.3323,0.3323 -0.5686,-0.2583 -0.5252,-1.3125 z m 437.99999,0 c 0.048,-1.1649 0.28494,-1.4019 0.60416,-0.6041 0.28887,0.7218 0.25335,1.5843 -0.0789,1.9166 -0.3323,0.3323 -0.56865,-0.2583 -0.52522,-1.3125 z m -438.92109,-8.4166 c 0,-1.375 0.227,-1.9375 0.5044,-1.25 0.2774,0.6875 0.2774,1.8125 0,2.5 -0.2774,0.6875 -0.5044,0.125 -0.5044,-1.25 z m 440.03709,-0.5 c 0.0204,-1.65 0.2445,-2.204 0.49804,-1.231 0.25354,0.973 0.23687,2.323 -0.0371,3 -0.27393,0.677 -0.48137,-0.119 -0.46099,-1.769 z m -71.11599,-1.0834 c 0.048,-1.1649 0.2849,-1.4019 0.6042,-0.6041 0.2888,0.7218 0.2533,1.5843 -0.079,1.9166 -0.3323,0.3323 -0.5686,-0.2583 -0.5252,-1.3125 z m -301.7929,-12.9166 c 0.01,-2.75 0.2017,-3.7563 0.4315,-2.2363 0.2299,1.5201 0.2237,3.7701 -0.014,5 -0.2374,1.23 -0.4255,-0.014 -0.4179,-2.7637 z m 303,0 c 0.01,-2.75 0.2017,-3.7563 0.4315,-2.2363 0.2299,1.5201 0.2237,3.7701 -0.014,5 -0.2374,1.23 -0.4255,-0.014 -0.4179,-2.7637 z m -370.966,-6.5 c 0,-3.575 0.1815,-5.0375 0.4033,-3.25 0.2219,1.7875 0.2219,4.7125 0,6.5 -0.2218,1.7875 -0.4033,0.325 -0.4033,-3.25 z m 441.9796,0 c 0,-3.025 0.18747,-4.2625 0.41659,-2.75 0.22913,1.5125 0.22913,3.9875 0,5.5 -0.22912,1.5125 -0.41659,0.275 -0.41659,-2.75 z m -374.0136,-4.5 c 0.01,-2.75 0.2017,-3.7563 0.4315,-2.2363 0.2299,1.5201 0.2237,3.7701 -0.014,5 -0.2374,1.23 -0.4255,-0.014 -0.4179,-2.7637 z m 302.9863,-0.5 c 0,-2.475 0.195,-3.4875 0.4334,-2.25 0.2383,1.2375 0.2383,3.2625 0,4.5 -0.2384,1.2375 -0.4334,0.225 -0.4334,-2.25 z m -99.2724,-7.3776 c 0,-0.2076 0.7875,-0.9951 1.75,-1.75 1.5861,-1.2439 1.6215,-1.2085 0.3776,0.3776 -1.3064,1.6657 -2.1276,2.1954 -2.1276,1.3724 z m -202.921,-5.2058 c 0.048,-1.1649 0.2849,-1.4019 0.6042,-0.6041 0.2888,0.7218 0.2533,1.5843 -0.079,1.9166 -0.3323,0.3323 -0.5686,-0.2583 -0.5252,-1.3125 z m 301,0 c 0.048,-1.1649 0.2849,-1.4019 0.6042,-0.6041 0.2888,0.7218 0.2533,1.5843 -0.079,1.9166 -0.3323,0.3323 -0.5686,-0.2583 -0.5252,-1.3125 z m 71.07893,-1.4166 c 0,-1.375 0.22698,-1.9375 0.50439,-1.25 0.27741,0.6875 0.27741,1.8125 0,2.5 -0.27741,0.6875 -0.50439,0.125 -0.50439,-1.25 z m -439.96293,-1.5 c 0.02,-1.65 0.2445,-2.204 0.498,-1.231 0.2536,0.973 0.2369,2.323 -0.037,3 -0.2739,0.677 -0.4814,-0.119 -0.461,-1.769 z m 0.884,-9.0834 c 0.048,-1.1649 0.2849,-1.4019 0.6042,-0.6041 0.2888,0.7218 0.2533,1.5843 -0.079,1.9166 -0.3323,0.3323 -0.5686,-0.2583 -0.5252,-1.3125 z m 1242.39213,-73.9166 c 1.2e-4,-35.2 0.12545,-49.4549 0.27851,-31.6776 0.15306,17.7773 0.15297,46.5773 -2.1e-4,64 -0.15318,17.4227 -0.27841,2.8776 -0.2783,-32.3224 z m -76.27614,13 c 0.0204,-1.65 0.2445,-2.204 0.49804,-1.231 0.25354,0.973 0.23687,2.323 -0.0371,3 -0.27393,0.677 -0.48137,-0.119 -0.46099,-1.769 z m -1063.19499,-7.8776 c 0,-0.2076 0.7875,-0.9951 1.75,-1.75 1.5861,-1.2439 1.6215,-1.2085 0.3776,0.3776 -1.3064,1.6657 -2.1276,2.1954 -2.1276,1.3724 z m 227.8725,-1.3724 c -1.2439,-1.5861 -1.2085,-1.6215 0.3775,-0.3776 0.9625,0.7549 1.75,1.5424 1.75,1.75 0,0.823 -0.8211,0.2933 -2.1275,-1.3724 z m -214.8725,-11.6276 c 0,-0.2076 0.7875,-0.9951 1.75,-1.75 1.5861,-1.2439 1.6215,-1.2085 0.3776,0.3776 -1.3064,1.6657 -2.1276,2.1954 -2.1276,1.3724 z m 201.8725,-1.3724 c -1.2439,-1.5861 -1.2085,-1.6215 0.3775,-0.3776 1.6658,1.3064 2.1955,2.1276 1.3725,2.1276 -0.2077,0 -0.9952,-0.7875 -1.75,-1.75 z m -263.3725,-36.25 c 0.9955,-1.1 2.035,-2 2.31,-2 0.275,0 -0.3145,0.9 -1.31,2 -0.9954,1.1 -2.0349,2 -2.3099,2 -0.275,0 0.3145,-0.9 1.3099,-2 z m 144.3125,-0.6831 c 0.7219,-0.2889 1.5844,-0.2534 1.9167,0.079 0.3323,0.3323 -0.2583,0.5686 -1.3125,0.5252 -1.1649,-0.048 -1.4019,-0.2849 -0.6042,-0.6041 z m 37,0 c 0.7219,-0.2889 1.5844,-0.2534 1.9167,0.079 0.3323,0.3323 -0.2583,0.5686 -1.3125,0.5252 -1.1649,-0.048 -1.4019,-0.2849 -0.6042,-0.6041 z m -22.5625,-1.052 c 2.6125,-0.206 6.8875,-0.206 9.5,0 2.6125,0.206 0.475,0.3746 -4.75,0.3746 -5.225,0 -7.3625,-0.1686 -4.75,-0.3746 z m 827.94499,-3.7649 c 0.0204,-1.65 0.2445,-2.204 0.49804,-1.231 0.25354,0.973 0.23687,2.323 -0.0371,3 -0.27393,0.677 -0.48137,-0.119 -0.46099,-1.769 z m -970.19499,-10.8776 c 0,-0.2076 0.7875,-0.9951 1.75,-1.75 1.5861,-1.2439 1.6215,-1.2085 0.3776,0.3776 -1.3064,1.6657 -2.1276,2.1954 -2.1276,1.3724 z m 749.00004,-20 c 0,-0.2076 0.7875,-0.9951 1.75,-1.75 1.58605,-1.2439 1.62142,-1.2085 0.37755,0.3776 -1.30637,1.6657 -2.12755,2.1954 -2.12755,1.3724 z m 422.43772,-46.1224 c -5.4e-4,-14.85 0.13863,-21.0644 0.30926,-13.8098 0.17063,7.2546 0.17107,19.4046 9.7e-4,27 -0.17009,7.5954 -0.3097,1.6598 -0.31023,-13.1902 z m -1046.68776,10.8377 c 0.6875,-0.2774 1.8125,-0.2774 2.5,0 0.6875,0.2774 0.125,0.5044 -1.25,0.5044 -1.375,0 -1.9375,-0.227 -1.25,-0.5044 z m 797.00004,-1.0847 c 6.7375,-0.173 17.7625,-0.173 24.5,0 6.7375,0.173 1.225,0.3145 -12.25,0.3145 -13.475,0 -18.9875,-0.1415 -12.25,-0.3145 z m -752.75004,-28.6306 c 0,-0.2076 0.7875,-0.9951 1.75,-1.75 1.5861,-1.2439 1.6215,-1.2085 0.3776,0.3776 -1.3064,1.6657 -2.1276,2.1954 -2.1276,1.3724 z"
         id="path7" /><path
         style="fill:#ffffff;fill-opacity:1"
         d="m -1201.2631,-1617.6066 c 0.6875,-0.2774 1.8125,-0.2774 2.5,0 0.6875,0.2774 0.125,0.5044 -1.25,0.5044 -1.375,0 -1.9375,-0.227 -1.25,-0.5044 z m 31,0 c 0.6875,-0.2774 1.8125,-0.2774 2.5,0 0.6875,0.2774 0.125,0.5044 -1.25,0.5044 -1.375,0 -1.9375,-0.227 -1.25,-0.5044 z m -40.9375,-1.0208 c 0.7219,-0.2889 1.5844,-0.2534 1.9167,0.079 0.3323,0.3323 -0.2583,0.5686 -1.3125,0.5252 -1.1649,-0.048 -1.4019,-0.2849 -0.6042,-0.6041 z m 169.1875,-50.6945 c 0,-0.2076 0.7875,-0.9951 1.75,-1.75 1.5861,-1.2439 1.6215,-1.2085 0.3776,0.3776 -1.3064,1.6657 -2.1276,2.1954 -2.1276,1.3724 z m 12.5,-11.6224 c 2.1483,-2.2 4.1309,-4 4.4059,-4 0.275,0 -1.2576,1.8 -3.4059,4 -2.1482,2.2 -4.1309,4 -4.4059,4 -0.275,0 1.2577,-1.8 3.4059,-4 z m -312.047,-1.25 -3.953,-4.25 4.25,3.9529 c 3.9525,3.6762 4.7096,4.5471 3.953,4.5471 -0.1634,0 -2.0759,-1.9125 -4.25,-4.25 z m 141.297,-3.4123 c 0.6875,-0.2774 1.8125,-0.2774 2.5,0 0.6875,0.2774 0.125,0.5044 -1.25,0.5044 -1.375,0 -1.9375,-0.227 -1.25,-0.5044 z m 26,0 c 0.6875,-0.2774 1.8125,-0.2774 2.5,0 0.6875,0.2774 0.125,0.5044 -1.25,0.5044 -1.375,0 -1.9375,-0.227 -1.25,-0.5044 z m -178.8775,-9.0877 c -1.2439,-1.5861 -1.2085,-1.6215 0.3775,-0.3776 0.9625,0.7549 1.75,1.5424 1.75,1.75 0,0.823 -0.8211,0.2933 -2.1275,-1.3724 z m 274.0857,-34.5 c 4.144,-4.4152 5.0418,-5.2091 5.0418,-4.4582 0,0.1604 -2.1375,2.2979 -4.75,4.75 l -4.75,4.4582 z m -215.5052,-1 -3.953,-4.25 4.25,3.9529 c 3.9525,3.6762 4.7096,4.5471 3.953,4.5471 -0.1634,0 -2.0759,-1.9125 -4.25,-4.25 z m 12.9984,-36.25 c -3e-4,-19.8 0.1333,-28.0418 0.2968,-18.315 0.1636,9.7268 0.1639,25.9268 6e-4,36 -0.1632,10.0732 -0.297,2.115 -0.2974,-17.685 z m -55.3724,-49.0834 c 0.048,-1.1649 0.2849,-1.4019 0.6042,-0.6041 0.2888,0.7218 0.2533,1.5843 -0.079,1.9166 -0.3323,0.3323 -0.5686,-0.2583 -0.5252,-1.3125 z m -67.9211,-5.4166 c 0,-1.375 0.227,-1.9375 0.5044,-1.25 0.2774,0.6875 0.2774,1.8125 0,2.5 -0.2774,0.6875 -0.5044,0.125 -0.5044,-1.25 z m 440.00003,-1 c 0,-1.375 0.22698,-1.9375 0.50439,-1.25 0.27741,0.6875 0.27741,1.8125 0,2.5 -0.27741,0.6875 -0.50439,0.125 -0.50439,-1.25 z m -373.00003,-3 c 0,-1.375 0.227,-1.9375 0.5044,-1.25 0.2774,0.6875 0.2774,1.8125 0,2.5 -0.2774,0.6875 -0.5044,0.125 -0.5044,-1.25 z m 303,0 c 0,-1.375 0.227,-1.9375 0.5044,-1.25 0.2774,0.6875 0.2774,1.8125 0,2.5 -0.2774,0.6875 -0.5044,0.125 -0.5044,-1.25 z m -303,-24 c 0,-1.375 0.227,-1.9375 0.5044,-1.25 0.2774,0.6875 0.2774,1.8125 0,2.5 -0.2774,0.6875 -0.5044,0.125 -0.5044,-1.25 z m 303,0 c 0,-1.375 0.227,-1.9375 0.5044,-1.25 0.2774,0.6875 0.2774,1.8125 0,2.5 -0.2774,0.6875 -0.5044,0.125 -0.5044,-1.25 z m -150.4079,-1.7484 c 9.4875,-0.1644 25.0125,-0.1644 34.5,0 9.4875,0.1643 1.725,0.2988 -17.25,0.2988 -18.975,0 -26.7375,-0.1345 -17.25,-0.2988 z m 220.40793,-2.2516 c 0,-1.375 0.22698,-1.9375 0.50439,-1.25 0.27741,0.6875 0.27741,1.8125 0,2.5 -0.27741,0.6875 -0.50439,0.125 -0.50439,-1.25 z m -440.00003,-1 c 0,-1.375 0.227,-1.9375 0.5044,-1.25 0.2774,0.6875 0.2774,1.8125 0,2.5 -0.2774,0.6875 -0.5044,0.125 -0.5044,-1.25 z m 438.92109,-9.5834 c 0.048,-1.1649 0.28494,-1.4019 0.60416,-0.6041 0.28887,0.7218 0.25335,1.5843 -0.0789,1.9166 -0.3323,0.3323 -0.56865,-0.2583 -0.52522,-1.3125 z m -437.99999,-1 c 0.048,-1.1649 0.2849,-1.4019 0.6042,-0.6041 0.2888,0.7218 0.2533,1.5843 -0.079,1.9166 -0.3323,0.3323 -0.5686,-0.2583 -0.5252,-1.3125 z m 290.3795,-53.9166 c 3e-4,-23.65 0.1311,-33.1821 0.2907,-21.1824 0.1596,11.9997 0.1594,31.3497 -4e-4,43 -0.1599,11.6503 -0.2905,1.8324 -0.2903,-21.8176 z m -190.4585,-14.8776 c 0,-0.2076 0.7875,-0.9951 1.75,-1.75 1.5861,-1.2439 1.6215,-1.2085 0.3776,0.3776 -1.3064,1.6657 -2.1276,2.1954 -2.1276,1.3724 z m 233.8725,-1.3724 c -1.2439,-1.5861 -1.2085,-1.6215 0.3775,-0.3776 1.6658,1.3064 2.1955,2.1276 1.3725,2.1276 -0.2077,0 -0.9952,-0.7875 -1.75,-1.75 z m -8.9481,-10 -2.4244,-2.75 2.75,2.4243 c 1.5125,1.3334 2.75,2.5709 2.75,2.75 0,0.7843 -0.8098,0.146 -3.0756,-2.4243 z m -215.9244,1.3724 c 0,-0.2076 0.7875,-0.9951 1.75,-1.75 1.5861,-1.2439 1.6215,-1.2085 0.3776,0.3776 -1.3064,1.6657 -2.1276,2.1954 -2.1276,1.3724 z m 10,-9 c 0,-0.2076 0.7875,-0.9951 1.75,-1.75 1.5861,-1.2439 1.6215,-1.2085 0.3776,0.3776 -1.3064,1.6657 -2.1276,2.1954 -2.1276,1.3724 z m 195.8725,-1.3724 c -1.2439,-1.5861 -1.2085,-1.6215 0.3775,-0.3776 1.6658,1.3064 2.1955,2.1276 1.3725,2.1276 -0.2077,0 -0.9952,-0.7875 -1.75,-1.75 z m -264.8725,-27.6276 c 0,-0.2076 0.7875,-0.9951 1.75,-1.75 1.5861,-1.2439 1.6215,-1.2085 0.3776,0.3776 -1.3064,1.6657 -2.1276,2.1954 -2.1276,1.3724 z m 195,-5.3357 c 0.825,-0.3054 2.175,-1.0574 3,-1.671 1.3035,-0.9695 1.3202,-0.8864 0.1276,0.6343 -0.7549,0.9625 -2.1049,1.7144 -3,1.671 -1.3615,-0.066 -1.3823,-0.1697 -0.1276,-0.6343 z m -39.25,-1.949 c 0.6875,-0.2774 1.8125,-0.2774 2.5,0 0.6875,0.2774 0.125,0.5044 -1.25,0.5044 -1.375,0 -1.9375,-0.227 -1.25,-0.5044 z m 22,0 c 0.6875,-0.2774 1.8125,-0.2774 2.5,0 0.6875,0.2774 0.125,0.5044 -1.25,0.5044 -1.375,0 -1.9375,-0.227 -1.25,-0.5044 z m -164.25,-7.3377 c 3.8205,-3.85 7.1714,-7 7.4464,-7 0.275,0 -2.6259,3.15 -6.4464,7 -3.8205,3.85 -7.1713,7 -7.4463,7 -0.275,0 2.6258,-3.15 6.4463,-7 z m 126.3125,-61.6831 c 0.7219,-0.2889 1.5844,-0.2534 1.9167,0.079 0.3323,0.3323 -0.2583,0.5686 -1.3125,0.5252 -1.1649,-0.048 -1.4019,-0.2849 -0.6042,-0.6041 z m 9.9375,-0.9792 c 0.6875,-0.2774 1.8125,-0.2774 2.5,0 0.6875,0.2774 0.125,0.5044 -1.25,0.5044 -1.375,0 -1.9375,-0.227 -1.25,-0.5044 z m 16.25,-0.7153 c 0,-0.2076 0.7875,-0.9951 1.75,-1.75 1.5861,-1.2439 1.6215,-1.2085 0.3776,0.3776 -1.3064,1.6657 -2.1276,2.1954 -2.1276,1.3724 z m 16,-19 c 0,-0.2076 0.7875,-0.9951 1.75,-1.75 1.5861,-1.2439 1.6215,-1.2085 0.3776,0.3776 -1.3064,1.6657 -2.1276,2.1954 -2.1276,1.3724 z m 5,-6 c 0,-0.2076 0.7875,-0.9951 1.75,-1.75 1.5861,-1.2439 1.6215,-1.2085 0.3776,0.3776 -1.3064,1.6657 -2.1276,2.1954 -2.1276,1.3724 z m 161.8725,-11.8724 c 1.2745,-1.6252 4.4487,-1.733 44.49998,-1.5111 l 43.12756,0.239 -42.91062,0.2719 c -32.25707,0.2044 -43.30522,0.5795 -44.50002,1.511 -1.4056,1.0959 -1.4307,1.0369 -0.2169,-0.5108 z m -129.1225,-1.499 c 12.2375,-0.1591 32.2625,-0.1591 44.5,0 12.2375,0.1591 2.225,0.2892 -22.25,0.2892 -24.475,0 -34.4875,-0.1301 -22.25,-0.2892 z"
         id="path6" /><path
         style="fill:#ffffff;fill-opacity:1"
         d="m -527.76306,-1872.6337 c 0.9625,-0.2515 2.5375,-0.2515 3.5,0 0.9625,0.2516 0.175,0.4574 -1.75,0.4574 -1.925,0 -2.7125,-0.2058 -1.75,-0.4574 z m 11,0 c 0.9625,-0.2515 2.5375,-0.2515 3.5,0 0.9625,0.2516 0.175,0.4574 -1.75,0.4574 -1.925,0 -2.7125,-0.2058 -1.75,-0.4574 z m 204.5625,0.01 c 0.72187,-0.2889 1.58437,-0.2534 1.91667,0.079 0.33229,0.3323 -0.25834,0.5686 -1.3125,0.5252 -1.16495,-0.048 -1.4019,-0.2849 -0.60417,-0.6041 z m 12.45653,-0.01 c 0.97297,-0.2536 2.32297,-0.2369 3,0.037 0.67703,0.274 -0.11903,0.4814 -1.76903,0.461 -1.65,-0.02 -2.20394,-0.2445 -1.23097,-0.498 z m 88.97338,-68.0221 -0.24241,-64.215 -10.25,-0.3241 -10.25,-0.324 10.28138,-0.2109 c 7.46505,-0.1532 10.41227,0.1315 10.75918,1.0391 0.26279,0.6875 0.35775,29.825 0.21103,64.75 l -0.26677,63.5 z m -693.75985,-46.2849 c 0,-60.225 0.12027,-84.8625 0.26726,-54.75 0.14699,30.1125 0.14699,79.3875 0,109.5 -0.14699,30.1125 -0.26726,5.475 -0.26726,-54.75 z m 647.51744,98.6224 c 0,-0.2076 0.7875,-0.9951 1.75,-1.75 1.58605,-1.2439 1.62142,-1.2085 0.37755,0.3776 -1.30637,1.6657 -2.12755,2.1954 -2.12755,1.3724 z m 5.5,-5.6224 c 0.99548,-1.1 2.03497,-2 2.30997,-2 0.275,0 -0.31449,0.9 -1.30997,2 -0.99549,1.1 -2.03498,2 -2.30998,2 -0.275,0 0.31449,-0.9 1.30998,-2 z m -206.5,-2.5 c 1.29174,-1.375 2.57363,-2.5 2.84863,-2.5 0.275,0 -0.55689,1.125 -1.84863,2.5 -1.29175,1.375 -2.57363,2.5 -2.84863,2.5 -0.275,0 0.55688,-1.125 1.84863,-2.5 z m 154.75,-13.1623 c 0.6875,-0.2774 1.8125,-0.2774 2.5,0 0.6875,0.2774 0.125,0.5044 -1.25,0.5044 -1.375,0 -1.9375,-0.227 -1.25,-0.5044 z m -218,-9 c 0.6875,-0.2774 1.8125,-0.2774 2.5,0 0.6875,0.2774 0.125,0.5044 -1.25,0.5044 -1.375,0 -1.9375,-0.227 -1.25,-0.5044 z m 156.12198,-7.6121 c 0.42721,-0.4259 8.61829,-0.6498 18.20239,-0.4975 l 17.42563,0.2768 -18.20239,0.4975 c -10.01131,0.2737 -17.85285,0.1491 -17.42563,-0.2768 z m -128.37198,-3.7256 c 0.99548,-1.1 2.03497,-2 2.30997,-2 0.275,0 -0.31449,0.9 -1.30997,2 -0.99549,1.1 -2.03498,2 -2.30998,2 -0.275,0 0.31449,-0.9 1.30998,-2 z m 202.37244,-2.75 c -1.24387,-1.5861 -1.2085,-1.6215 0.37756,-0.3776 1.66575,1.3064 2.19548,2.1276 1.37244,2.1276 -0.20765,0 -0.99515,-0.7875 -1.75,-1.75 z m -140.53624,-27.25 c 0,-4.125 0.17652,-5.8125 0.39227,-3.75 0.21574,2.0625 0.21574,5.4375 0,7.5 -0.21575,2.0625 -0.39227,0.375 -0.39227,-3.75 z m -128.25725,4.4166 c 0.048,-1.1649 0.28494,-1.4019 0.60416,-0.6041 0.28887,0.7218 0.25335,1.5843 -0.0789,1.9166 -0.3323,0.3323 -0.56865,-0.2583 -0.52522,-1.3125 z m -49.92106,-4.4166 c 0,-1.375 0.22698,-1.9375 0.50439,-1.25 0.27741,0.6875 0.27741,1.8125 0,2.5 -0.27741,0.6875 -0.50439,0.125 -0.50439,-1.25 z m 359.2471,-1.25 -1.90499,-2.25 2.25,1.905 c 2.11444,1.7902 2.70524,2.595 1.90499,2.595 -0.18976,0 -1.20226,-1.0125 -2.25,-2.25 z m -309.32604,-3.3334 c 0.048,-1.1649 0.28494,-1.4019 0.60416,-0.6041 0.28887,0.7218 0.25335,1.5843 -0.0789,1.9166 -0.3323,0.3323 -0.56865,-0.2583 -0.52522,-1.3125 z m -57.80659,-19.4166 c 0,-2.475 0.19502,-3.4875 0.43337,-2.25 0.23835,1.2375 0.23835,3.2625 0,4.5 -0.23835,1.2375 -0.43337,0.225 -0.43337,-2.25 z m 69.22764,-6 c 0.99548,-1.1 2.03497,-2 2.30997,-2 0.275,0 -0.31449,0.9 -1.30997,2 -0.99549,1.1 -2.03498,2 -2.30998,2 -0.275,0 0.31449,-0.9 1.30998,-2 z m 53.37244,-1.75 c -1.24387,-1.5861 -1.2085,-1.6215 0.37756,-0.3776 1.66575,1.3064 2.19548,2.1276 1.37244,2.1276 -0.20765,0 -0.99515,-0.7875 -1.75,-1.75 z m -217.87244,0.3724 c 0,-0.2076 0.7875,-0.9951 1.75,-1.75 1.58605,-1.2439 1.62142,-1.2085 0.37755,0.3776 -1.30637,1.6657 -2.12755,2.1954 -2.12755,1.3724 z m 18.75,-8.3282 c 1.2375,-0.2383 3.2625,-0.2383 4.5,0 1.2375,0.2384 0.225,0.4334 -2.25,0.4334 -2.475,0 -3.4875,-0.195 -2.25,-0.4334 z m 171.51375,-2.0118 c 1.52006,-0.2299 3.77006,-0.2237 5,0.014 1.22994,0.2374 -0.0137,0.4255 -2.76375,0.4179 -2.75,-0.01 -3.75631,-0.2017 -2.23625,-0.4315 z m 370.98625,-4.0105 10.75,-0.3396 v -17.9312 -17.9312 l -9.75,-0.3374 -9.75,-0.3374 10,0.052 10,0.052 v 18.5 18.5 l -11,0.056 -11,0.056 z m -159.75,-2.2719 c 0.99548,-1.1 2.03497,-2 2.30997,-2 0.275,0 -0.31449,0.9 -1.30997,2 -0.99549,1.1 -2.03498,2 -2.30998,2 -0.275,0 0.31449,-0.9 1.30998,-2 z m 19.90499,-0.25 -1.90499,-2.25 2.25,1.905 c 2.11444,1.7902 2.70524,2.595 1.90499,2.595 -0.18976,0 -1.20226,-1.0125 -2.25,-2.25 z m -165.95204,-15 -3.95295,-4.25 4.25,3.9529 c 3.95246,3.6762 4.70952,4.5471 3.95295,4.5471 -0.16338,0 -2.07588,-1.9125 -4.25,-4.25 z m -262.99984,-36.75 c 0,-20.625 0.13298,-29.0625 0.29551,-18.75 0.16253,10.3125 0.16253,27.1875 0,37.5 -0.16253,10.3125 -0.29551,1.875 -0.29551,-18.75 z m 370.54689,33.6871 c 0,-0.1721 1.4625,-1.6346 3.25,-3.25 l 3.25,-2.9371 -2.93709,3.25 c -2.73778,3.0294 -3.56291,3.7096 -3.56291,2.9371 z m -60.69179,-16.4348 c 7.04452,-0.1721 18.29452,-0.1716 25,0 6.70549,0.1728 0.94179,0.3136 -12.80821,0.313 -13.75,-6e-4 -19.2363,-0.1419 -12.19179,-0.3141 z m 188.92578,0.02 10.73399,-0.3395 0.29057,-26.9667 0.29057,-26.9668 -0.0246,27.2505 -0.0246,27.2504 -11,0.056 -11,0.056 z m -455.42149,-2.9552 c 0.72187,-0.2889 1.58437,-0.2534 1.91667,0.079 0.33229,0.3323 -0.25834,0.5686 -1.3125,0.5252 -1.16495,-0.048 -1.4019,-0.2849 -0.60417,-0.6041 z m 146.9375,-1.9792 c 0.6875,-0.2774 1.8125,-0.2774 2.5,0 0.6875,0.2774 0.125,0.5044 -1.25,0.5044 -1.375,0 -1.9375,-0.227 -1.25,-0.5044 z m 17.51903,-0.031 c 0.97297,-0.2536 2.32297,-0.2369 3,0.037 0.67703,0.274 -0.11903,0.4814 -1.76903,0.461 -1.65,-0.02 -2.20394,-0.2445 -1.23097,-0.498 z m 211,0 c 0.97297,-0.2536 2.32297,-0.2369 3,0.037 0.67703,0.274 -0.11903,0.4814 -1.76903,0.461 -1.65,-0.02 -2.20394,-0.2445 -1.23097,-0.498 z"
         id="path5" /><path
         style="fill:#ffffff;fill-opacity:1"
         d="m -1201.5131,-1617.5566 c -54.957,-5.799 -98.7998,-25.5943 -135.7921,-61.3107 -81.5133,-78.7018 -90.4408,-205.8517 -20.8235,-296.577 6.4397,-8.3923 25.1977,-27.6012 33.9401,-34.7559 35.253,-28.8509 78.6272,-45.5249 125.8019,-48.3609 l 11.1264,-0.6689 15.7881,-18.8572 15.7881,-18.8571 h 43.4019 43.4018 l -4.5242,5.75 c -2.4883,3.1625 -22.2367,27.8 -43.8852,54.75 l -39.361,49 -4.4311,-0.2573 c -2.4371,-0.1414 -13.4312,-0.3443 -24.4312,-0.4508 -22.6403,-0.2192 -31.4291,1.1327 -50.6477,7.7906 -28.4696,9.8628 -55.6121,30.1375 -73.2528,54.7178 -7.4705,10.4092 -17.3354,29.5223 -21.0067,40.6997 -5.5934,17.0297 -7.0222,26.9614 -6.9774,48.5 0.035,16.6721 0.3998,21.625 2.1938,29.766 13.4111,60.8572 57.9179,105.393 118.8504,118.9279 8.3348,1.8514 12.9771,2.1889 30.3404,2.2058 22.5148,0.022 30.6387,-1.1947 48.9546,-7.3311 44.0704,-14.765 80.6057,-51.5484 95.4203,-96.0686 5.5127,-16.5665 7.0377,-26.9676 7.0377,-48 0,-16.5266 -0.3463,-21.1011 -2.271,-30 -8.5768,-39.6552 -30.7699,-73.1124 -63.2269,-95.3178 l -7.8429,-5.3657 51.7927,-64.4083 51.7927,-64.4082 43.30066,-0.2608 43.30067,-0.2607 -3.44902,4.2607 c -5.401,6.6721 -89.34881,115.1185 -90.14171,116.4479 -0.4021,0.6742 1.8228,4.9956 5.1485,10 21.52864,32.3955 34.53079,64.3881 39.93544,98.2635 2.36102,14.7984 2.3051,47.5818 -0.10668,62.5494 -3.93357,24.4118 -9.92126,43.517 -20.1696,64.3561 -21.81826,44.3655 -55.56276,78.5985 -98.93456,100.3667 -30.6734,15.3949 -59.5346,22.5217 -94.0409,23.2218 -9.9,0.2008 -19.8,0.1752 -22,-0.057 z m -79.5,-148.8877 v -35.5 l 64.75,-0.064 64.75,-0.064 19,-24.4281 19,-24.428 0.261,42.1204 0.2609,42.1204 -14.2609,17.8115 -14.261,17.8115 -69.75,0.06 -69.75,0.06 z m 87.2299,-94.75 c 4.614,-5.6375 24.0699,-29.825 43.2352,-53.75 19.1654,-23.925 35.2261,-43.9275 35.6905,-44.45 0.4645,-0.5225 0.8392,18.1525 0.8327,41.5 l -0.012,42.45 -9.6265,12.25 -9.6266,12.25 h -34.4414 -34.4414 z"
         id="path4" /><path
         style="fill:#ffffff;fill-opacity:1"
         d="m -521.74403,-1872.6373 c 0.97297,-0.2536 2.32297,-0.2369 3,0.037 0.67703,0.274 -0.11903,0.4814 -1.76903,0.461 -1.65,-0.02 -2.20394,-0.2445 -1.23097,-0.498 z m 213.99472,-0.025 c 1.52006,-0.2299 3.77006,-0.2237 5,0.014 1.22994,0.2374 -0.0138,0.4255 -2.76375,0.4179 -2.75,-0.01 -3.75631,-0.2017 -2.23625,-0.4315 z m -536.03151,-5.0284 60.73224,-0.2695 0.29556,-24.2423 0.29556,-24.2422 -0.0278,24.5 -0.0278,24.5 -61,0.012 -61,0.012 z m 76.22882,-0.504 c -0.26189,-0.6875 -0.36026,-50.075 -0.21861,-109.75 l 0.25755,-108.5 23.25054,-0.028 23.25055,-0.028 -23.00055,0.2967 -23.00054,0.2967 v 108.9638 108.9638 l 24.25,0.2864 24.25,0.2864 -24.28139,0.2314 c -18.6776,0.178 -24.39127,-0.057 -24.75755,-1.0186 z m 125.52936,0.5094 23.99144,-0.295 0.27282,-50.9823 0.27283,-50.9824 -0.0137,51.2501 -0.0138,51.2502 -24.25051,0.027 -24.2505,0.027 z m 243.00327,0 23.99469,-0.295 0.26463,-82.2322 0.26464,-82.2322 -0.009,82.5 -0.009,82.5 -24.25051,0.027 -24.2505,0.027 z m 200.75631,-0.01 c 6.7375,-0.173 17.7625,-0.173 24.5,0 6.7375,0.173 1.225,0.3145 -12.25,0.3145 -13.475,0 -18.9875,-0.1415 -12.25,-0.3145 z m -151.31291,-11.503 -2.93709,-3.25 3.25,2.9371 c 3.02945,2.7377 3.70965,3.5629 2.93709,3.5629 -0.1721,0 -1.6346,-1.4625 -3.25,-3.25 z m -230.56465,-4.5 c -1.24387,-1.5861 -1.2085,-1.6215 0.37756,-0.3776 0.9625,0.7549 1.75,1.5424 1.75,1.75 0,0.823 -0.82119,0.2933 -2.12756,-1.3724 z m -7,-7 c -1.24387,-1.5861 -1.2085,-1.6215 0.37756,-0.3776 1.66575,1.3064 2.19548,2.1276 1.37244,2.1276 -0.20765,0 -0.99515,-0.7875 -1.75,-1.75 z m 62.94006,-17.9331 c 0.72187,-0.2889 1.58437,-0.2534 1.91667,0.079 0.33229,0.3323 -0.25834,0.5686 -1.3125,0.5252 -1.16495,-0.048 -1.4019,-0.2849 -0.60417,-0.6041 z m 7,0 c 0.72187,-0.2889 1.58437,-0.2534 1.91667,0.079 0.33229,0.3323 -0.25834,0.5686 -1.3125,0.5252 -1.16495,-0.048 -1.4019,-0.2849 -0.60417,-0.6041 z m 230.26645,-5.9003 c 0.048,-1.1649 0.28494,-1.4019 0.60416,-0.6041 0.28887,0.7218 0.25335,1.5843 -0.0789,1.9166 -0.3323,0.3323 -0.56865,-0.2583 -0.52522,-1.3125 z m -40.8152,-2.1342 c 1.52006,-0.2299 3.77006,-0.2237 5,0.014 1.22994,0.2374 -0.0138,0.4255 -2.76375,0.4179 -2.75,-0.01 -3.75631,-0.2017 -2.23625,-0.4315 z m -220.82666,-3.5324 -2.93709,-3.25 3.25,2.9371 c 1.7875,1.6154 3.25,3.0779 3.25,3.25 0,0.7725 -0.82513,0.092 -3.56291,-2.9371 z m 198.9679,-29 -1.90499,-2.25 2.25,1.905 c 2.11444,1.7902 2.70524,2.595 1.90499,2.595 -0.18976,0 -1.20226,-1.0125 -2.25,-2.25 z m -269.32604,-34.3334 c 0.048,-1.1649 0.28494,-1.4019 0.60416,-0.6041 0.28887,0.7218 0.25335,1.5843 -0.0789,1.9166 -0.3323,0.3323 -0.56865,-0.2583 -0.52522,-1.3125 z m 303.07894,-4.4166 c 0,-1.375 0.22698,-1.9375 0.50439,-1.25 0.27741,0.6875 0.27741,1.8125 0,2.5 -0.27741,0.6875 -0.50439,0.125 -0.50439,-1.25 z m 40.59211,1.2535 c 6.1875,-0.1755 16.3125,-0.1755 22.5,0 6.1875,0.1754 1.125,0.319 -11.25,0.319 -12.375,0 -17.4375,-0.1436 -11.25,-0.319 z m 43.66508,-27.2535 c 0,-10.175 0.1485,-14.3375 0.32999,-9.25 0.18149,5.0875 0.18149,13.4125 0,18.5 -0.18149,5.0875 -0.32999,0.925 -0.32999,-9.25 z m -404.01009,-6.25 -1.90499,-2.25 2.25,1.905 c 1.2375,1.0477 2.25,2.0602 2.25,2.25 0,0.8002 -0.8048,0.2094 -2.59501,-1.905 z m 378.0321,-1 -2.93709,-3.25 3.25,2.9371 c 3.02945,2.7377 3.70965,3.5629 2.93709,3.5629 -0.1721,0 -1.6346,-1.4625 -3.25,-3.25 z m -455.43709,-1.25 c 1.29174,-1.375 2.57363,-2.5 2.84863,-2.5 0.275,0 -0.55689,1.125 -1.84863,2.5 -1.29175,1.375 -2.57363,2.5 -2.84863,2.5 -0.275,0 0.55688,-1.125 1.84863,-2.5 z m 188.72769,-15.2218 c 1.77524,-0.2209 4.92524,-0.2245 7,-0.01 2.07477,0.2164 0.62231,0.3972 -3.22769,0.4016 -3.85,0 -5.54754,-0.1727 -3.77231,-0.3936 z m 149.49709,-30.0105 -0.22478,-18.2322 -24.25,-0.2864 -24.25,-0.2864 24.28138,-0.2314 c 19.02548,-0.1813 24.38813,0.047 24.77454,1.0538 0.27123,0.7068 0.35826,9.1443 0.19339,18.75 l -0.29975,17.4649 z m -515.41428,-19.0158 c 7.87078,-0.1692 20.47078,-0.1688 28,9e-4 7.52922,0.1697 1.0895,0.3081 -14.3105,0.3076 -15.4,-5e-4 -21.56028,-0.1394 -13.6895,-0.3085 z m 691.9395,0 c 6.7375,-0.173 17.7625,-0.173 24.5,0 6.7375,0.173 1.225,0.3145 -12.25,0.3145 -13.475,0 -18.9875,-0.1415 -12.25,-0.3145 z"
         id="path3" /><path
         style="fill:#ffffff;fill-opacity:1"
         d="m -719.55103,-1924.9443 c 0,-26.125 0.12919,-36.8125 0.28708,-23.75 0.1579,13.0625 0.1579,34.4375 0,47.5 -0.15789,13.0625 -0.28708,2.375 -0.28708,-23.75 z m 53.99927,1 c 0,-25.575 0.1295,-36.0375 0.28778,-23.25 0.15828,12.7875 0.15828,33.7125 0,46.5 -0.15828,12.7875 -0.28778,2.325 -0.28778,-23.25 z m 243.0159,-36 c 0,-45.375 0.12262,-63.9375 0.27249,-41.25 0.14987,22.6875 0.14987,59.8125 0,82.5 -0.14987,22.6875 -0.27249,4.125 -0.27249,-41.25 z m -37.9772,65 c 0.99548,-1.1 2.03497,-2 2.30997,-2 0.275,0 -0.31449,0.9 -1.30997,2 -0.99549,1.1 -2.03498,2 -2.30998,2 -0.275,0 0.31449,-0.9 1.30998,-2 z m -123.09501,-2.25 -1.90499,-2.25 2.25,1.905 c 2.11444,1.7902 2.70524,2.595 1.90499,2.595 -0.18976,0 -1.20226,-1.0125 -2.25,-2.25 z m 127.59501,-2.1276 c 0,-0.2076 0.7875,-0.9951 1.75,-1.75 1.58605,-1.2439 1.62142,-1.2085 0.37755,0.3776 -1.30637,1.6657 -2.12755,2.1954 -2.12755,1.3724 z m -393.5396,-26.8724 c -0.26225,-0.6875 -0.35804,-39.275 -0.21286,-85.75 l 0.26397,-84.5 0.24424,85.2365 0.24425,85.2365 33.25,0.2774 33.25,0.2775 -33.28139,0.236 c -25.88007,0.1836 -33.38742,-0.042 -33.75821,-1.0139 z m 368.7716,-33.75 c 0,-1.925 0.2058,-2.7125 0.45732,-1.75 0.25153,0.9625 0.25153,2.5375 0,3.5 -0.25152,0.9625 -0.45732,0.175 -0.45732,-1.75 z m 226.64044,-3.75 c -1.24387,-1.5861 -1.2085,-1.6215 0.37756,-0.3776 0.9625,0.7549 1.75,1.5424 1.75,1.75 0,0.823 -0.82119,0.2933 -2.12756,-1.3724 z m -239,-27 c -1.24387,-1.5861 -1.2085,-1.6215 0.37756,-0.3776 1.66575,1.3064 2.19548,2.1276 1.37244,2.1276 -0.20765,0 -0.99515,-0.7875 -1.75,-1.75 z m 39,-28 c -1.24387,-1.5861 -1.2085,-1.6215 0.37756,-0.3776 1.66575,1.3064 2.19548,2.1276 1.37244,2.1276 -0.20765,0 -0.99515,-0.7875 -1.75,-1.75 z m -129.37244,-4.25 c 2.14824,-2.2 4.13089,-4 4.40589,-4 0.275,0 -1.25765,1.8 -3.40589,4 -2.14824,2.2 -4.1309,4 -4.4059,4 -0.275,0 1.25766,-1.8 3.4059,-4 z m 160.91508,-55 c 0,-10.175 0.1485,-14.3375 0.32999,-9.25 0.18149,5.0875 0.18149,13.4125 0,18.5 -0.18149,5.0875 -0.32999,0.925 -0.32999,-9.25 z"
         id="path2" /><path
         style="fill:#ffffff;fill-opacity:1"
         d="m -538.51306,-1874.4047 c -22.93052,-4.1928 -42.30773,-16.8719 -54.94769,-35.9541 -15.81425,-23.8743 -19.39894,-50.9549 -10.36528,-78.3047 7.08532,-21.4511 22.59465,-39.5601 42.5055,-49.6301 19.0928,-9.6563 49.78266,-11.4729 71.13078,-4.2103 27.62336,9.3974 47.29189,30.7427 55.34146,60.0596 3.08775,11.2456 3.10938,33.4597 0.0435,44.6984 -9.19488,33.7063 -34.68721,57.5152 -67.75615,63.282 -10.36943,1.8082 -26.24326,1.8344 -35.95213,0.059 z m 32.78458,-46.4988 c 7.88343,-3.0124 16.76504,-11.34 20.67175,-19.3822 10.57704,-21.7735 1.96465,-48.1634 -18.95347,-58.0768 -5.91547,-2.8035 -7.40614,-3.0818 -16.50286,-3.0818 -8.75678,0 -10.71088,0.3332 -15.71807,2.68 -15.10725,7.0808 -23.78193,21.3184 -23.78193,39.033 0,29.6862 27.23278,49.1648 54.28458,38.8278 z m 184.71542,46.3991 c -23.23952,-5.0093 -39.3695,-22.7033 -43.47454,-47.6899 l -0.61609,-3.75 h 21.91751 21.9175 l 0.61558,3.8496 c 1.59236,9.9581 12.77884,15.462 24.69688,12.1511 5.21099,-1.4476 9.06933,-5.9405 9.6688,-11.259 0.58712,-5.2089 -1.19988,-9.2801 -5.75626,-13.114 -3.01627,-2.5381 -6.12426,-3.6276 -25.96938,-9.1036 -13.29426,-3.6684 -23.21667,-8.8075 -30.20159,-15.6423 -25.36863,-24.8232 -13.52192,-68.9887 22.20159,-82.7695 29.84983,-11.5149 64.01362,-1.8333 76.26677,21.6129 3.89052,7.4445 6.73323,16.0809 6.73323,20.4563 v 2.8185 h -21.5 c -19.48991,0 -21.5,-0.1575 -21.5,-1.6843 0,-3.1903 -3.9636,-9.863 -6.88305,-11.5876 -1.82768,-1.0796 -5.01236,-1.7281 -8.48645,-1.7281 -4.77308,0 -6.05304,0.4321 -9.03465,3.0499 -8.75773,7.6894 -6.31292,20.3848 4.68259,24.3155 2.32186,0.8301 9.29269,2.9099 15.49073,4.6218 35.09924,9.6944 49.63247,23.1494 51.8386,47.9927 2.39564,26.9774 -18.44568,51.0084 -49.81561,57.4398 -9.33603,1.9141 -23.96415,1.9231 -32.79216,0.02 z m -583,-112.4399 v -109 h 26.99438 26.99439 l 0.25561,85.25 0.25562,85.25 33.25,0.2634 33.25,0.2635 v 23.4865 23.4866 h -60.5 -60.5 z m 137,0 v -109 h 22.98783 22.98783 l 0.26217,37.25 0.26217,37.25 4.30789,-5.7857 c 7.42756,-9.9755 16.32712,-14.789 31.40688,-16.9869 9.04695,-1.3186 20.46827,-0.054 30.68924,3.3975 19.10638,6.4523 32.26035,23.7328 35.05972,46.0582 0.60079,4.7914 1.03627,31.0735 1.03627,62.5406 v 54.2763 h -23.42605 -23.42605 l -0.3743,-49.75 c -0.4293,-57.0601 -0.4116,-56.9279 -8.74885,-65.301 -5.57275,-5.5968 -11.20272,-7.4197 -20.79526,-6.7333 -11.15458,0.7981 -18.54883,5.9775 -22.46024,15.7328 -2.18032,5.4378 -2.23281,6.5803 -2.56381,55.8015 l -0.33792,50.25 h -23.43376 -23.43376 z m 345,27 v -82 h 23.5 23.5 v 82 82 h -23.5 -23.5 z m 212,18 v -64 h -10.5 -10.5 v -18 -18 h 10.5 10.5 v -27 -27 h 24 24 v 27 27 h 10.5 10.5 v 18 18 h -10.5 -10.5 v 64 64 h -24 -24 z m -212,-136 v -18 h 23.5 23.5 v 18 18 h -23.5 -23.5 z"
         id="path1" /></g></g></svg>
