<?xml version="1.0" encoding="UTF-8" standalone="no"?>
<!-- Created with Inkscape (http://www.inkscape.org/) -->

<svg
   width="191.39604mm"
   height="50.809399mm"
   viewBox="0 0 723.38663 192.03552"
   version="1.1"
   id="svg1"
   xml:space="preserve"
   xmlns:inkscape="http://www.inkscape.org/namespaces/inkscape"
   xmlns:sodipodi="http://sodipodi.sourceforge.net/DTD/sodipodi-0.dtd"
   xmlns="http://www.w3.org/2000/svg"
   xmlns:svg="http://www.w3.org/2000/svg"><sodipodi:namedview
     id="namedview1"
     pagecolor="#ffffff"
     bordercolor="#000000"
     borderopacity="0.25"
     inkscape:showpageshadow="2"
     inkscape:pageopacity="0.0"
     inkscape:pagecheckerboard="0"
     inkscape:deskcolor="#d1d1d1"
     inkscape:document-units="mm"><inkscape:page
       x="0"
       y="-7.5730647e-29"
       width="723.38666"
       height="192.03552"
       id="page2"
       margin="0"
       bleed="0" /></sodipodi:namedview><defs
     id="defs1" /><g
     inkscape:label="Camada 1"
     inkscape:groupmode="layer"
     id="layer1"
     transform="translate(-31.842048,-236.9173)"><path
       style="fill:#ffffff;fill-opacity:1"
       d="m 80.44532,419.60021 v -9.32489 h 9.32488 9.32488 v 1.27158 1.27157 h -7.77073 -7.77074 v 2.54315 2.54315 h 4.80373 4.80372 v 1.27158 1.27157 h -4.80372 -4.80373 v 2.82572 2.82573 h 7.91202 7.91202 v 1.41286 1.41286 h -9.46617 -9.46616 z m 26.56178,0 v -9.32489 h 1.1366 c 0.91862,0 1.36572,0.2062 2.33122,1.07513 0.65704,0.59132 1.65235,1.44963 2.2118,1.90736 2.94639,2.41069 10.20466,8.63676 11.55728,9.91371 l 1.55415,1.46722 -0.0883,-7.18171 -0.0883,-7.18171 h 1.57178 1.57178 v 9.32489 9.32488 h -0.86456 c -0.95199,0 -1.13897,-0.14764 -11.57166,-9.1374 -0.3902,-0.33624 -1.5982,-1.37429 -2.68443,-2.30678 -1.08623,-0.93248 -2.03965,-1.75901 -2.11871,-1.83671 -0.079,-0.0777 -0.46052,-0.4199 -0.84771,-0.76042 l -0.70398,-0.61913 0.084,7.33022 0.084,7.33022 h -1.56752 -1.56753 z m 34.47381,9.07358 c -2.81282,-0.59502 -2.96701,-1.07391 -2.96701,-9.21487 0,-7.37708 0.18281,-8.2134 1.93377,-8.84655 1.46839,-0.53098 16.84933,-0.46602 18.1481,0.0766 1.08168,0.45196 1.81747,1.76122 1.81747,3.234 0,1.02147 -0.16654,1.13546 -1.97127,1.3492 l -1.41959,0.16813 v -1.31093 -1.31094 h -7.62945 -7.62945 v 6.64045 6.64045 h 7.62945 7.62945 v -2.68444 -2.68444 h -3.95601 -3.95601 v -1.13028 -1.13029 h 5.65144 5.65144 v 3.68251 c 0,4.10688 -0.30257,5.27189 -1.58814,6.11489 -0.70962,0.46533 -1.55855,0.5214 -8.57141,0.56608 -4.28108,0.0273 -8.22883,-0.0445 -8.77278,-0.15961 z m 28.25722,-9.07358 v -9.32489 h 9.46616 9.46617 v 1.27158 1.27157 h -7.77073 -7.77074 v 2.54315 2.54315 h 4.80373 4.80373 v 1.27158 1.27157 h -4.80373 -4.80373 v 2.82572 2.82573 h 7.77074 7.77073 v 1.41286 1.41286 h -9.46617 -9.46616 z m 26.84435,0 v -9.32489 l 1.05965,0.01 c 0.93407,0.009 1.49497,0.3813 4.73308,3.14353 2.0204,1.72347 4.36604,3.72173 5.21254,4.44056 5.38391,4.57193 7.33355,6.2993 7.4583,6.60802 0.0779,0.19272 0.15162,-2.9239 0.16389,-6.92583 l 0.0223,-7.27624 h 1.41286 1.41286 v 9.32489 9.32488 h -0.83732 c -0.67837,0 -2.00599,-1.0017 -6.99366,-5.27677 -3.38599,-2.90222 -7.17366,-6.19146 -8.41704,-7.30941 l -2.26069,-2.03264 0.10156,7.30941 0.10156,7.30941 h -1.58495 -1.58495 z m 31.64809,0 v -9.32489 h 1.69543 1.69544 v 3.81934 3.81934 l 7.5588,-0.0752 7.55881,-0.0753 0.0788,-3.74408 0.0789,-3.74409 h 1.68723 1.68723 v 9.32489 9.32488 h -1.69543 -1.69543 v -4.23858 -4.23859 h -7.62945 -7.62945 v 4.23859 4.23858 h -1.69544 -1.69543 z m 28.34128,9.11295 c 0.0646,-0.11656 0.63077,-1.10203 1.25821,-2.18994 0.62745,-1.0879 1.50401,-2.62383 1.94792,-3.41317 0.44391,-0.78934 2.26942,-3.99686 4.05669,-7.12782 l 3.24958,-5.69265 1.84717,-0.007 1.84718,-0.007 1.11208,1.90737 c 0.61164,1.04905 1.2527,2.16167 1.42458,2.4725 0.17187,0.31083 1.43627,2.47251 2.80978,4.80373 1.3735,2.33122 2.90148,4.93795 3.3955,5.79273 0.49402,0.85478 1.18846,2.03717 1.54321,2.62752 l 0.64499,1.07338 -1.89644,-0.0844 -1.89645,-0.0844 -1.1728,-2.18993 -1.17279,-2.18994 h -6.69628 -6.69627 l -1.22017,2.2603 -1.22017,2.2603 -1.64147,2.8e-4 c -0.9028,1.5e-4 -1.58863,-0.0951 -1.52405,-0.21165 z m 17.43542,-6.98123 c 0,-0.0709 -0.38148,-0.77583 -0.84772,-1.56658 -0.46624,-0.79075 -0.84772,-1.4889 -0.84772,-1.55144 0,-0.0625 -0.42342,-0.85168 -0.94094,-1.75364 -0.51752,-0.90196 -1.29397,-2.25783 -1.72544,-3.01303 l -0.7845,-1.3731 -0.62708,1.09053 c -1.53004,2.66084 -4.3992,7.95502 -4.3992,8.11742 0,0.0983 2.28883,0.17869 5.0863,0.17869 2.79746,0 5.0863,-0.058 5.0863,-0.12885 z m 13.84603,-2.13172 v -9.32489 l 8.83039,10e-4 c 8.25753,9.9e-4 8.88902,0.0368 9.73438,0.55226 0.64869,0.39553 0.99618,0.89355 1.23042,1.76345 0.43824,1.62751 0.23165,6.66298 -0.30782,7.5027 -0.66578,1.03634 -1.98532,1.48342 -4.37826,1.48342 h -2.18367 l 2.22638,1.76012 c 1.22451,0.96806 2.28995,1.83296 2.36766,1.922 0.0777,0.089 1.08562,0.91825 2.23981,1.84268 l 2.09851,1.68079 -2.34182,0.0826 -2.34182,0.0826 -2.29984,-2.0523 c -1.26492,-1.12876 -3.0628,-2.7856 -3.99529,-3.68186 l -1.69543,-1.62958 -2.89636,-0.004 -2.89637,-0.004 v 3.67344 3.67344 h -1.69543 -1.69544 z m 16.22772,-1.00919 c 0.32468,-0.32467 0.44404,-1.01332 0.44404,-2.56173 0,-3.42235 0.45676,-3.21082 -6.93296,-3.21082 h -6.34793 v 3.1083 3.10829 h 6.19641 c 5.25633,0 6.26377,-0.0674 6.64044,-0.44404 z m 12.59465,1.00919 v -9.32489 h 1.69543 1.69544 v 9.32489 9.32488 h -1.69544 -1.69543 z m 10.25754,8.12395 c 3.82422,-6.52557 9.80508,-17.02454 9.80508,-17.21212 0,-0.13019 0.85832,-0.23663 1.90737,-0.23653 l 1.90736,1.9e-4 1.45546,2.47232 c 4.73839,8.04888 8.86472,15.0957 9.13346,15.59783 0.29765,0.55617 0.23724,0.57924 -1.51689,0.57924 h -1.82689 l -1.2071,-2.26547 -1.20709,-2.26548 -6.74619,0.0755 -6.74618,0.0755 -1.15814,2.18993 -1.15814,2.18994 h -1.67295 -1.67295 z m 16.86939,-6.04169 c 0,-0.0981 -0.87914,-1.71933 -1.95364,-3.6028 -1.0745,-1.88346 -2.1763,-3.89587 -2.44843,-4.47202 -0.27213,-0.57615 -0.59375,-0.98638 -0.7147,-0.91163 -0.22029,0.13614 -5.05583,8.77091 -5.05583,9.02813 0,0.0752 2.28884,0.13663 5.0863,0.13663 2.79747,0 5.0863,-0.0802 5.0863,-0.17831 z m 28.69712,6.96316 c -0.65638,-0.12634 -1.37327,-0.5156 -1.74459,-0.94729 -0.73419,-0.85354 -1.11727,-3.21131 -0.83144,-5.11733 0.21757,-1.45085 0.70014,-1.93648 3.76341,-3.78734 l 2.02937,-1.22616 -0.69804,-1.02725 c -0.83973,-1.23577 -0.97542,-3.76515 -0.25702,-4.79082 0.86739,-1.23837 1.81284,-1.47412 5.91191,-1.47412 5.481,0 6.36283,0.48718 6.36283,3.51523 0,1.13794 -0.058,1.22945 -0.88304,1.39447 -1.60569,0.32113 -1.66011,0.2806 -1.66011,-1.23626 v -1.41286 h -3.67344 -3.67344 l 1e-5,1.34222 v 1.34222 l 4.14033,3.24958 c 5.8204,4.56821 5.14816,4.29393 6.77963,2.76609 0.75456,-0.70663 1.75339,-1.60913 2.21964,-2.00556 l 0.84771,-0.72078 0.80027,0.7572 0.80027,0.75719 -2.17324,1.98917 -2.17324,1.98917 2.98386,2.24942 c 1.64113,1.23717 2.99012,2.34478 2.99776,2.46134 0.008,0.11656 -0.8219,0.21193 -1.84344,0.21193 -1.82219,0 -1.89495,-0.0294 -3.84362,-1.55415 -1.09244,-0.85478 -2.06863,-1.54956 -2.1693,-1.54395 -0.10068,0.006 -0.85239,0.62436 -1.67047,1.37499 -1.18211,1.08465 -1.75573,1.40157 -2.79452,1.54395 -1.73404,0.23768 -8.14184,0.17036 -9.54805,-0.1003 z m 10.90825,-3.37161 c 0.67317,-0.60936 1.1609,-1.16248 1.08385,-1.22915 -0.74888,-0.64794 -6.7664,-5.00981 -6.91141,-5.00981 -0.10496,0 -1.26286,0.73116 -2.57312,1.62479 l -2.38228,1.62479 -2e-5,2.04865 -3e-5,2.04865 h 4.77953 4.77952 z m 34.37271,3.39671 c -1.22923,-0.25531 -1.81034,-0.68775 -2.36466,-1.75968 -0.59297,-1.14667 -0.58597,-13.39557 0.008,-14.81825 0.70766,-1.69367 1.3778,-1.81762 9.82048,-1.81642 6.92413,9.8e-4 7.48921,0.0392 8.352,0.56527 1.15546,0.70449 1.47646,1.53077 1.47646,3.80049 v 1.78688 l -1.05965,0.1878 c -0.5828,0.10329 -1.28217,0.25316 -1.55414,0.33306 -0.44019,0.1293 -0.4945,-0.0896 -0.4945,-1.99307 v -2.13834 h -6.78174 -6.78173 v 6.64045 6.64045 h 6.78173 6.78174 v -2.27962 c 0,-2.03437 0.0532,-2.26503 0.4945,-2.14397 0.27197,0.0746 0.97134,0.2161 1.55414,0.31442 l 1.05965,0.17876 v 1.92304 c 0,2.35929 -0.37535,3.50889 -1.36336,4.17564 -0.67269,0.45395 -1.53385,0.51618 -7.82024,0.56512 -3.88536,0.0302 -7.53448,-0.0427 -8.10914,-0.16203 z m 28.59563,0.0737 c -1.16908,-0.20753 -2.00363,-0.74466 -2.42597,-1.56137 -0.61573,-1.19069 -0.58003,-14.54659 0.0413,-15.4336 0.98964,-1.41291 1.44062,-1.47412 10.86187,-1.47412 9.80006,0 10.15493,0.0601 10.90129,1.84641 0.57656,1.37989 0.57765,13.29188 0.001,14.67116 -0.81416,1.94855 -1.00381,1.98591 -10.32444,2.03392 -4.59191,0.0237 -8.66683,-0.0134 -9.05536,-0.0824 z m 16.38919,-9.28549 v -6.64045 h -8.05331 -8.05331 v 6.64045 6.64045 h 8.05331 8.05331 z m 13.28089,0.14129 v -9.32489 l 1.05964,0.002 c 0.94989,0.002 1.52796,0.40099 5.58081,3.85018 2.48663,2.11626 5.21885,4.43579 6.0716,5.15451 0.85275,0.71872 2.56938,2.20634 3.81473,3.30581 l 2.26427,1.99904 -0.0799,-7.15598 -0.0799,-7.15599 h 1.56731 1.56731 l -0.0745,9.25424 -0.0745,9.25424 -0.79426,0.0911 c -0.93171,0.10683 -1.17926,-0.0712 -6.41133,-4.61082 -2.0981,-1.82043 -4.13398,-3.58272 -4.52419,-3.91621 -2.01805,-1.72473 -4.67708,-4.01419 -4.80656,-4.1385 -0.0809,-0.0777 -0.58978,-0.54888 -1.13075,-1.04706 l -0.9836,-0.90577 0.10191,7.33429 0.1019,7.33429 h -1.58494 -1.58495 z m 33.57025,9.06877 c -1.78189,-0.3671 -2.31075,-1.03728 -2.61869,-3.31842 l -0.19645,-1.45524 1.4494,-0.31084 c 0.79717,-0.17096 1.50672,-0.31084 1.57677,-0.31084 0.0701,0 0.12738,0.63579 0.12738,1.41287 v 1.41286 h 7.18655 c 8.25735,0 7.50617,0.31469 7.41955,-3.1083 l -0.0536,-2.11929 -7.20559,-0.14129 c -8.03071,-0.15746 -8.69826,-0.30194 -9.29425,-2.01158 -0.4498,-1.2903 -0.39417,-5.44224 0.0884,-6.59718 0.72888,-1.74444 1.24913,-1.84653 9.40376,-1.84535 6.78787,9.8e-4 7.35404,0.0399 8.21567,0.56527 1.02036,0.62212 1.47646,1.53016 1.47646,2.93949 0,0.83003 -0.1131,0.95977 -1.09243,1.25318 -1.65145,0.49479 -1.7333,0.4502 -1.7333,-0.94427 v -1.27158 h -6.92301 -6.92302 v 2.52605 2.52604 l 7.41752,0.0877 c 8.22196,0.0973 8.60353,0.17931 9.23309,1.98528 0.38659,1.10897 0.39549,5.80818 0.0131,6.90517 -0.15985,0.45854 -0.70027,1.08152 -1.20093,1.38438 -0.83261,0.50367 -1.52519,0.55495 -8.11589,0.60088 -3.96307,0.0276 -7.67576,-0.0466 -8.25043,-0.16504 z m 30.47942,-0.006 c -0.59576,-0.12182 -1.42229,-0.56039 -1.83672,-0.97459 l -0.7535,-0.7531 -0.0827,-8.32986 -0.0827,-8.32987 h 1.70749 1.70749 v 7.91203 7.91202 h 7.06431 7.0643 v -7.91202 -7.91203 h 1.72439 1.72439 l -0.12038,7.98267 c -0.076,5.03865 -0.23852,8.26426 -0.44068,8.7462 -0.6782,1.61678 -1.46123,1.76921 -9.38688,1.82726 -3.96307,0.029 -7.69304,-0.0469 -8.28881,-0.16871 z m 28.06887,-9.06253 v -9.32489 h 1.69543 1.69543 v 7.91203 7.91202 h 7.34688 7.34688 v 1.41286 1.41286 h -9.04231 -9.04231 z m 24.86635,1.27157 v -8.05331 h -4.37987 -4.37987 v -1.27157 -1.27158 h 10.59646 10.59646 v 1.27158 1.27157 h -4.52116 -4.52116 v 8.05331 8.05331 h -1.69543 -1.69543 z m 20.21995,7.78474 c -1.50952,-0.30531 -2.32937,-1.32467 -2.56059,-3.18372 -0.10212,-0.821 -0.14358,-4.03587 -0.0921,-7.14417 0.10788,-6.51827 0.30609,-7.23735 2.14383,-7.77734 0.70085,-0.20594 4.04679,-0.28114 9.9119,-0.22278 l 8.8539,0.0881 0.82419,0.92282 0.8242,0.92282 v 7.07387 c 0,7.59222 -0.11632,8.30327 -1.48643,9.08609 -0.73275,0.41867 -16.51476,0.61943 -18.41887,0.23431 z m 16.79701,-9.1976 v -6.64045 h -8.05331 -8.05331 v 6.64045 6.64045 h 8.05331 8.05331 z m 12.99832,0.14129 v -9.32489 l 8.83038,0.001 c 11.51769,10e-4 11.23224,-0.14222 11.23224,5.65039 0,1.68932 -0.12148,3.39102 -0.26996,3.78155 -0.45923,1.20787 -1.57919,1.70578 -4.19622,1.86557 l -2.38496,0.14561 4.40292,3.53215 4.40292,3.53215 -2.4031,0.0818 -2.4031,0.0818 -4.01376,-3.68084 -4.01377,-3.68084 -2.89636,-0.004 -2.89637,-0.004 v 3.67344 3.67344 h -1.69543 -1.69543 z m 16.33267,-0.90423 c 0.21116,-0.21117 0.33909,-1.25588 0.33909,-2.76921 0,-1.51333 -0.12793,-2.55805 -0.33909,-2.76921 -0.24346,-0.24346 -2.11615,-0.33909 -6.64045,-0.33909 h -6.30136 v 3.1083 3.10829 h 6.30136 c 4.5243,0 6.39699,-0.0956 6.64045,-0.33908 z m 12.77226,0.90423 v -9.32489 h 1.55415 1.55415 v 9.32489 9.32488 h -1.55415 -1.55415 z m 9.60746,9.16733 c 0,-0.16329 0.25382,-0.62064 2.97056,-5.35261 0.89228,-1.55415 1.91096,-3.33435 2.26374,-3.95601 0.35277,-0.62166 1.30718,-2.27471 2.12089,-3.67344 0.81372,-1.39873 1.83438,-3.17894 2.26814,-3.95601 l 0.78866,-1.41286 1.84169,-0.0832 1.84169,-0.0832 1.60823,2.76761 c 0.88453,1.52219 1.95561,3.33982 2.38018,4.03919 2.06506,3.40162 6.78257,11.54613 6.78257,11.70971 0,0.10191 -0.79248,0.14743 -1.76108,0.10116 l -1.76108,-0.0841 -1.23434,-2.18993 -1.23433,-2.18994 -6.68268,0.004 -6.68268,0.004 -1.21348,2.25661 -1.21348,2.25661 h -1.5416 c -0.84788,0 -1.5416,-0.0709 -1.5416,-0.15755 z m 17.2369,-7.14931 c 0,-0.20156 -4.68472,-8.76817 -4.93414,-9.02272 -0.0734,-0.0749 -1.55711,2.50279 -4.23505,7.35791 l -1.05205,1.90736 h 5.11062 c 2.81084,0 5.11062,-0.10914 5.11062,-0.24255 z m 15.54147,-0.74645 v -3.24958 h 16.95434 16.95433 v -87.0325 -87.03223 H 393.53531 38.62463 v 86.74966 86.74967 h 16.95433 16.95433 v 3.24958 3.24958 H 52.18767 31.84205 l 0.0711,-93.31947 0.0711,-93.31946 h 361.55112 361.55112 l 0.0711,93.60203 0.0711,93.60204 h -20.34562 -20.34562 z m 38.35961,-90.37959 0.0711,-91.45562 H 567.31766 381.66729 v 1.13029 1.13029 h 184.51965 184.51964 v 89.14932 89.14932 l -17.02497,0.0729 -17.02497,0.0729 v 0.989 0.98901 l 17.20031,0.14128 c 9.46018,0.0777 17.59826,0.12908 18.08462,0.11416 l 0.88431,-0.0271 z m -306.23805,47.44088 v -4.36735 l -43.44548,-0.10934 c -46.59088,-0.11725 -44.53055,-0.0553 -49.49707,-1.48851 -3.66071,-1.05639 -6.56291,-3.34051 -7.92425,-6.23663 -0.83269,-1.77147 -1.57834,-4.76856 -1.95881,-7.87332 -0.39896,-3.25559 -0.43378,-69.30823 -0.0369,-69.93662 0.39777,-0.62973 19.93102,-0.79351 20.77809,-0.17422 0.55464,0.4055 0.56424,0.87788 0.7036,34.61115 0.11374,27.53268 0.21288,34.27164 0.50852,34.5673 0.29544,0.29544 6.19306,0.38544 30.16458,0.46032 l 29.79735,0.0931 v -34.07238 -34.07238 h -6.0753 -6.07531 v -1.26595 -1.26596 l 6.00466,-0.0763 6.00466,-0.0763 0.0768,-5.43952 0.0767,-5.43951 h 1.26547 1.26548 v 5.51407 5.51407 l 9.11295,-0.0745 9.11295,-0.0746 0.0768,-5.43952 0.0767,-5.43951 h 1.25937 1.25938 l 0.0767,5.43951 0.0768,5.43952 5.87933,0.0764 5.87934,0.0764 -0.0866,1.19515 -0.0866,1.19515 -5.86338,0.0764 -5.86337,0.0764 v 40.82594 40.82595 h 4.52115 4.52116 v 1.27157 1.27158 h -4.52116 -4.52115 v 4.37987 4.37987 h -1.27158 -1.27157 z m -10.14175,-7.22396 c 4.76732,-0.90411 8.77195,-4.70877 9.84207,-9.35062 0.18445,-0.80007 0.28832,-13.7964 0.29277,-36.63216 l 0.007,-35.39217 h -9.1836 -9.18359 v 35.31936 35.31935 l -17.30755,0.0728 -17.30755,0.0728 -0.0774,5.0768 c -0.0426,2.79224 -0.0148,5.24002 0.0618,5.43951 0.11153,0.29065 4.23175,0.36272 20.73725,0.36272 12.82889,0 21.17171,-0.10879 22.11892,-0.28842 z m 10.14175,-1.99753 v -2.28596 l -1.13742,1.43895 c -0.62558,0.79142 -1.64284,1.77342 -2.26058,2.18222 -0.61774,0.40879 -1.12316,0.78995 -1.12316,0.847 0,0.0571 1.01726,0.10374 2.26058,0.10374 h 2.26058 z m 27.4095,3.30781 v -10.28102 l 2.04865,-1.95456 c 4.09552,-3.90744 4.26231,-4.06456 38.00596,-35.80047 11.85037,-11.14528 21.54613,-20.32184 21.54613,-20.39236 0,-0.0705 -11.82564,-0.12821 -26.27921,-0.12821 h -26.27922 v 3.67344 3.67344 h -1.27157 -1.27158 v -3.67344 -3.67344 h -5.79273 -5.79273 v -1.27157 -1.27158 h 5.79273 5.79273 v -5.79273 -5.79273 h -5.79273 -5.79273 v -1.26572 -1.26572 l 5.72209,-0.0765 5.72209,-0.0765 0.0767,-5.43952 0.0768,-5.43951 h 1.25937 1.25937 l 0.0767,5.43951 0.0768,5.43952 44.43448,0.0715 44.43448,0.0715 v -5.51104 -5.51103 h 1.41286 1.41286 l -0.0131,10.10195 -0.0131,10.10196 -10.51269,9.81984 c -5.78198,5.40092 -11.02132,10.29799 -11.64298,10.88238 -2.36336,2.22169 -14.05204,13.16282 -18.79105,17.58928 -2.71976,2.54037 -6.97953,6.53026 -9.46617,8.86642 -7.21037,6.77404 -12.34384,11.57681 -13.56347,12.68971 l -1.13028,1.03139 31.14658,0.008 31.14659,0.008 0.0776,-4.5918 0.0776,-4.5918 h 1.27158 1.27157 l 0.0776,4.5918 0.0777,4.5918 h 4.79672 4.79673 v 1.27157 1.27158 h -4.80372 -4.80373 v 5.79273 5.79273 h 4.80373 4.80372 v 1.27157 1.27158 h -4.80372 -4.80373 v 4.37987 4.37987 h -1.41286 -1.41286 v -4.37987 -4.37987 h -47.75471 -47.7547 v 4.37987 4.37987 h -1.27157 -1.27158 z m 98.05256,-6.81459 v -5.79273 H 539.76642 507.4119 v -1.93025 -1.93024 l 1.48351,-1.39873 c 1.6855,-1.58919 35.08749,-32.83967 39.02936,-36.51538 1.41867,-1.32287 5.37216,-5.02156 8.78553,-8.21932 3.41338,-3.19775 8.26568,-7.72145 10.7829,-10.05267 l 4.57677,-4.23859 0.0255,-2.89636 0.0255,-2.89637 h -44.51098 -44.51097 l 0.0765,5.72209 0.0765,5.72209 28.34258,0.072 28.34259,0.072 -0.0854,1.37424 -0.0854,1.37423 -21.19292,19.8566 c -11.6561,10.92112 -22.14659,20.75614 -23.3122,21.8556 -5.50003,5.18788 -6.92627,6.52719 -10.87843,10.2154 -2.33089,2.17522 -5.03299,4.70626 -6.00466,5.62452 l -1.76668,1.66958 v 4.05251 4.05251 h 47.7547 47.75471 z m 145.60772,13.06896 -2.53397,-4.02665 -11.11221,-0.14129 -11.1122,-0.14128 -4.64915,-7.48817 c -2.55703,-4.11849 -5.11443,-8.2511 -5.68311,-9.18359 l -1.03396,-1.69544 -28.81556,-0.0712 -28.81557,-0.0712 -0.74496,1.20146 c -0.40973,0.6608 -2.54458,4.09682 -4.74412,7.63561 -2.19953,3.53879 -4.07137,6.62236 -4.15964,6.85237 -0.13814,0.36001 0.57133,0.41822 5.09734,0.41822 h 5.25781 v 1.27158 1.27157 h -6.14957 -6.14958 l -2.13545,3.46151 -2.13545,3.46151 -1.59675,0.0845 -1.59675,0.0845 2.11104,-3.395 c 1.16107,-1.86724 2.11104,-3.46136 2.11104,-3.54248 0,-0.0811 -4.56596,-0.18086 -10.14659,-0.22166 l -10.14659,-0.0742 3.26159,-5.22759 c 2.76778,-4.4361 10.89916,-17.54111 18.585,-29.95265 1.10677,-1.78727 3.71356,-5.98347 5.79287,-9.32488 6.55212,-10.52912 14.43274,-23.21966 15.96803,-25.71407 0.81307,-1.32103 3.4553,-5.58081 5.87162,-9.46617 l 4.3933,-7.06431 9.20703,-0.0745 c 5.06386,-0.041 9.20703,-0.12868 9.20703,-0.19489 0,-0.0662 -0.78029,-1.36783 -1.73397,-2.8925 -2.85181,-4.55925 -5.33034,-8.62256 -5.33034,-8.73857 0,-0.0599 0.66758,-0.108 1.48351,-0.10696 l 1.4835,0.002 3.65199,5.93212 3.652,5.93212 h 6.87382 6.87382 v 1.27157 1.27158 h -5.93402 c -3.26371,0 -5.93401,0.10723 -5.93401,0.2383 0,0.19904 17.49478,28.60188 31.44345,51.04855 2.02811,3.26371 4.4933,7.23738 5.47821,8.83038 0.9849,1.593 2.63573,4.26331 3.66851,5.93402 1.84109,2.9783 3.80798,6.15652 7.301,11.79739 0.96238,1.55414 2.911,4.69277 4.33027,6.97473 1.41927,2.28196 3.09159,4.98405 3.71627,6.00466 l 1.13578,1.85565 h -1.51417 -1.51418 z M 613.23519,367.83757 c 1.24332,-2.03705 3.85451,-6.26017 5.80264,-9.38471 l 3.54206,-5.68098 30.22532,-0.0625 30.22531,-0.0625 0.4431,0.91022 c 0.24371,0.50062 2.83772,4.75673 5.76447,9.45802 l 5.32137,8.54781 h 9.42379 c 5.18308,0 9.42378,-0.0528 9.42378,-0.11736 0,-0.0645 -2.43232,-4.03822 -5.40515,-8.83038 -2.97284,-4.79216 -6.19067,-9.98459 -7.15073,-11.53874 -0.96006,-1.55415 -4.23274,-6.83118 -7.27261,-11.72675 -9.63714,-15.52015 -19.7305,-31.78232 -25.38663,-40.90232 L 662.7154,289.617 h -9.21991 -9.21991 l -2.84018,4.59179 c -4.9233,7.95966 -10.42241,16.82497 -20.28844,32.70774 -5.26144,8.4701 -10.35252,16.67176 -11.3135,18.2259 -0.96098,1.55415 -5.00745,8.08211 -8.99214,14.50657 -3.98469,6.42447 -7.2449,11.7333 -7.2449,11.79739 0,0.0641 3.9101,0.11167 8.6891,0.10572 l 8.68909,-0.0108 z m 15.68276,-27.74682 c 0,-0.0587 2.84045,-4.98601 6.31212,-10.94967 3.47167,-5.96365 8.82596,-15.16636 11.89842,-20.45046 3.07247,-5.2841 5.61643,-9.64066 5.65326,-9.68125 0.0368,-0.0406 1.33772,2.12109 2.89088,4.80373 1.55317,2.68263 4.85986,8.37435 7.3482,12.64825 2.48834,4.27391 6.57796,11.29794 9.08804,15.60896 2.51008,4.31102 4.56378,7.90322 4.56378,7.98266 0,0.0795 -10.74481,0.14445 -23.87735,0.14445 -13.13254,0 -23.87735,-0.048 -23.87735,-0.10667 z m 43.22729,-2.64841 c -0.0126,-0.42836 -19.0759,-33.50952 -19.32311,-33.5321 -0.20762,-0.0189 -18.82579,32.18656 -19.30341,33.39081 -0.11124,0.28051 3.85087,0.35322 19.24635,0.35322 10.66253,0 19.38361,-0.0954 19.38017,-0.21193 z M 78.74988,373.23935 c -3.06137,-0.26708 -7.41397,-1.30659 -9.42086,-2.24993 -5.03102,-2.36487 -7.73755,-8.49111 -7.48174,-16.93495 l 0.0895,-2.956 1.66721,-0.50699 c 3.55816,-1.082 16.64684,-3.3358 17.04721,-2.93543 0.10396,0.10395 0.26966,2.15582 0.36823,4.55971 0.0986,2.40389 0.24332,4.43481 0.32166,4.51315 0.63147,0.63147 5.41538,0.72362 33.57563,0.64674 26.52832,-0.0724 30.29136,-0.13486 30.5262,-0.50647 0.15398,-0.24366 0.2697,-4.23392 0.27219,-9.38559 0.004,-8.57335 -0.0194,-8.9744 -0.54224,-9.25423 -0.36685,-0.19634 -10.42455,-0.29328 -30.58844,-0.29484 -18.70844,-0.001 -30.99771,-0.11181 -32.57553,-0.29256 -7.90739,-0.90583 -12.19643,-3.21861 -14.29823,-7.71005 -1.6585,-3.54413 -2.01154,-6.15607 -2.16447,-16.01371 -0.15058,-9.70693 0.0561,-12.41623 1.23314,-16.16359 1.38186,-4.39951 4.02035,-7.11034 8.29705,-8.52458 5.42924,-1.79535 3.98489,-1.73233 39.70139,-1.73233 35.65024,0 35.02151,-0.0268 40.21193,1.71555 6.24063,2.09491 9.32225,7.22602 9.46478,15.75956 0.0535,3.20424 -0.0283,3.33318 -2.44762,3.85825 -3.48581,0.75652 -10.97032,2.32555 -13.11409,2.74919 -1.84835,0.36526 -2.40947,0.38919 -2.68443,0.11447 -0.22681,-0.22661 -0.39673,-1.72105 -0.48891,-4.29998 -0.10464,-2.92751 -0.24199,-4.01485 -0.52957,-4.19246 -1.00442,-0.62033 -53.73221,-0.71853 -58.18388,-0.10837 -0.99101,0.13584 -1.29532,0.31609 -1.52815,0.90516 -0.40312,1.0199 -0.39144,15.18819 0.0134,16.20637 l 0.30894,0.77707 28.90001,0.001 c 30.26679,10e-4 35.13605,0.15975 39.70828,1.29285 6.16664,1.52823 9.19624,4.82871 10.43151,11.36419 0.44907,2.37588 0.51817,4.27003 0.51752,14.18617 -7.1e-4,10.97752 -0.0267,11.54211 -0.6382,13.84604 -1.83604,6.91787 -4.95527,9.61495 -12.95764,11.20397 -2.30487,0.45767 -5.28163,0.50243 -36.41869,0.54754 -18.64977,0.027 -35.11667,-0.0563 -36.59311,-0.18507 z m 135.63465,0.11831 c -4.88869,-0.32502 -10.05345,-1.66751 -12.26258,-3.18743 -3.39892,-2.33851 -5.0638,-6.00827 -5.80497,-12.79541 -0.18834,-1.72473 -0.29772,-11.90573 -0.29446,-27.40951 0.005,-25.68373 0.0767,-27.50134 1.25398,-31.94654 1.7075,-6.44736 6.19618,-9.38558 15.81489,-10.35217 4.2319,-0.42525 74.58614,-0.42964 78.88078,-0.005 1.6977,0.16791 4.46644,0.53821 6.15277,0.8229 6.65338,1.12327 9.65104,3.84546 11.51554,10.45729 l 0.67731,2.40186 v 28.39851 c 0,29.36422 -0.0369,30.44571 -1.1554,33.84643 -1.08791,3.30776 -3.02023,5.74636 -5.71493,7.21227 -2.01402,1.09562 -6.35608,2.14095 -10.22528,2.46168 -2.85893,0.23698 -75.38757,0.32441 -78.83765,0.095 z m 74.20378,-17.18616 c 0.59259,-0.81048 0.4627,-51.52266 -0.13382,-52.24128 -0.35684,-0.42987 -3.14562,-0.46719 -34.9143,-0.46719 -29.38392,0 -34.60818,0.0598 -35.075,0.40136 -0.53598,0.39218 -0.54845,0.98415 -0.54609,25.926 0.001,14.03855 0.0995,25.8758 0.21813,26.305 l 0.21573,0.78035 34.91426,-0.0739 c 34.36117,-0.0728 34.92071,-0.0827 35.32109,-0.63032 z"
       id="path1-5" /></g></svg>
