<?xml version="1.0" encoding="UTF-8" standalone="no"?>
<!-- Created with Inkscape (http://www.inkscape.org/) -->

<svg
   width="63.933228mm"
   height="37.911961mm"
   viewBox="0 0 241.6374 143.2893"
   version="1.1"
   id="svg1"
   xml:space="preserve"
   inkscape:export-filename="bitmap.svg"
   inkscape:export-xdpi="96"
   inkscape:export-ydpi="96"
   inkscape:version="1.4.3 (0d15f75, 2025-12-25)"
   sodipodi:docname="inomeado.svg"
   inkscape:export-batch-name="inomeado"
   xmlns:inkscape="http://www.inkscape.org/namespaces/inkscape"
   xmlns:sodipodi="http://sodipodi.sourceforge.net/DTD/sodipodi-0.dtd"
   xmlns="http://www.w3.org/2000/svg"
   xmlns:svg="http://www.w3.org/2000/svg"><sodipodi:namedview
     id="namedview1"
     pagecolor="#ffffff"
     bordercolor="#000000"
     borderopacity="0.25"
     inkscape:showpageshadow="2"
     inkscape:pageopacity="0.0"
     inkscape:pagecheckerboard="0"
     inkscape:deskcolor="#d1d1d1"
     inkscape:document-units="mm"
     inkscape:zoom="0.48693448"
     inkscape:cx="413.81338"
     inkscape:cy="500.06728"
     inkscape:window-width="1920"
     inkscape:window-height="991"
     inkscape:window-x="-9"
     inkscape:window-y="-9"
     inkscape:window-maximized="1"
     inkscape:current-layer="layer1"
     showguides="false"><inkscape:page
       x="0"
       y="0"
       width="241.63741"
       height="143.28929"
       id="page1"
       margin="0"
       bleed="0" /></sodipodi:namedview><defs
     id="defs1" /><g
     inkscape:label="Camada 1"
     inkscape:groupmode="layer"
     id="layer1"
     transform="translate(-459.30128,-489.43389)"><path
       style="fill:#ffffff;fill-opacity:1;stroke-width:0.381253"
       d="m 577.93988,632.57727 c -5.3068,-0.8587 -8.67,-4.0423 -9.468,-8.9624 -0.9088,-5.603 1.4978,-10.6357 6.0792,-12.713 3.2654,-1.4807 7.7769,-1.5538 10.7948,-0.175 1.5686,0.7167 2.2022,1.4915 2.0778,2.5412 -0.08,0.673 -0.715,1.7278 -1.2531,2.0804 -0.2969,0.1945 -0.3193,0.1893 -0.6884,-0.1612 -0.5259,-0.4994 -1.5544,-1.0453 -2.5662,-1.3621 -1.2058,-0.3774 -3.4595,-0.4667 -4.7177,-0.1868 -2.7097,0.6029 -4.6429,2.5026 -5.3803,5.287 -0.2844,1.0736 -0.2831,3.6271 0,4.7766 0.8093,3.2597 3.1901,5.0349 7.1828,5.356 0.9654,0.078 2.4955,-0.1146 3.2467,-0.408 l 0.3337,-0.1304 v -2.5518 -2.5517 h -1.9539 c -2.3101,0 -2.6749,-0.1083 -3.0349,-0.9011 -0.2474,-0.5447 -0.2982,-1.5792 -0.1108,-2.2546 l 0.1179,-0.4247 3.8563,0.061 c 3.7493,0.059 3.8668,0.068 4.2369,0.3322 0.7465,0.5325 0.7723,0.7339 0.7723,6.0127 v 4.7622 l -0.5212,0.3148 c -0.6652,0.4018 -1.697,0.7874 -2.9336,1.0961 -1.3134,0.3279 -4.5215,0.414 -6.0726,0.163 z m 62.4031,0 c -1.4988,-0.2443 -3.1198,-0.6941 -4.2993,-1.193 -1.1727,-0.4959 -2.0918,-1.0136 -2.0918,-1.1783 0,-0.1206 1.5284,-2.9019 1.6796,-3.0564 0.047,-0.048 0.5762,0.1554 1.1754,0.4527 2.1364,1.0601 3.9848,1.5163 6.1433,1.5163 3.1689,0 4.6401,-0.915 4.6278,-2.8783 -0.01,-1.3338 -0.6943,-2.1248 -2.2781,-2.627 -0.3338,-0.1058 -1.508,-0.3542 -2.6095,-0.5519 -3.2576,-0.5849 -4.039,-0.8158 -5.4713,-1.6167 -0.8843,-0.4946 -2.015,-1.6105 -2.4036,-2.3722 -0.4417,-0.8658 -0.6544,-2.0328 -0.5802,-3.1832 0.2031,-3.1469 2.1215,-5.1634 5.595,-5.8809 4.1843,-0.8643 9.7764,0.3627 10.816,2.3732 0.3702,0.7157 0.097,1.9175 -0.6292,2.7656 l -0.4279,0.4999 -0.5062,-0.4109 c -0.7005,-0.5687 -1.8171,-1.1069 -3.0796,-1.4845 -0.8565,-0.2562 -1.4054,-0.3313 -2.7758,-0.3799 -1.8376,-0.065 -2.5946,0.036 -3.5216,0.4722 -1.537,0.7224 -1.8517,2.7805 -0.6025,3.9392 0.7327,0.6796 1.5124,0.9397 4.4993,1.501 2.95,0.5544 3.9215,0.829 5.0866,1.4376 2.1682,1.1325 3.2251,2.87 3.2251,5.3019 0,1.8619 -0.5061,3.1269 -1.753,4.3814 -0.9963,1.0025 -2.0915,1.591 -3.7116,1.9946 -1.3634,0.3396 -4.5455,0.4321 -6.1069,0.1776 z m -145.6019,-5.1807 10e-5,-4.817 -5.0976,-0.011 -5.0975,-0.011 v 4.7976 4.7977 h -2.0026 -2.0026 v -10.3678 -10.3678 l 0.3069,-0.3647 c 0.4847,-0.576 1.2114,-0.7918 2.4141,-0.7167 0.5604,0.035 1.0786,0.1004 1.1516,0.1455 0.092,0.057 0.1326,1.3861 0.1326,4.3228 v 4.2408 h 5.0975 5.0976 l 3e-4,-3.7322 c 4e-4,-4.2965 0.01,-4.3229 1.0587,-4.7884 0.4873,-0.2155 0.7253,-0.2414 1.6913,-0.1838 0.6183,0.037 1.1673,0.094 1.2198,0.1262 0.053,0.032 0.068,4.9292 0.035,10.8815 l -0.061,10.8225 -1.9723,0.021 -1.9723,0.021 z m 8.7388,4.7765 c -0.08,-0.027 -0.1214,-3.5459 -0.1213,-10.2557 2e-4,-11.4115 -0.047,-10.7825 0.8494,-11.3035 0.3501,-0.2035 0.6381,-0.2469 1.6385,-0.2469 0.6675,0 1.3095,0.039 1.4267,0.087 0.2012,0.083 0.2113,0.6875 0.1821,10.9068 l -0.031,10.8192 -1.9115,0.016 c -1.0513,0.01 -1.9661,0 -2.0329,-0.024 z m 16.6281,-0.8092 c 7e-4,-0.7926 0.1587,-4.2157 0.2971,-6.4325 0.033,-0.5341 0.091,-1.5718 0.1281,-2.306 0.037,-0.7343 0.091,-1.7174 0.1208,-2.1847 0.029,-0.4673 0.083,-1.3957 0.1196,-2.0633 0.036,-0.6675 0.091,-1.596 0.1215,-2.0633 0.03,-0.4672 0.087,-1.3957 0.1262,-2.0632 0.1341,-2.2975 0.4818,-3.1616 1.469,-3.6503 0.5611,-0.2778 2.2225,-0.3151 3.0618,-0.069 l 0.5292,0.1553 1.5126,3.117 c 3.5182,7.2498 3.9708,8.1528 4.0422,8.0646 0.041,-0.051 0.4097,-0.8028 0.8187,-1.6706 2.8062,-5.9543 4.095,-8.5376 4.4409,-8.901 0.7167,-0.7532 1.208,-0.9303 2.5701,-0.9268 1.3467,0 2.199,0.1953 2.2908,0.5154 0.033,0.1153 0.094,1.0289 0.1353,2.0302 0.041,1.0013 0.097,1.9571 0.1237,2.124 0.027,0.1668 0.081,1.1226 0.1214,2.1239 0.04,1.0013 0.095,1.9571 0.1211,2.124 0.026,0.1669 0.084,1.1499 0.1284,2.1846 0.044,1.0347 0.096,1.9632 0.1143,2.0633 0.019,0.1002 0.074,1.1378 0.1222,2.306 0.048,1.1682 0.103,2.1513 0.1213,2.1847 0.018,0.034 0.073,0.9755 0.1213,2.0936 l 0.088,2.0329 -1.5012,0.01 c -0.8257,0.01 -1.6837,0.024 -1.9066,0.04 -0.5385,0.039 -0.5751,-0.082 -0.6751,-2.2349 -0.045,-0.968 -0.1056,-2.0603 -0.1346,-2.4274 -0.072,-0.9141 -0.1596,-2.4395 -0.243,-4.248 -0.039,-0.8344 -0.093,-1.6809 -0.1211,-1.8812 -0.028,-0.2003 -0.087,-1.1833 -0.1307,-2.1846 -0.044,-1.0013 -0.1147,-2.0341 -0.1574,-2.295 l -0.078,-0.4744 -0.7494,1.5667 c -0.4122,0.8617 -1.1114,2.3222 -1.5539,3.2455 -0.4424,0.9234 -1.2042,2.5345 -1.6929,3.5804 -0.8652,1.8517 -0.9009,1.9054 -1.3576,2.0441 -0.6023,0.1828 -1.6155,0.1967 -2.2732,0.031 -0.4855,-0.1222 -0.5365,-0.1776 -0.8662,-0.9406 -1.0232,-2.3676 -4.4393,-9.3672 -4.5717,-9.3672 -0.055,0 -0.1045,0.3686 -0.1091,0.8192 0,0.4506 -0.025,0.9558 -0.046,1.1227 -0.021,0.1669 -0.073,0.9861 -0.1166,1.8205 -0.044,0.8344 -0.13,2.4456 -0.1919,3.5804 -0.062,1.1348 -0.1446,2.746 -0.1837,3.5804 -0.039,0.8344 -0.094,1.7902 -0.1221,2.124 -0.028,0.3337 -0.061,1.0301 -0.073,1.5474 -0.012,0.5174 -0.055,0.9431 -0.095,0.946 -0.04,0 -0.9335,0.017 -1.9849,0.031 l -1.9116,0.025 z m 25.3671,0.7889 c -0.2148,-0.135 4.3959,-11.7131 7.1774,-18.0233 1.5284,-3.4673 1.9554,-3.8832 3.987,-3.8832 0.6524,0 1.3526,0.071 1.6126,0.1623 0.4199,0.1482 0.5181,0.279 1.1375,1.5139 0.7991,1.5933 2.6922,6.0095 4.328,10.096 1.7929,4.4792 3.9494,10.0688 3.9028,10.1163 -0.053,0.054 -4.3133,0.052 -4.3642,0 -0.021,-0.022 -0.4854,-1.2143 -1.0325,-2.6495 -0.5471,-1.4352 -1.076,-2.6734 -1.1754,-2.7515 -0.1302,-0.1023 -1.4817,-0.146 -4.8286,-0.1561 l -4.6478,-0.014 -0.2094,0.5202 c -0.1152,0.2861 -0.5913,1.5305 -1.0582,2.7655 -0.4669,1.2349 -0.8645,2.2617 -0.8836,2.2816 -0.061,0.064 -3.8454,0.087 -3.9456,0.024 z m 14.2364,-9.377 c -0.022,-0.3248 -2.2048,-5.9003 -2.9332,-7.4933 l -0.3607,-0.7889 -0.3849,0.8496 c -0.9489,2.0944 -3.1556,7.4904 -3.1556,7.7163 0,0.05 1.5429,0.082 3.4287,0.071 l 3.4287,-0.019 z m 33.8527,9.4076 -1.8529,-0.037 0.032,-10.2923 0.032,-10.2924 0.3384,-0.4436 c 0.4537,-0.5949 1.3638,-0.8702 2.5684,-0.777 0.4706,0.036 1.0046,0.1235 1.1866,0.1937 0.1983,0.076 0.6654,0.5792 1.165,1.2542 1.2359,1.6697 5.1484,7.3925 7.364,10.7712 l 1.9419,2.9614 0.061,-7.1143 0.061,-7.1142 0.3583,-0.374 c 0.1971,-0.2057 0.5794,-0.434 0.8496,-0.5075 0.4939,-0.1342 2.3546,-0.084 2.6039,0.07 0.094,0.058 0.1327,3.1975 0.1327,10.8707 v 10.7888 l -1.8645,0.036 c -1.0254,0.02 -1.948,0.02 -2.0502,-4e-4 -0.1021,-0.02 -0.6943,-0.8394 -1.3158,-1.8205 -2.3665,-3.7354 -5.6749,-8.7465 -8.1042,-12.2752 l -1.2903,-1.8742 -0.031,8.0337 c -0.024,6.3222 -0.063,8.0279 -0.182,8.0067 -0.083,-0.015 -0.9846,-0.043 -2.0037,-0.064 z m 21.6037,-10.3077 c 0.032,-10.2183 0.035,-10.3419 0.2822,-10.6806 0.1374,-0.1884 0.4924,-0.4667 0.7889,-0.6183 l 0.5391,-0.2758 6.5746,0.033 6.5745,0.033 0.3288,0.3035 c 0.4879,0.4502 0.6627,0.9769 0.6531,1.9683 -0.014,1.4832 0.6635,1.3322 -5.8987,1.3143 -4.5676,-0.013 -5.7264,0.016 -5.774,0.1411 -0.033,0.086 -0.053,1.249 -0.045,2.5841 l 0.014,2.4273 4.3293,0.061 4.3293,0.061 0.3287,0.3034 c 0.1808,0.1669 0.4036,0.4792 0.4951,0.694 0.1736,0.4075 0.2208,1.5524 0.091,2.2023 l -0.076,0.3779 -4.7489,0.032 -4.7488,0.032 -0.034,2.5488 c -0.019,1.4018 0,2.6716 0.033,2.8218 l 0.067,0.2731 h 5.8235 5.8234 v 1.8205 c 0,1.0013 -0.041,1.8212 -0.091,1.8219 -0.05,0 -3.6011,0.014 -7.8911,0.03 l -7.7999,0.029 z m 40.0746,10.2612 c -0.026,-0.042 -0.05,-4.692 -0.053,-10.3328 0,-7.7409 0.03,-10.3347 0.1406,-10.5765 0.08,-0.1762 0.3413,-0.4419 0.5802,-0.5904 0.3735,-0.2323 0.6043,-0.2702 1.648,-0.2702 0.6675,0 1.3096,0.039 1.4267,0.087 0.2013,0.083 0.2114,0.6875 0.1821,10.9075 l -0.031,10.82 -1.923,0.016 c -1.0576,0.01 -1.9444,-0.019 -1.9705,-0.061 z m 41.345,0.016 c -0.049,-0.033 -0.513,-1.1804 -1.0323,-2.5488 -0.5192,-1.3684 -1.0229,-2.613 -1.1192,-2.7657 l -0.1751,-0.2776 -4.6602,0.014 c -3.396,0.01 -4.6909,0.053 -4.7732,0.1562 -0.062,0.078 -0.5648,1.3298 -1.1171,2.7817 l -1.0041,2.6398 h -1.9846 c -1.255,0 -1.9845,-0.045 -1.9845,-0.1226 0,-0.4109 4.1328,-10.785 6.2874,-15.7825 2.1562,-5.001 2.2903,-5.2331 3.3212,-5.7468 0.4978,-0.2481 0.813,-0.316 1.4667,-0.316 0.871,0 1.8569,0.1875 2.1349,0.406 0.5385,0.4231 4.0227,8.635 7.6593,18.0519 l 1.332,3.4493 -0.3899,0.028 c -0.8932,0.064 -3.88,0.089 -3.9613,0.033 z m -3.4817,-9.0835 c 0.1263,-0.212 -3.3025,-8.5893 -3.4506,-8.4305 -0.181,0.1941 -3.1619,7.3368 -3.4454,8.2557 l -0.083,0.2692 3.4657,-0.01 c 1.9061,0 3.4871,-0.043 3.5133,-0.087 z m -233.8045,-1.0557 c 0,-9.7158 0.01,-10.158 0.2302,-10.5904 0.5058,-0.9914 1.5394,-1.224 5.7776,-1.3002 3.7366,-0.067 5.5095,0.2078 7.4035,1.1486 2.4046,1.1943 3.5951,3.0942 3.616,5.7707 0.011,1.3915 -0.1624,2.2477 -0.6604,3.2633 -0.5618,1.1459 -1.6411,2.2187 -2.7721,2.7557 l -0.5683,0.2698 0.9354,1.4676 c 1.2051,1.8909 2.1162,3.4726 3.2396,5.6246 l 0.903,1.7295 h -2.2957 -2.2958 l -0.1697,-0.3338 c -1.1711,-2.3026 -3.4903,-6.3655 -4.0552,-7.1039 l -0.2582,-0.3376 -2.2393,-0.046 c -1.2316,-0.025 -2.3621,-0.075 -2.5123,-0.1106 l -0.2731,-0.065 v 3.9982 3.9983 h -2.0026 -2.0026 z m 10.3267,-1.495 c 1.6114,-0.519 2.4041,-1.4465 2.5108,-2.9377 0.078,-1.0935 -0.1279,-1.8012 -0.721,-2.4749 -0.5972,-0.6786 -1.5065,-1.1266 -2.7276,-1.3443 -1.0081,-0.1797 -3.387,-0.2312 -4.6377,-0.1005 l -0.746,0.078 v 3.4394 3.4394 l 0.2731,0.059 c 0.7047,0.1532 1.0196,0.1669 3.0645,0.1339 1.8286,-0.03 2.315,-0.077 2.9839,-0.2927 z m 200.0983,2.5618 -0.031,-9.0723 -3.8216,-0.035 c -2.3694,-0.022 -3.8683,-0.082 -3.9445,-0.1578 -0.068,-0.068 -0.1224,-0.5981 -0.1218,-1.1788 0,-1.2123 0.1973,-1.7103 0.8241,-2.0925 0.3764,-0.2295 0.6789,-0.2369 9.7066,-0.2374 l 9.3181,-3e-4 0.1298,0.3337 c 0.1926,0.4957 0.072,2.0914 -0.1914,2.5379 -0.4585,0.7761 -0.5705,0.7963 -4.3232,0.7772 l -3.3888,-0.017 v 9.1075 9.1074 h -2.0625 -2.0625 z m -134.205,-31.4314 c -0.6708,-0.2526 -1.4415,-0.6851 -7.9497,-4.4619 -0.6675,-0.3874 -1.7053,-0.9882 -2.306,-1.3353 -1.1156,-0.6443 -4.4064,-2.5504 -7.3429,-4.253 -0.9012,-0.5225 -2.9766,-1.7234 -4.612,-2.6686 -1.6355,-0.9453 -4.694,-2.716 -6.7967,-3.9348 -2.1027,-1.219 -4.9155,-2.8482 -6.2505,-3.6207 -6.3325,-3.6639 -6.6146,-3.8332 -7.3248,-4.3945 -1.5216,-1.2028 -1.648,-3.2353 -0.2947,-4.7405 0.4069,-0.4525 0.8413,-0.7538 1.6633,-1.1537 0.6119,-0.2977 1.2045,-0.5412 1.3169,-0.5412 0.1172,0 0.313,0.213 0.459,0.4992 0.5003,0.9806 1.1423,1.4165 7.4699,5.0721 3.3974,1.9628 6.6687,3.8558 7.2695,4.2067 0.6008,0.351 2.485,1.4436 4.1873,2.428 1.7022,0.9845 6.0168,3.483 9.5881,5.5521 3.5713,2.0691 7.5058,4.3485 8.7433,5.0654 1.2375,0.7168 2.4552,1.36 2.706,1.4293 0.7086,0.1957 0.4717,0.3094 5.9369,-2.8508 0.8845,-0.5114 2.127,-1.2284 2.7612,-1.5932 0.6341,-0.3649 2.928,-1.6885 5.0975,-2.9415 2.1694,-1.253 6.7572,-3.8998 10.195,-5.8819 3.4378,-1.9821 6.9332,-3.9996 7.7676,-4.4833 0.8344,-0.4838 2.3091,-1.3351 3.277,-1.892 0.9679,-0.5568 2.3879,-1.3775 3.1556,-1.8238 0.7677,-0.4462 2.6792,-1.5498 4.2479,-2.4523 1.5687,-0.9025 4.4088,-2.54 6.3112,-3.6388 3.1569,-1.8233 4.7265,-2.7288 11.5301,-6.6519 1.235,-0.7121 2.7642,-1.5953 3.3984,-1.9627 0.6341,-0.3674 2.0815,-1.2021 3.2163,-1.8549 1.1348,-0.6528 2.945,-1.6965 4.0228,-2.3192 1.0777,-0.6227 2.7981,-1.6157 3.8231,-2.2067 1.025,-0.591 2.9559,-1.7054 4.291,-2.4763 1.3351,-0.771 2.7244,-1.5517 3.0873,-1.7349 0.8747,-0.4416 1.8736,-0.5342 2.6466,-0.2453 0.5182,0.1937 4.1019,2.2321 13.0177,7.4042 1.6354,0.9488 3.4924,2.0245 4.1265,2.3905 1.6934,0.9773 10.7699,6.2304 15.1105,8.7454 2.0694,1.1989 4.6636,2.7015 5.7651,3.339 3.87,2.24 4.2749,2.4864 4.7036,2.8629 0.9086,0.7978 1.2479,2.2528 0.7705,3.304 -0.3655,0.8048 -0.9767,1.2793 -3.6281,2.8172 -2.8535,1.6551 -15.6906,9.0872 -19.8087,11.4685 -6.3089,3.648 -14.4107,8.3421 -16.4455,9.5283 -3.1344,1.8271 -3.7154,2.0897 -4.6087,2.0833 -0.4024,0 -0.9302,-0.076 -1.1728,-0.163 -0.4228,-0.1511 -2.2267,-1.1763 -10.4214,-5.923 -0.6341,-0.3673 -2.9007,-1.679 -5.0368,-2.9148 -10.6323,-6.151 -11.4808,-6.6425 -12.7438,-7.3809 -0.534,-0.3122 -1.8721,-1.0874 -2.9735,-1.7227 -1.1015,-0.6353 -3.5682,-2.0636 -5.4817,-3.174 -1.9135,-1.1104 -3.5653,-2.052 -3.6706,-2.0924 -0.1191,-0.046 -1.326,0.5813 -3.1962,1.6605 -1.6526,0.9537 -5.4625,3.1519 -8.4664,4.8848 -3.0039,1.733 -7.182,4.1436 -9.2847,5.3569 -2.1028,1.2134 -6.1717,3.561 -9.0421,5.2169 -2.8703,1.656 -6.2565,3.6158 -7.5249,4.355 -2.8304,1.6498 -3.4053,1.8984 -4.3693,1.8895 -0.4005,0 -0.8101,-0.038 -0.9102,-0.075 z m 85.1406,-7.0463 c 0.2003,-0.1019 2.303,-1.3063 4.6727,-2.6766 2.3698,-1.3702 5.1279,-2.964 6.1292,-3.5418 1.0013,-0.5777 2.5305,-1.4608 3.3983,-1.9622 0.8678,-0.5015 3.4075,-1.9676 5.6437,-3.2581 12.9525,-7.4744 14.5643,-8.4138 14.5642,-8.4876 -10e-5,-0.036 -0.2868,-0.2249 -0.6372,-0.4194 -0.3504,-0.1945 -2.0464,-1.1686 -3.769,-2.1647 -1.9316,-1.117 -3.2046,-1.7833 -3.3215,-1.7384 -0.1043,0.04 -1.2073,0.6633 -2.4511,1.3851 -1.2438,0.7217 -3.5722,2.0682 -5.1743,2.9921 -1.6021,0.924 -4.2783,2.4716 -5.9471,3.4393 -1.6688,0.9676 -4.3996,2.5468 -6.0685,3.5092 -1.6688,0.9625 -3.5289,2.0421 -4.1334,2.3992 -2.6701,1.5772 -3.5771,1.857 -4.7534,1.4663 -0.5348,-0.1776 -2.0053,-0.9894 -6.1023,-3.3688 -0.6341,-0.3683 -3.2557,-1.889 -5.8257,-3.3794 -2.57,-1.4905 -6.1474,-3.5666 -7.9497,-4.6136 -6.1637,-3.5808 -6.6936,-3.8813 -6.8439,-3.8813 -0.083,0 -0.7888,0.3732 -1.5688,0.8293 -0.78,0.4561 -2.4013,1.3927 -3.6029,2.0814 -1.2015,0.6886 -2.2534,1.3147 -2.3375,1.3912 -0.1188,0.1081 0.057,0.258 0.7889,0.6722 0.8355,0.473 5.415,3.115 10.1052,5.83 0.9011,0.5217 3.195,1.8463 5.0975,2.9436 1.9024,1.0973 4.0052,2.3115 4.6727,2.6982 0.6675,0.3867 2.2241,1.2863 3.459,1.9991 1.235,0.7127 4.075,2.3521 6.3112,3.6432 2.2363,1.291 4.2298,2.3867 4.43,2.4348 0.4085,0.098 0.6821,0.048 1.2137,-0.2223 z m 2.2316,-16.702 c 1.4427,-0.8273 3.2786,-1.8834 4.0796,-2.3469 0.801,-0.4635 2.1665,-1.2534 3.0342,-1.7554 0.8678,-0.502 2.124,-1.2292 2.7915,-1.6161 0.6676,-0.3868 1.9511,-1.1274 2.8522,-1.6458 3.4313,-1.9737 5.5607,-3.2148 5.8277,-3.3968 0.299,-0.2037 0.4543,-0.1041 -5.9902,-3.8379 l -1.3155,-0.7622 -6.1347,3.5313 c -3.3741,1.9422 -6.4185,3.6612 -6.7654,3.82 -0.8844,0.4049 -1.5919,0.4785 -2.3828,0.2479 -0.3922,-0.1144 -3.2285,-1.6807 -7.0603,-3.899 l -6.4046,-3.7077 -3.7904,2.1984 c -2.0847,1.2092 -3.807,2.214 -3.8273,2.2329 -0.02,0.019 0.7716,0.4988 1.7599,1.0664 0.9882,0.5676 2.6433,1.5218 3.678,2.1204 1.0347,0.5987 2.9189,1.6877 4.1872,2.4202 1.2684,0.7324 4.2722,2.4704 6.6754,3.8623 2.4031,1.3918 4.5604,2.6278 4.794,2.7465 0.87,0.442 1.1434,0.3545 3.9915,-1.2785 z m -2.1365,-13.6233 c 0.7563,-0.3826 7.9971,-4.5182 8.1276,-4.6422 0.05,-0.048 -1.8257,-1.1982 -4.1684,-2.5571 -3.5438,-2.0555 -4.3543,-2.4789 -4.8244,-2.52 -0.5444,-0.048 -0.706,0.031 -4.4488,2.1781 -2.1361,1.2251 -4.1193,2.3682 -4.4071,2.5401 l -0.5232,0.3125 3.254,1.8623 c 6.2583,3.5817 5.8351,3.4106 6.9903,2.8263 z m -85.4785,21.2124 c -0.3003,-0.1182 -2.13,-1.1352 -4.0658,-2.2602 -1.9359,-1.1249 -4.8578,-2.8185 -6.4933,-3.7634 -1.6355,-0.9449 -4.7213,-2.7307 -6.8574,-3.9683 -7.0366,-4.0769 -17.7885,-10.3037 -20.8755,-12.0898 -3.597,-2.0811 -3.8905,-2.2757 -4.5322,-3.0047 -0.6218,-0.7065 -0.7937,-1.2255 -0.718,-2.1684 0.1132,-1.4102 0.9081,-2.4031 2.5727,-3.2136 1.4661,-0.7139 1.4957,-0.7173 1.714,-0.1948 0.1016,0.2431 0.4119,0.6885 0.6896,0.9898 0.4996,0.542 1.1286,0.9381 5.3714,3.382 1.1348,0.6537 3.4287,1.9819 5.0975,2.9515 1.6689,0.9696 3.8535,2.236 4.8548,2.8142 6.3526,3.6686 16.2828,9.4211 21.5011,12.4555 1.0784,0.627 2.1333,1.2002 2.3442,1.2738 0.79,0.2753 0.5829,0.3777 8.5603,-4.232 3.4916,-2.0176 16.4281,-9.4818 20.4508,-11.7999 1.7022,-0.9808 5.9622,-3.4393 9.4668,-5.4632 3.5045,-2.0239 7.0546,-4.074 7.889,-4.5559 0.8344,-0.4819 2.6367,-1.5202 4.0052,-2.3073 1.3684,-0.7871 4.5362,-2.6154 7.0394,-4.0628 2.5032,-1.4474 5.8621,-3.3862 7.4642,-4.3083 1.6021,-0.9221 3.7321,-2.1527 4.7334,-2.7349 4.3881,-2.551 12.1839,-7.0277 12.6831,-7.2832 0.3779,-0.1934 0.8266,-0.2958 1.4565,-0.3323 0.8946,-0.052 0.93,-0.043 2.0632,0.5408 0.6342,0.3264 2.2181,1.2152 3.5198,1.9751 1.3016,0.7599 3.1966,1.8607 4.2111,2.4462 1.0144,0.5855 3.0898,1.7862 4.612,2.668 1.5222,0.8819 3.2865,1.9031 3.9206,2.2694 0.6342,0.3663 2.3273,1.347 3.7625,2.1792 1.4352,0.8321 3.6745,2.1295 4.9761,2.883 1.3017,0.7534 3.8687,2.2396 5.7044,3.3026 1.8357,1.063 4.785,2.7691 6.5539,3.7913 1.769,1.0223 3.5468,2.092 3.9506,2.3772 1.4794,1.0447 1.9179,2.2057 1.4404,3.8138 -0.259,0.8719 -1.1453,1.755 -2.3583,2.3498 -0.4998,0.2451 -1.0725,0.4749 -1.2728,0.5108 -0.3333,0.06 -0.384,0.021 -0.5992,-0.4514 -0.3697,-0.8122 -1.1004,-1.408 -3.2389,-2.6409 -2.9106,-1.6781 -4.4277,-2.556 -7.8134,-4.5216 -1.6688,-0.9689 -3.553,-2.0611 -4.1872,-2.4271 -0.6342,-0.3661 -2.7096,-1.5681 -4.612,-2.6712 -1.9025,-1.103 -4.4968,-2.604 -5.7651,-3.3355 -1.2683,-0.7315 -4.9003,-2.8328 -8.0711,-4.6697 -3.1707,-1.8369 -5.941,-3.3998 -6.1562,-3.4732 -0.2152,-0.073 -0.5417,-0.1061 -0.7257,-0.073 -0.1839,0.033 -1.2641,0.5951 -2.4003,1.2484 -3.6,2.0698 -10.0642,5.797 -14.0207,8.0841 -2.1027,1.2154 -4.9427,2.8544 -6.3112,3.642 -1.3684,0.7876 -5.0823,2.9301 -8.2531,4.7612 -3.1708,1.831 -6.6935,3.8643 -7.8283,4.5183 -1.1348,0.654 -3.4287,1.9776 -5.0975,2.9413 -5.3214,3.0728 -14.8719,8.5854 -16.567,9.5623 -0.9011,0.5194 -2.8127,1.623 -4.2479,2.4527 -1.4352,0.8296 -3.5925,2.0743 -4.7941,2.7661 -1.2015,0.6917 -3.3316,1.9222 -4.7334,2.7342 -7.781,4.5076 -7.852,4.544 -8.86,4.5394 -0.3337,0 -0.8526,-0.099 -1.153,-0.2176 z m 0.5462,-15.9164 c -0.6403,-0.1489 -1.2124,-0.4387 -3.5439,-1.7948 -1.255,-0.7301 -3.5107,-2.0372 -5.0126,-2.9048 -2.6562,-1.5343 -10.2125,-5.9099 -23.8491,-13.8103 -3.6715,-2.1271 -7.3307,-4.2455 -8.1318,-4.7076 -3.0102,-1.7368 -3.6795,-2.5258 -3.5576,-4.1941 0.1006,-1.377 0.9292,-2.4103 2.5867,-3.2258 1.3905,-0.684 1.4215,-0.6825 1.8592,0.093 0.2064,0.3659 0.5826,0.8383 0.8359,1.0498 0.2532,0.2116 1.8805,1.205 3.6161,2.2076 1.7356,1.0027 3.7017,2.1406 4.3693,2.5288 1.9061,1.1084 7.2145,4.1815 9.2847,5.3751 1.0347,0.5964 2.5093,1.4516 3.277,1.9004 0.7677,0.4487 2.4881,1.4477 3.8231,2.22 1.3351,0.7724 3.8201,2.2102 5.5224,3.1952 4.4108,2.5525 6.7024,3.8751 7.9044,4.5619 0.5759,0.3291 1.2322,0.6284 1.4585,0.6651 0.4903,0.08 0.9654,-0.1569 4.898,-2.4392 1.4685,-0.8522 3.7624,-2.1796 5.0975,-2.9498 1.335,-0.7701 4.1751,-2.4105 6.3112,-3.6452 2.1361,-1.2346 5.0854,-2.937 6.5539,-3.7829 3.6364,-2.0946 7.2764,-4.1953 8.7386,-5.0434 0.6676,-0.3871 2.6064,-1.5054 4.3086,-2.4851 1.7022,-0.9797 4.1873,-2.4123 5.5223,-3.1836 1.3351,-0.7713 3.274,-1.8909 4.3087,-2.488 1.0346,-0.5971 2.5912,-1.497 3.459,-1.9997 0.8678,-0.5027 2.6974,-1.5571 4.0659,-2.343 2.9029,-1.6674 8.9223,-5.1406 10.4984,-6.0578 0.6008,-0.3495 1.857,-1.076 2.7915,-1.6144 0.9345,-0.5383 3.7746,-2.1778 6.3112,-3.6433 10.0946,-5.8317 9.8302,-5.6965 10.8928,-5.572 0.9946,0.1165 -0.2137,-0.5494 15.0803,8.3102 3.7381,2.1656 7.5067,4.3496 8.3744,4.8535 0.8678,0.5039 2.4078,1.395 3.4223,1.9801 1.0144,0.5852 3.0898,1.7854 4.612,2.6673 3.7566,2.1763 4.8364,2.8016 6.4694,3.7461 0.7677,0.4439 2.1877,1.2664 3.1556,1.8277 2.7907,1.6182 3.5332,2.5388 3.3647,4.1719 -0.1375,1.332 -0.9605,2.3283 -2.563,3.1028 -1.467,0.709 -1.4748,0.7096 -1.7677,0.1355 -0.5351,-1.0489 -0.9114,-1.3433 -4.0102,-3.1372 -0.7009,-0.4058 -4.524,-2.617 -8.4958,-4.9138 -3.9718,-2.2968 -8.0953,-4.6824 -9.1634,-5.3014 -1.068,-0.6189 -2.4881,-1.4415 -3.1556,-1.828 -0.6675,-0.3866 -2.1968,-1.2732 -3.3983,-1.9703 -1.2016,-0.6972 -3.1132,-1.8049 -4.248,-2.4616 -1.1348,-0.6567 -3.1593,-1.8324 -4.4989,-2.6125 -2.6164,-1.5238 -3.1503,-1.7609 -3.7127,-1.6484 -0.1989,0.04 -1.6004,0.789 -3.1144,1.6649 -5.0374,2.9141 -5.768,3.3358 -8.6999,5.0216 -1.6021,0.9211 -3.541,2.0399 -4.3086,2.4862 -0.7677,0.4462 -2.1604,1.2523 -3.095,1.7912 -0.9345,0.5389 -3.993,2.3034 -6.7966,3.9212 -8.7224,5.033 -11.1588,6.4388 -15.2926,8.8232 -2.2028,1.2706 -5.2613,3.0363 -6.7967,3.9238 -1.5353,0.8874 -3.8019,2.1955 -5.0368,2.9069 -2.0688,1.1917 -3.9037,2.2504 -7.889,4.5514 -3.2491,1.876 -4.0253,2.3238 -6.3719,3.6758 -2.3009,1.3256 -5.4725,3.158 -10.9158,6.3065 -3.5412,2.0482 -4.2867,2.34 -5.3477,2.0933 z m -0.3034,-16.1277 c -0.4782,-0.1557 -1.2352,-0.5627 -3.5804,-1.9253 -1.2016,-0.6981 -2.6762,-1.5547 -3.277,-1.9037 -0.6008,-0.3489 -2.1846,-1.2658 -3.5197,-2.0374 -1.3351,-0.7717 -3.9566,-2.2895 -5.8257,-3.3728 -1.8691,-1.0834 -4.4907,-2.6003 -5.8258,-3.3709 -1.335,-0.7707 -2.8643,-1.656 -3.3983,-1.9675 -1.309,-0.7635 -2.6014,-1.5122 -8.86,-5.1326 -2.9371,-1.6991 -5.9683,-3.4546 -6.736,-3.9012 -2.109,-1.227 -2.7837,-2.0075 -2.7881,-3.2253 -0.01,-1.4949 0.714,-2.3219 3.2823,-3.7729 1.3567,-0.7664 11.5698,-6.6698 21.7164,-12.5525 1.3017,-0.7547 3.5683,-2.0669 5.0369,-2.9161 5.118,-2.9596 8.9938,-5.202 10.8018,-6.2498 2.9014,-1.6815 2.7801,-1.6306 3.8838,-1.6301 1.23,4e-4 0.7694,-0.2293 8.2532,4.1177 1.4018,0.8142 3.6684,2.1267 5.0368,2.9165 1.3684,0.7899 2.925,1.6915 3.459,2.0036 0.534,0.3121 2.0633,1.1983 3.3984,1.9693 1.335,0.7711 3.9566,2.2882 5.8257,3.3713 1.8691,1.0831 4.436,2.5696 5.7044,3.3033 3.848,2.226 4.6444,2.6869 6.9787,4.0393 1.2349,0.7154 2.4141,1.3969 2.6204,1.5145 l 0.375,0.2138 0.96,-0.5731 c 0.528,-0.3151 3.1447,-1.8317 5.8148,-3.3702 11.8162,-6.8084 23.4116,-13.4973 25.0021,-14.4227 5.3591,-3.1184 8.1597,-4.7016 8.6787,-4.9062 0.8153,-0.3213 1.7117,-0.3069 2.548,0.041 0.3671,0.1528 3.098,1.6888 6.0685,3.4134 2.9705,1.7246 6.4659,3.7508 7.7676,4.5027 28.2489,16.3167 28.7884,16.6421 29.3291,17.6876 0.1076,0.2081 0.2212,0.7084 0.2524,1.112 0.1395,1.8034 -1.1351,3.2594 -3.621,4.1365 l -0.4741,0.1672 -0.2961,-0.5843 c -0.4471,-0.8823 -1.2606,-1.5149 -3.9069,-3.0381 -1.3257,-0.763 -4.4039,-2.542 -6.8404,-3.9533 -12.8651,-7.4518 -17.2747,-10.0058 -20.6935,-11.9854 -2.0694,-1.1981 -4.6363,-2.6847 -5.7044,-3.3034 -1.068,-0.6187 -2.1284,-1.22 -2.3564,-1.3361 -0.6006,-0.306 -1.3673,-0.1925 -2.2556,0.3339 -0.4005,0.2374 -3.2133,1.8649 -6.2505,3.6166 -3.0373,1.7519 -7.6524,4.4147 -10.2558,5.9175 -2.6033,1.5028 -5.9349,3.424 -7.4035,4.2694 -2.4052,1.3845 -5.5711,3.2119 -15.4139,8.8969 -1.7356,1.0024 -3.8383,2.2156 -4.6727,2.6958 -0.8344,0.4803 -3.6472,2.1021 -6.2505,3.604 -2.6034,1.5019 -5.2796,3.0458 -5.9471,3.4308 -0.6676,0.385 -2.8249,1.6317 -4.7941,2.7704 -3.3253,1.9228 -7.343,4.2423 -11.2874,6.5163 -0.9012,0.5195 -2.8946,1.6703 -4.43,2.5574 -3.9068,2.2571 -4.0933,2.3453 -5.0368,2.381 -0.4339,0.016 -0.9254,-0.014 -1.0923,-0.069 z m 3.0787,-7.7537 c 0.8099,-0.4568 2.7405,-1.5611 4.29,-2.4541 l 2.8174,-1.6235 -0.39,-0.2379 c -2.4778,-1.5114 -8.3412,-4.7334 -8.7017,-4.7817 -0.5456,-0.073 -0.2744,-0.2092 -5.3209,2.6677 -2.2245,1.2681 -3.9995,2.3473 -3.9445,2.3982 0.09,0.084 4.8722,2.8749 7.2365,4.2241 1.2268,0.7001 1.7291,0.8704 2.1833,0.7401 0.1965,-0.056 1.02,-0.4762 1.8299,-0.9329 z m -12.5678,-9.3325 c 2.0482,-1.1798 4.7344,-2.7288 5.9694,-3.4422 1.2349,-0.7134 2.4791,-1.4162 2.7648,-1.5617 1.1209,-0.5708 2.2533,-0.5524 3.4657,0.057 0.3448,0.1732 3.3177,1.8732 6.6065,3.7778 l 5.9796,3.4631 1.5453,-0.9035 c 0.8499,-0.4969 2.5704,-1.4944 3.8234,-2.2166 1.253,-0.7222 2.2618,-1.3294 2.2419,-1.3494 -0.031,-0.031 -2.392,-1.3971 -10.0424,-5.811 -2.1374,-1.2332 -4.4659,-2.5803 -5.8864,-3.4054 -5.6699,-3.2932 -5.547,-3.2296 -6.1291,-3.1753 -0.4123,0.038 -1.0074,0.3181 -2.4274,1.1402 -1.0347,0.5991 -3.0009,1.7333 -4.3693,2.5204 -1.3685,0.7872 -3.8808,2.2371 -5.583,3.2221 -1.7022,0.9849 -4.4985,2.6026 -6.214,3.5948 -1.7155,0.9922 -3.1331,1.8586 -3.1502,1.9253 -0.042,0.1647 7.3199,4.4395 7.5214,4.3673 0.088,-0.032 1.8356,-1.0226 3.8838,-2.2024 z m 42.3802,-7.8674 c 1.8357,-1.0563 3.3649,-1.9469 3.3983,-1.9791 0.033,-0.032 0.01,-0.079 -0.061,-0.1043 -0.067,-0.025 -1.9237,-1.088 -4.1265,-2.3619 -4.196,-2.4265 -9.7673,-5.6454 -17.1131,-9.8872 -2.4031,-1.3876 -5.2159,-3.0127 -6.2505,-3.6113 -6.7753,-3.9195 -7.3115,-4.208 -7.8225,-4.208 -0.4032,0 -0.8223,0.188 -2.194,0.984 -0.9326,0.5412 -2.433,1.4095 -3.3342,1.9296 -3.2489,1.8749 -8.7174,5.0323 -10.6198,6.1318 -3.4472,1.9923 -10.5979,6.12 -13.7147,7.9168 -4.771,2.7504 -5.3965,3.1201 -5.3988,3.1908 0,0.037 0.8031,0.528 1.7874,1.0923 0.9842,0.5644 2.6635,1.5312 3.7318,2.1487 1.0683,0.6175 2.0062,1.1227 2.0843,1.1227 0.078,0 0.5625,-0.2487 1.0766,-0.5526 0.514,-0.3039 2.0068,-1.1702 3.3173,-1.925 1.3105,-0.7549 3.9393,-2.2725 5.8417,-3.3725 1.9025,-1.1 5.0429,-2.9155 6.9788,-4.0345 1.9358,-1.1189 4.6091,-2.6648 5.9405,-3.4354 3.2765,-1.8961 3.5839,-2.0322 4.5579,-2.018 0.5131,0.01 0.9873,0.099 1.3565,0.2631 0.3121,0.1383 2.3875,1.3113 4.612,2.6067 2.2245,1.2954 5.3007,3.0827 6.836,3.9718 1.5353,0.8891 3.7746,2.1872 4.9761,2.8848 1.2016,0.6975 2.7309,1.5851 3.3984,1.9725 0.6675,0.3873 2.3879,1.3878 3.8231,2.2234 l 2.6095,1.5192 0.4854,-0.2739 c 0.2671,-0.1507 1.9875,-1.1382 3.8232,-2.1945 z"
       id="path31" /></g></svg>
