<?xml version="1.0" encoding="UTF-8" standalone="no"?>
<!-- Created with Inkscape (http://www.inkscape.org/) -->

<svg
   width="55.277649mm"
   height="17.358463mm"
   viewBox="0 0 208.9234 65.606791"
   version="1.1"
   id="svg1"
   xml:space="preserve"
   inkscape:export-filename="bitmap.svg"
   inkscape:export-xdpi="96"
   inkscape:export-ydpi="96"
   inkscape:version="1.4.3 (0d15f75, 2025-12-25)"
   sodipodi:docname="inomeado.svg"
   inkscape:export-batch-name="inomeado"
   xmlns:inkscape="http://www.inkscape.org/namespaces/inkscape"
   xmlns:sodipodi="http://sodipodi.sourceforge.net/DTD/sodipodi-0.dtd"
   xmlns="http://www.w3.org/2000/svg"
   xmlns:svg="http://www.w3.org/2000/svg"><sodipodi:namedview
     id="namedview1"
     pagecolor="#ffffff"
     bordercolor="#000000"
     borderopacity="0.25"
     inkscape:showpageshadow="2"
     inkscape:pageopacity="0.0"
     inkscape:pagecheckerboard="0"
     inkscape:deskcolor="#d1d1d1"
     inkscape:document-units="mm"
     inkscape:zoom="0.48693448"
     inkscape:cx="413.81338"
     inkscape:cy="500.06728"
     inkscape:window-width="1920"
     inkscape:window-height="991"
     inkscape:window-x="-9"
     inkscape:window-y="-9"
     inkscape:window-maximized="1"
     inkscape:current-layer="layer1"
     showguides="false"><inkscape:page
       x="0"
       y="0"
       width="208.9234"
       height="65.606796"
       id="page1"
       margin="0"
       bleed="0" /></sodipodi:namedview><defs
     id="defs1" /><g
     inkscape:label="Camada 1"
     inkscape:groupmode="layer"
     id="layer1"
     transform="translate(-107.50899,-141.67938)"><path
       style="fill:#ffffff;fill-opacity:1;stroke-width:0.381253"
       d="m 111.50449,205.28767 -3.9955,-1.9986 v -19.5072 -19.50729 l 4.0887,-3.703 c 3.6844,-3.3369 4.2062,-3.7657 5.2765,-4.3364 1.9076,-1.0172 2.9709,-1.2768 5.5229,-1.3486 1.6584,-0.047 2.4396,-0.013 3.477,0.1494 6.81,1.0662 10.6218,5.5812 11.6965,13.8544 0.4077,3.1383 0.36,7.4711 -0.1172,10.65809 -0.9448,6.3103 -3.547,10.4715 -7.8613,12.5713 -2.1858,1.0639 -4.0724,1.4607 -6.955,1.4631 -1.7092,0 -2.1664,-0.04 -3.0293,-0.2731 -1.257,-0.3398 -2.4783,-0.9453 -3.3674,-1.6695 l -0.6777,-0.5519 -0.031,8.0989 -0.031,8.0989 z m 12.5252,-19.6853 c 3.1783,-0.8129 4.9768,-3.3518 5.7057,-8.05469 0.2122,-1.3692 0.2133,-6.1845 0,-7.5641 -0.8625,-5.6235 -3.305,-8.2253 -7.527,-8.018 -2.2312,0.1096 -3.9253,0.8851 -5.5815,2.5551 l -0.9455,0.9533 v 8.27 8.26989 l 0.3544,0.559 c 1.5897,2.5066 4.9928,3.7966 7.9922,3.0295 z m 63.7559,8.5844 c -2.8286,-0.2441 -5.5398,-1.1189 -7.4421,-2.4013 -1.8233,-1.2291 -2.9336,-2.4249 -3.8303,-4.1252 -1.0476,-1.9864 -1.454,-3.8624 -1.4508,-6.6966 0,-3.91199 1.1423,-6.74559 3.7477,-9.33309 2.4785,-2.4614 4.9245,-3.4239 9.0518,-3.5617 2.2833,-0.076 4.1194,0.065 6.065,0.4662 0.6601,0.1362 1.2263,0.2216 1.2581,0.1898 0.1129,-0.1129 -0.2216,-2.0804 -0.4639,-2.7278 -0.3181,-0.8504 -1.3768,-2.0025 -2.2168,-2.4126 -0.3474,-0.1696 -1.0983,-0.4263 -1.6687,-0.5704 -0.89,-0.2249 -1.2445,-0.2516 -2.501,-0.188 -2.4098,0.1218 -4.4831,0.7533 -6.5354,1.9905 -0.875,0.5275 -1.1486,0.6421 -1.2262,0.5135 -0.055,-0.091 -0.9475,-1.4557 -1.9835,-3.0326 -1.3371,-2.0349 -1.8486,-2.9095 -1.7628,-3.0136 0.1942,-0.2354 2.3132,-1.4661 3.2938,-1.913 2.9944,-1.3646 6.0352,-2.021 9.3821,-2.0252 2.8117,0 4.9927,0.475 7.1528,1.5692 1.7617,0.8924 3.4758,2.2982 4.5004,3.6909 0.563,0.7654 1.3129,2.3002 1.6312,3.3388 0.5784,1.8867 0.6137,2.5849 0.6077,12.017 l -0.01,8.84509 -3.8523,3.599 c -2.1188,1.9795 -4.2159,3.8324 -4.6602,4.1177 -1.8917,1.2143 -4.6899,1.8707 -7.091,1.6634 z m 2.7499,-6.9448 c 1.3989,-0.3611 3.2243,-1.3992 4.1143,-2.3398 l 0.3372,-0.3563 -0.032,-4.0781 -0.032,-4.07819 -0.4687,-0.1535 c -1.7429,-0.5708 -6.1224,-0.9461 -7.5544,-0.6472 -1.5933,0.3325 -3.1876,1.4984 -4.0368,2.95199 -1.7759,3.04 0.4258,7.711 4.1012,8.7008 0.8614,0.232 2.6736,0.2322 3.5716,0 z m 66.5773,6.8953 c -2.3156,-0.2378 -3.9937,-0.7276 -5.8882,-1.7183 -4.0741,-2.1305 -6.0926,-5.4312 -6.4085,-10.4793 -0.2619,-4.18479 1.1074,-7.81809 3.9663,-10.52439 2.5004,-2.367 5.3834,-3.3812 9.6161,-3.383 1.9923,0 3.6321,0.1552 5.205,0.4952 0.6007,0.1298 1.136,0.2361 1.1895,0.2361 0.1708,0 0.1042,-1.3962 -0.099,-2.0824 -0.4069,-1.3712 -1.15,-2.3685 -2.2434,-3.011 -2.6364,-1.5488 -7.6965,-0.9454 -11.1997,1.3355 -0.434,0.2827 -0.8108,0.4527 -0.8656,0.3907 -0.1501,-0.17 -3.8135,-5.8116 -3.8709,-5.9612 -0.028,-0.073 0.4581,-0.4411 1.0801,-0.8182 3.6743,-2.2273 7.4242,-3.2735 11.7333,-3.2735 2.6124,0 4.6079,0.4041 6.6191,1.3403 3.3165,1.5439 5.5209,3.9405 6.5641,7.1362 0.6348,1.9447 0.6765,2.7094 0.6661,12.2183 l -0.01,8.76839 -3.6488,3.416 c -4.2331,3.9631 -4.4489,4.1419 -5.8097,4.8163 -1.8768,0.93 -4.3024,1.3339 -6.5957,1.0983 z m 3.2072,-6.8953 c 1.3775,-0.3555 2.826,-1.1562 3.9297,-2.1721 l 0.5185,-0.4773 v -4.0672 c 0,-3.74899 -0.017,-4.07599 -0.2135,-4.18049 -0.2942,-0.1562 -2.4353,-0.5876 -3.6873,-0.743 -0.5686,-0.07 -1.6746,-0.1283 -2.4577,-0.1283 -2.2778,0 -3.5227,0.4907 -4.8947,1.9291 -0.7767,0.8143 -1.1176,1.42509 -1.3912,2.49309 -0.7463,2.9129 1.5178,6.5092 4.6246,7.3459 0.8614,0.232 2.6737,0.2322 3.5716,0 z m 31.5934,6.8253 c -1.4634,-0.2119 -2.729,-0.6082 -3.986,-1.2481 -1.3144,-0.6692 -1.4958,-0.8149 -5.4194,-4.3525 l -4.0593,-3.66 -0.01,-19.58199 -0.01,-19.582 3.965,-1.9814 3.9651,-1.9814 v 8.0518 c 0,4.4285 0.028,8.0518 0.063,8.0518 0.035,0 0.3776,-0.2568 0.7625,-0.5706 0.7714,-0.629 2.0129,-1.2479 3.1398,-1.5653 1.0963,-0.3087 4.2054,-0.3848 5.7451,-0.1404 3.259,0.5171 5.7675,1.7284 7.736,3.7356 2.4763,2.525 3.8946,5.9165 4.5938,10.9848 0.2963,2.1476 0.2989,7.7386 0,9.88209 -1.1018,8.0272 -4.7205,12.4634 -11.1956,13.7248 -0.9871,0.1923 -4.5091,0.3471 -5.2981,0.2328 z m 3.436,-7.2964 c 1.0511,-0.2795 1.7691,-0.7047 2.6222,-1.5528 1.228,-1.2206 2.0008,-2.9774 2.4889,-5.6574 0.267,-1.46599 0.3745,-5.70829 0.1872,-7.38679 -0.6564,-5.881 -3.2991,-9.0599 -7.5143,-9.0389 -2.5147,0.013 -4.6449,1.0248 -5.9836,2.8433 l -0.5434,0.7381 v 8.4152 8.41519 l 0.7606,0.7921 c 2.1695,2.2593 5.1816,3.177 7.9824,2.432 z m -153.1922,-17.33589 v -23.8508 l 3.9032,-1.9524 3.9032,-1.9523 0.031,8.1743 0.031,8.1743 0.61,-0.4424 c 0.9191,-0.6666 2.7158,-1.4837 4.0532,-1.8433 1.1191,-0.3009 1.3665,-0.3212 3.9989,-0.3287 3.0727,-0.01 3.6006,0.068 5.3908,0.7852 3.5599,1.4254 6.1255,4.922 7.2697,9.9079 0.2548,1.1102 0.2605,1.3802 0.3008,14.15539 l 0.041,13.0236 h -3.9059 -3.9059 l -0.034,-12.5356 -0.034,-12.53559 -0.29,-0.7757 c -0.3793,-1.015 -1.3283,-2.4216 -2.1046,-3.1196 -1.3136,-1.1811 -3.1235,-1.7535 -5.047,-1.5964 -1.2792,0.1045 -1.9055,0.2593 -2.8637,0.7076 -1.055,0.4936 -1.9186,1.3745 -2.4789,2.5287 -0.8356,1.7213 -0.8185,1.406 -0.8185,15.06029 v 12.2663 h -4.026 -4.026 z m 66.1246,5.0016 v -18.8491 h 4.087 4.087 v 1.2672 1.2673 l 0.8845,-0.8734 c 1.4244,-1.4064 2.7425,-1.9057 5.0277,-1.9042 1.6001,0 2.9386,0.2851 4.2942,0.9114 0.8883,0.4104 2.4817,1.4531 2.4817,1.6239 0,0.046 -0.5871,1.7091 -1.3047,3.6953 l -1.3047,3.6114 -0.7388,-0.6043 c -1.1329,-0.9266 -2.2976,-1.4392 -3.4484,-1.5179 -2.3426,-0.16 -4.2102,1.0167 -5.0874,3.2054 -0.7459,1.8608 -0.7226,1.4149 -0.7714,14.78559 l -0.045,12.2306 h -4.0811 -4.081 z m 24.8882,-4.9406 v -23.7899 l 4.0253,-2.0133 c 2.2139,-1.1074 4.053,-2.0134 4.087,-2.0134 0.034,0 0.062,11.6114 0.062,25.8032 v 25.80319 h -4.087 -4.087 z m 78.3651,-6.5628 c -1.1403,-0.4076 -2.0534,-1.3602 -2.3594,-2.4614 -0.1819,-0.655 -0.1448,-1.7213 0.083,-2.3921 0.2781,-0.8176 1.3481,-1.8877 2.1658,-2.1657 0.7559,-0.2571 1.93,-0.2625 2.6643,-0.012 0.7416,0.2526 1.607,1.0282 2.0151,1.8058 0.2811,0.5356 0.3281,0.7734 0.3285,1.662 0,1.1699 -0.2272,1.8243 -0.9028,2.5938 -0.8848,1.0078 -2.6736,1.4421 -3.9948,0.9699 z m 2.849,-0.9474 c 0.6151,-0.3605 1.0781,-1.0009 1.3309,-1.8409 0.4669,-1.5512 -0.6457,-3.3373 -2.311,-3.7099 -1.8451,-0.413 -3.6174,1.0316 -3.6174,2.9485 0,0.3862 0.058,0.8567 0.1288,1.0456 0.6853,1.8272 2.7688,2.5529 4.4687,1.5567 z m -3.2555,-2.5553 v -2.013 h 0.8997 c 1.6872,0 2.1503,0.2461 2.1503,1.1424 0,0.5195 -0.133,0.7415 -0.6609,1.103 -0.2229,0.1526 -0.2072,0.1949 0.3355,0.9001 0.3132,0.407 0.5694,0.7716 0.5694,0.8103 0,0.039 -0.1521,0.07 -0.3381,0.07 -0.2742,0 -0.4646,-0.1624 -1.0065,-0.8586 -0.549,-0.7052 -0.7229,-0.8524 -0.9734,-0.8235 -0.2876,0.033 -0.3071,0.082 -0.3411,0.8586 -0.034,0.7832 -0.051,0.8235 -0.3355,0.8235 h -0.2994 z m 1.9288,-0.3152 c 0.4708,-0.1641 0.6094,-0.5331 0.3203,-0.8525 -0.164,-0.1813 -0.3767,-0.2353 -0.926,-0.2353 h -0.7131 v 0.5287 c 0,0.2908 0.037,0.5653 0.081,0.61 0.125,0.1249 0.8145,0.097 1.2375,-0.051 z"
       id="path28" /></g></svg>
